<?xml version="1.0" encoding="utf-8"?>
<!-- Generator: Adobe Illustrator 24.2.3, SVG Export Plug-In . SVG Version: 6.00 Build 0)  -->
<svg version="1.1" id="Layer_1" xmlns="http://www.w3.org/2000/svg" xmlns:xlink="http://www.w3.org/1999/xlink" x="0px" y="0px"
	 viewBox="0 0 1106 322" style="enable-background:new 0 0 1106 322;" xml:space="preserve">
<style type="text/css">
	.st0{fill:#F4E6DC;}
	.st1{fill:#FFFFFF;}
	.st2{fill:#F0E3DA;}
	.st3{fill:#AFB0B0;}
	.st4{fill:#2B3536;}
	.st5{fill:#3A3432;}
	.st6{fill:#462D25;}
	.st7{fill:#EFD6BF;}
	.st8{fill:#6C7CCD;}
	.st9{fill:#A8C287;}
	.st10{fill:#84B9DD;}
	.st11{fill:#CF9B8C;}
	.st12{fill:#FAD379;}
	.st13{fill:#E65D54;}
	.st14{fill:#FCA165;}
	.st15{fill:#FABA46;}
</style>
<g>
	<path class="st0" d="M752.8,322.6c0.1,0.1,0.2,0.2,0.3,0.4c-15.6,0-31.3,0-46.9,0c0-0.1,0-0.2,0-0.4c0.5,0,1,0.1,1.5,0.1
		c1.4,0,1.4,0,1.5-1.4c0.2-3.1,0.5-6.2,0.7-9.3c0.8-13,1.6-25.9,2.4-38.9c0-0.1,0.1-0.2,0.1-0.4c0.1-2.7,0.1-2.7,2.8-2.9
		c0.4,0,0.9-0.1,1.3-0.1c10.5-0.5,20.2-3.4,29.5-8.1c2.6-1.3,2.9-1.1,2.9,1.7c0.2,17,0.5,34,0.9,51c0.1,2.5,0.1,4.9,0.2,7.4
		c0,0.9,0.4,1.1,1.2,0.9C751.8,322.7,752.3,322.7,752.8,322.6z"/>
	<path class="st0" d="M834.4,322.5c0,0.2,0.1,0.4,0.1,0.5c-14.2,0-28.5,0-42.7,0c0-0.2,0-0.3,0-0.5c0.3,0,0.6,0.1,0.9,0.1
		c1.9,0.1,2,0.1,2.2-1.8c1-7.4,2-14.7,3-22.1c1.3-9.8,2.7-19.5,3.7-29.3c0.1-0.7,0.3-1.4,0.5-2c0.4-1,1.1-1.5,2.2-1.4
		c1.5,0.2,2.9,0,4.3-0.5c1.3-0.5,2.4-0.1,3.3,0.9c0.4,0.4,0.7,0.9,1.2,1.3c1.3,1.1,3.1,1.3,4.8,0.3c1.8-0.9,2.4-2,2-4
		c-0.3-2.1,0.4-3.6,2.1-4.8c2.6-1.8,5-3.9,7.4-6c0.2-0.2,0.5-0.4,0.8-0.6c0.5-0.2,0.9-0.2,1,0.5c0,0.3,0,0.6,0,1
		c-0.3,14.9-0.5,29.9-0.4,44.8c0.1,7.4,0.2,14.7,0.3,22.1c0,1.7,0,1.7,1.8,1.6C833.4,322.8,833.9,322.7,834.4,322.5z"/>
	<path class="st1" d="M577.6,323c-5.3,0-10.7,0-16,0c0-0.2,0-0.3,0-0.5c-0.2-4.9-0.6-9.8-0.6-14.7c-0.2-15.1-0.2-30.3,1-45.4
		c0.8-9.5,1.8-19,2.8-28.4c1.1-9.7,3-19.2,4.1-28.9c0.2-2.1,1.2-3.7,2.8-5c0.3-0.2,0.5-0.4,0.8-0.3c0.9,0.1,1.9,0.1,2.8,0.5
		c1.2,0.5,1.8,0.4,1.3,2.1c-0.2,0.7-0.1,1.5-0.1,2.3c0,8.7,0.6,17.3,1.7,25.9c1,8,1.4,16,0.9,24c-0.5,8.1-0.9,16.2-1.3,24.4
		c-0.6,12.8-0.7,25.7-0.6,38.5c0,1.7,0.1,3.4,0.4,5.1C577.6,322.7,577.6,322.9,577.6,323z"/>
	<path class="st1" d="M400.9,323c-4.2,0-8.4,0-12.6,0c0-0.1,0-0.3,0-0.4c0.2-1.9,0.4-3.8,0.8-5.7c0.8-3.9,1.3-7.8,1.6-11.7
		c0.4-5.5,0.7-11,1.2-16.5c0.7-7.2,1.2-14.3,1-21.5c-0.1-4.6,0.4-9.1,1-13.7c0.7-5.5,1.3-11.1,1.3-16.7c0-5-0.1-9.9,0.3-14.9
		c0.1-1.1,0.1-2.2,0-3.2c-0.1-1.6,0.2-2.2,1.8-2.4c1.6-0.1,2.9-0.9,4.2-1.6c2.6-1.5,5.4-2.5,8.5-3.1c-0.1,1.1-0.2,2.2-0.3,3.3
		c-0.4,4.9-0.3,9.9-0.4,14.9c-0.2,6.8-0.5,13.6-1.3,20.3c-1,8.5-2.8,16.8-4.6,25.1c-2.7,12.6-4,25.3-3.2,38.2c0.2,3,0.5,6.1,0.8,9.1
		C400.9,322.7,400.9,322.8,400.9,323z"/>
	<path class="st2" d="M400.9,323c0-0.2,0-0.3,0.1-0.5c1.1,0.3,2.3,0.2,3.4,0.1c7.3,0,14.7,0,22,0c0.6,0,1.3,0.1,1.9,0.1
		c22.8,0,45.5,0,68.3,0c0.6,0,1.1,0,1.7,0c0.8,0,1.5,0.1,2.3,0.1c18.6,0,37.2,0,55.7,0c0.6,0,1.3,0,1.9,0c1.1,0.1,2.2,0.2,3.3-0.1
		c0,0.2,0,0.3,0,0.5C508,323,454.4,323,400.9,323z"/>
	<path class="st2" d="M241.3,323c0-0.1,0-0.3,0-0.4c0.6,0.1,1.3,0.2,1.9,0c0.4,0.1,0.8,0.1,1.1,0c15.4,0,30.7,0,46.1,0
		c0.6,0,1.1-0.1,1.7-0.1c0.5,0.2,0.9,0.2,1.4,0.1c0.6,0.1,1.2,0.1,1.9,0c0,0.2,0,0.3,0,0.5C277.5,323,259.4,323,241.3,323z"/>
	<path class="st0" d="M636.4,323c-17.9,0-35.9,0-53.8,0c0-0.1,0-0.3,0-0.4l0,0c17,0,33.9,0,50.9,0c0.9,0,1.8,0,2.7-0.1
		c0.1,0,0.2,0,0.2,0.1C636.4,322.8,636.4,322.9,636.4,323z"/>
	<path class="st0" d="M332.2,323c0-0.1,0-0.3,0-0.4c0.9,0.2,1.7,0.2,2.6,0c0.9,0,1.8,0,2.7,0c15.4,0,30.8,0,46.2,0l0.1,0
		c0,0.1,0,0.3,0,0.4C366.5,323,349.3,323,332.2,323z"/>
	<path class="st3" d="M582.5,322.6c0,0.1,0,0.3,0,0.4c-1.7,0-3.3,0-5,0c0-0.1,0-0.3,0-0.4C579.3,322.6,580.9,322.6,582.5,322.6z"/>
	<path class="st3" d="M636.4,323c0-0.1,0-0.2,0-0.4c1.5,0,3-0.1,4.5-0.1c0,0.2,0,0.3,0.1,0.5C639.4,323,637.9,323,636.4,323z"/>
	<path class="st3" d="M383.7,323c0-0.1,0-0.3,0-0.4c1.5,0,3,0,4.6,0c0,0.1,0,0.3,0,0.4C386.8,323,385.2,323,383.7,323z"/>
	<path class="st4" d="M640.9,322.6c-1.5,0-3,0.1-4.5,0.1c-0.1-0.1-0.1-0.1-0.2-0.1c-0.7-2.6-1.4-5.1-2-7.7
		c-2.9-12.1-5.4-24.3-7-36.7c-1.6-12-3.9-23.8-5.4-35.8c-0.9-7.4-2.1-14.7-2.6-22.1c-0.2-3.2-0.3-6.5-0.9-9.7
		c-1.3-7.8-2.7-15.5-2.8-23.5c-1.2,0.6-2.4,1.1-3.4,1.9c-1,0.8-2.1,1.7-3,2.6c-4.1,4.4-7.7,9.1-11.2,14c-1.1,1.5-0.8,1.4-2.3,0.6
		c-3.6-1.8-7.2-3.5-11.3-3.7c-0.2,0-0.5-0.1-0.7-0.2c-0.7-0.3-1.5-1.3-2.2-0.8c-0.6,0.5,0.1,1.5,0.2,2.3c0.6,5.7,1.2,11.4,1.7,17.1
		c0.5,5.5,0.8,11,1.2,16.5c0.4,5.9,0.5,11.8-0.1,17.7c-0.8,7.8-1.8,15.7-2.1,23.5c-0.2,6.2-0.4,12.3-0.1,18.5
		c0.5,8.5,0.4,17,0.3,25.5l0,0c-1.6,0-3.3,0-4.9,0c-0.3-1.7-0.4-3.4-0.4-5.1c-0.1-12.8,0-25.7,0.6-38.5c0.4-8.1,0.7-16.3,1.3-24.4
		c0.5-8,0-16-0.9-24c-1-8.6-1.7-17.2-1.7-25.9c0-0.8-0.1-1.6,0.1-2.3c0.5-1.8-0.2-1.6-1.3-2.1c-0.9-0.4-1.9-0.4-2.8-0.5
		c-0.3,0-0.6,0.1-0.8,0.3c-1.6,1.3-2.6,2.9-2.8,5c-1.2,9.6-3.1,19.2-4.1,28.9c-1,9.5-2.1,18.9-2.8,28.4c-1.2,15.1-1.2,30.2-1,45.4
		c0.1,4.9,0.4,9.8,0.6,14.7c-1.1,0.2-2.2,0.2-3.3,0.1c-0.1-1.4-0.3-2.8-0.3-4.2c-0.1-6.1-0.5-12.2-0.4-18.3
		c0.1-7.2,0.2-14.3,0.3-21.5c0-4,0.4-8,0.5-12c0.1-2.2,0.4-4.3,0.5-6.4c0.3-3.2,0.5-6.4,0.8-9.7c1.2-11,2.4-22.1,4.3-33
		c1-5.9,2.1-11.9,4.2-17.6c0.4-1,0.5-1.8-0.7-2.2c0.3-0.4,0.7-0.4,1.1-0.4c1.6,0.1,3.3,0.1,4.9,0.3c1.8,0.2,3.6,0.5,5.5,0.8
		c0.5,0.1,0.8,0.2,0.7,0.9c-0.1,0.9,1.3,1.4,2,0.8c0.4-0.3,0.7-0.7,1.3-0.8c3.4,1.1,6.7,2.6,10,4.2c1,0.5,2.1,0.8,3.2,1.2
		c0.9,0.3,1.6,0.2,1.9-0.9c0.2-0.8,0.7-1.5,1.1-2.2c3.8-6.1,8.4-11.6,13.8-16.5c3.8-3.4,7.6-6.7,11.4-10.1c1.9-1.7,3.8-3.4,5.6-5.2
		c1.5-1.4,1.4-1.4,0.2-2.9c-1-1.2-2-2.3-2.9-3.5c-2.6-3.2-4.8-6.7-7-10.2c0.1-0.4,0.3-0.7,0.4-1.1c0.5-1.4,0.3-1.8-1.2-1.9
		c-0.8,0-0.9-0.6-1.1-1.1c-2.7-5.3-5.4-10.5-7.5-16c-1.1-2.9-2.2-5.8-3.7-8.6c0.4-1.1,1.4-1.9,1.4-3.3c-0.3,0.1-0.5,0.1-0.6,0.2
		c-1.6,1-1.6,1-2.4-0.7c-0.2-0.5-0.4-0.9-0.6-1.4c-1.9-3.9-3.6-7.9-5.7-11.6c-1.7-3-3.8-5.8-5.9-8.7c-0.6,0.7-1.1,1.3-1.6,1.9
		c-0.7,0.8-1.5,1.4-2.5,1.6c-2.8,0.5-5.6,0.9-8.5,1.2c-1.1,0.1-2.1-0.2-3-0.9c-1.1-0.9-2.2-1.7-3.3-2.5c-0.7-0.8-1.6-1.4-2.5-2
		c-1.3-0.9-2.5-1.8-3.5-2.9c-2.9-3.1-5.9-6.2-8.3-9.7c-1.1-1.6-2.2-2.3-4.2-2c-1.8,0.3-3.7,0-5.4,0.7c-3.7,1.4-7.4,2.6-11,4.2
		c-4.6,2-9.2,3.6-14,4.9c-0.9,0.2-1.7,0.5-2.6,0.7c-0.9,0.2-1.6,0.8-1.9,1.7c-0.5,1.4-1,2.7-1.5,4.1c-1.3,4.4-2.6,8.8-4,13.1
		c-2,6.2-4.7,12.2-8.4,17.7c-1.9,2.8-3.7,5.6-6.2,8c-4.9,4.7-10.6,6.3-17.2,4.6c-0.4-0.1-1-0.2-1.2-0.4c-0.6-1-1.5-0.7-2.4-0.7
		c-6.3-3.2-11-8.1-15.1-13.7c-2-2.8-3.9-5.6-5.8-8.5c-3.2-4.8-6-9.9-8.8-14.9c0-0.5-0.3-0.9-0.6-1.4c-2.2-4.3-4.4-8.8-5.3-13.6
		c-0.3-1.8-1.1-2.5-2.7-2.7c-0.5-0.1-1-0.2-1.5-0.3c-1.6-0.3-3.1-0.8-4.4-1.7c-3.6-2.6-7.7-4-12-5.2c-0.8-0.2-1.6-0.4-2.4-0.3
		c-0.2-0.1-0.5-0.2-0.7-0.2c-3.3-0.2-6.5-0.2-9.8,0c-1,0.1-2,0.1-2.9,0.7c-0.7-0.3-1.9,0.4-2.2-1c-0.1-0.7,0.5-1,0.9-1.4
		c0.2-0.1,0.3-0.3,0.3-0.5l0,0c1.1,0.1,2.2-0.3,3.2-0.7c4.4-0.5,8.9-0.6,13.3,0c1,0.2,1.3-0.2,1.6-1.1c0.6-2.5,1.4-4.9,2.4-7.2
		c1.1-2.7,0.4-4.6-2.2-6c-1.4-0.8-2.8-1.5-4.2-2.3c-3.8-2.3-7.3-5-10.7-8c-2.1-1.9-4.1-2-5.7,0.6c-1.1,0.2-1.4,0.9-1.5,1.9
		c-0.1,1.5,0.6,2.7,0.9,4c0.3,1.1,0.8,2.3-0.5,3.3c-1.9-3.5-4.2-4.2-7.2-2.3c-0.8,0.8-0.4,1.8-0.4,2.7c0,1-0.4,1.6-1.4,1.5
		c-0.5-1.5-0.7-3.1-2-4.2c0.6-0.5,0.4-1-0.1-1.4c-1-0.7-2-0.6-3-0.1c-2.3,1.1-4.6,2.1-7.1,2.3l0,0c0-0.9-0.6-1.1-1.4-1.2
		c-5.6-0.6-11.2,4.2-13.4,8.6c-0.1,0.1,0.1,0.3,0.2,0.5c-0.2,0.2-0.4,0.4-0.5,0.6c-1.4,2.6-4,4.2-5.2,6.9c-0.2,0.5-0.9,0.9-1.3,1.4
		c-2.3,1.2-3.1,3.2-3.1,5.6c0,2.1-0.4,4.1-0.5,6.2c-0.2,3.4-0.9,6.7-1.1,10.1c0,0.7-0.4,1.2-1,1.4c0-3.1-0.2-6.2,0.1-9.3
		c0.1-0.2,0.1-0.4,0.2-0.6c0.1-7.3,2.4-13.9,6.8-19.7c0.5-0.7,1-1.4,1.7-1.8c0.2-0.1,0.4-0.2,0.4-0.3c2.5-5,7-7.7,11.5-10.4
		c0.8-0.5,1.6-0.8,2.4-1.2c0.8-0.4,1.7-0.5,2.6,0c1.7,0.8,3.5,0.7,5.2,0.4c1.3-0.2,2.6-0.5,3.9-0.8c1.3-0.2,2.5-0.3,3.8,0.1
		c1,0.4,2,0.2,2.9-0.3c1-0.6,2.1-1,3.2-1c1,0,1.6-0.7,1.9-1.6c0.1-0.4,0.2-0.7,0.3-1.1c0.9-4.5,5.7-6.4,9.4-3.4
		c2.4,1.9,4.9,3.7,7.4,5.4c2.9,2.1,5.9,4.2,9.1,5.9c2,1,2.8,2.6,2.8,4.8c0,3.1-0.8,6-1.9,8.9c-0.4,1.1-1.4,2.2-0.9,3.2
		c0.4,0.7,1.9,0.9,2.9,1.3c2,0.7,3.9,1.6,5.6,2.8c1.6,1.2,3.4,2,5.4,2.2c2,0.3,3.3,1.4,4.4,3c0.5,0.8,0.4,1.7,0.8,2.5
		c0.2,0.5,0.4,1,1.1,1c1,0,1.7,0.7,2.6,1.2c7.1,4.1,14.8,7.1,22.7,9.2c4.2,1.1,8.6,1.2,12.9,1.2c5.8,0,11.6-0.1,17.4-0.2
		c2.4,0,4.7-0.6,6.9-1.3c1.7-0.5,3.4-1.1,5.2-1.4c0.7-0.1,1-0.4,1.1-1.1c0.4-1.4,1-2.8,1.4-4.2c0.5-1.7,1.6-2.7,3.2-3.2
		c1.6-0.5,3.3-1,4.9-1.4c4.9-1.3,9.6-3.3,14.3-5.1c0.9-0.3,1-0.8,0.7-1.6c-0.6-1.9-1.3-3.7-2-5.6c-1.1-2.9-1.8-5.8-1.7-8.9
		c0.1-1.6,0.6-3,2.1-3.8c6-3.3,11.4-7.4,16.9-11.5c0.3-0.2,0.6-0.5,0.9-0.7c3.2-2.1,7.1-0.9,8.4,2.7c0.1,0.3,0.2,0.6,0.3,0.9
		c0.3,1.8,1,3.1,3.2,3c0.9,0,1.7,0.6,2.5,1c0.8,0.4,1.5,0.6,2.4,0.3c1.7-0.6,3.5-0.4,5.3,0c1.2,0.2,2.5,0.5,3.7,0.7
		c1.4,0.3,2.8,0.2,4.1-0.5c1.1-0.5,2.1-0.4,3.1,0.1c3.9,1.8,7.4,4.1,10.5,7.2c1.2,1.2,2.6,2.2,3.1,4c0.2,0.8,1.3,1.2,1.8,1.9
		c2,2.8,3.8,5.6,4.8,9c1,3.4,2.2,6.7,2.2,10.3c0,0.2,0,0.4,0,0.6c0,0.5-0.1,0.9,0.3,1.3c0.2,2.3,0.1,4.6,0,6.9
		c-0.9-0.1-1.1-0.6-1.1-1.4c0-0.6,0-1.3-0.1-1.9c-0.6-3.7-1.2-7.4-1.1-11.2c0-1.1-0.3-2.1-0.5-3.1c-0.4-1.4-1.2-2.8-2.8-3.3
		c-1-1-1.8-2.1-2.5-3.3c-0.3-0.5-0.7-1.1-1.1-1.5c-1.3-1.1-2.2-2.4-3-3.8c-1.1-3.3-3.3-5.6-6.2-7.4c-2.2-1.5-4.6-2.2-7.3-2.2
		c-0.9,0-1.8,0.2-1.7,1.5c-0.1,0.1-0.2,0.3-0.4,0.4c-0.2-0.4-0.4-0.7-0.8-0.7c-2-0.4-3.8-1.1-5.5-2c-0.9-0.5-1.9-0.3-2.8-0.2
		c-0.4,0-0.7,0.3-0.7,0.8c-0.1,0.5,0.3,0.6,0.7,0.7c-0.7,0.3-1.2,0.7-1.6,1.4c-0.5,1-0.7,2.1-1.1,3.1c-1.3-0.6-1.7-1.2-1.4-2.4
		c0.3-0.9,0.2-1.6-0.4-2.2c-3.4-1.5-5.4-0.8-7.1,2.4c-1-0.6-1.2-1.5-0.8-2.6c0.4-1.1,0.7-2.1,1.1-3.2c0.5-1.5,0.2-2.8-1.5-3.5
		c-0.2-0.3-0.5-0.6-0.7-0.9c-1.2-1.2-2.1-1.3-3.6-0.5c-0.4,0.2-0.8,0.5-1.1,0.8c-4.6,4.1-9.6,7.7-15.1,10.5
		c-2.5,1.3-3.2,3.3-2.1,5.9c1.3,3.2,2.2,6.5,3.1,9.8c0.1,0.5,0.1,1,0.8,1.4c4.2-2.2,8.8-2.8,13.5-2.7c1.2,0,1.9,0.6,2.3,1.6
		c0.2,0.6,0.6,1,0.9,1.4c1.7,2.1,3.6,4,5.2,6c2.9,3.6,6.5,6.4,10,9.3c0.7,0.6,1.4,1.3,2.2,1.8c0.8,0.5,1.5,0.6,2.3,0.5
		c2.1-0.3,4.2-0.7,6.4-0.7c0.8,0,1.7-0.1,2.1-0.8c0.7-1,1.7-1.7,2.3-2.8c1.9-0.8,2.2-0.8,3.6,0.8c3.1,3.3,5.7,6.9,7.8,11
		c2.4,4.8,4.7,9.7,6.9,14.6c0,0.5,0.1,1,0.6,1c0.7,0,0.5-0.6,0.5-1c-0.2-2.5,0.3-5.1,0.5-7.6c0.2-2.4,0.7-4.7,0.6-7.1
		c0-1.3,0-2.7,0-4c0-0.6,0.1-1,0.8-1.1c0.1,0.8,0.1,1.5,0,2.3c-0.6,1.3-0.6,2.6,0,3.8c0.2,4.1,0.3,8.2,0,12.4c0,0.2,0.1,0.4,0.1,0.5
		c0.3,2.3,0.1,4.7,0.1,7c0,1.1,0.2,2.1,0.6,3.1c2.9,7.2,6.4,14.1,10.2,20.9c2.1,3.8,4.7,7.2,7.5,10.6c0.6,0.7,1.2,1.5,1.7,2.3
		c1.1,1.7,1,3.1-0.3,4.7c-0.6,0.7-1.2,1.3-1.8,1.9c-3.1,2.9-6.3,5.8-9.4,8.7c-0.8,0.7-1.6,1.4-2.6,1.9c-0.6,0.3-0.8,0.7-0.3,1.4
		c1.2,1.6,1.6,3.6,2.1,5.5c2.5,9.5,3.9,19.1,4.3,29c0.3,8.2,1.5,16.3,2.4,24.5c1.5,12.9,3.2,25.7,4.8,38.6c0.9,7.4,2.4,14.7,4,21.9
		C637.9,310.4,639.1,316.5,640.9,322.6z M449,95.1c0.1,0.3,0.2,0.6,0.3,0.8c5.5,11.8,12.3,22.8,20.3,33.1c2.8,3.6,6.1,6.8,10.2,9.1
		c2.8,1.6,5.9,2.6,9.1,2.5c4.3-0.1,7.9-2,10.6-5.2c3.9-4.6,6.9-9.7,9.5-15.1c2.3-4.8,3.5-10,5.6-14.9c0.1-0.2,0.1-0.5,0.2-0.7
		c0.1-0.5,0.5-1,0.1-1.5c-0.5-0.6-1.1-0.1-1.6,0.1c-3.6,1.2-7.2,2.1-11,2.2c-7.2,0.1-14.4,0.3-21.6,0.1c-2.7-0.1-5.3-0.3-7.9-1
		c-8-2.1-15.6-4.9-22.8-9.1C449.9,95.3,449.6,94.9,449,95.1z"/>
	<path class="st4" d="M243.3,322.6c-0.6,0.1-1.3,0.1-1.9,0c0.5-9.9,0.9-19.8,1.4-29.7c0-1.1,0-2.2,0.1-3.2c0.2-1.9,0-3.7-1.3-5.3
		c-1.2-1.6-1.4-3.7-1.3-5.6c0.1-2.8,0.2-5.6,0.3-8.4c0-0.6,0.1-1.1,0-1.7c-0.1-1.6-0.6-2.5-2.2-2.6c-2.1-0.2-3.1-1.6-3.6-3.4
		c-0.6-1.9-0.6-3.8,0.1-5.6c0.7-1.8,2-2.9,4-3c2-0.1,2.4-0.5,2.8-2.4c0.5-2.1,0.6-4.3,0.8-6.4c0.2-2.4,0.5-4.8,1.5-7
		c0.6-1.4,1.4-2.8,3-3.3c0.8-0.2,0.6-0.8,0.5-1.4c-0.7-4-1.2-8-1.7-12.1c-0.6-4.9-0.9-9.9-0.9-14.8c0.1-7.8-1.3-15.4-3.3-22.9
		c-1.3-4.8-2.5-9.7-4.3-14.4c-1-2.7-0.8-5.3,0.6-7.9c1.3-2.4,2.7-4.6,4.4-6.7c0.7-0.9,1-1.8,0.8-3c-0.3-2.3-0.3-4.6,0-6.8
		c0.4-2.8,1.5-5.4,3.6-7.4c2.4-2.4,4.5-5,7.1-7.2c0.3-0.3,0.7-0.5,0.3-1.1c-1.5-1.9-1.2-4.1-0.8-6.2c0.8-3.7,1.7-7.3,2.7-10.9
		c1-4.2,1.3-8.4,1.6-12.7c0.2-2.3-0.2-4.6-0.3-6.8c-0.3-12,1.6-23.5,6.6-34.5c4.7-10.3,11.8-18.3,21.9-23.5c1.6-0.9,3.3-1.6,5.1-2.2
		c2.1-0.7,3.7,0.1,4.4,2.2c0.1,0.3,0.2,0.6,0.3,0.9c3.3,7.6,6.6,15.1,10.7,22.3c1.9,3.4,4.5,6.3,7.3,9c2.3,2.2,4.7,4.2,7.1,6.3
		c2.9,2.6,2.8,3.6-0.3,5.9c-0.8,0.6-1.5,1.1-2.3,1.6c-6.9,4.4-10.6,11.1-12.9,18.7c-0.7,2.4-1,5-1.8,7.4c-0.3,0.8-0.1,1.6,0,2.5
		c0.3,2.9,0.6,5.8,1,8.7c0.9,7.1-0.2,13.9-3.2,20.4c-0.6,1.4-0.4,2.4,0.3,3.5c3,4.5,5.3,9.4,7.3,14.4c1.4,3.6,2.3,7.4,2.7,11.3
		c0.3,3.4-0.3,6.6-1.6,9.7c-2.7,6.5-4.9,13.2-7,19.9c-2.6,8.4-4.2,17-5.8,25.6c-0.7,3.9-1.2,7.8-1.8,11.7c-0.3,1.6-0.2,3.2,0.3,4.7
		c-0.7,0.8-1,0-1.3-0.3c-1.5-1.7-1.5-3.7-1.4-5.7c1-10.3,2.8-20.5,5.4-30.6c2.3-8.9,5.3-17.5,8.9-25.9c1.3-3.1,1.8-6.4,1.3-9.7
		c-0.4-2.9-1.1-5.7-2.2-8.5c-1.9-5.1-4.4-10-7.2-14.7c-3.5-5.8-4.9-12.1-3.9-18.8c0.3-2.5,0.9-5,1.4-7.5c0.3-1.8,0.3-3.7-0.4-5.4
		c-1.3-3.3-4.4-4-7-1.7c-0.8,0.7-1.4,1.4-2,2.3c-1.6,2.3-3,4.7-4.1,7.3c-2.3,5.4-2.1,11.1-1.2,16.7c0.4,2.2,0.9,4.5,1.1,6.7
		c0.3,3.7,0.7,7.5,1,11.2c0.2,2.7,0.7,5.3,0.5,8c-0.1,2-0.9,3.7-2.4,5c-1,0.8-2.1,1.5-3.2,2c-1.3,0.6-1.3,0.6-0.9,1.9
		c0.7,2.4,0.4,4.7-1,6.7c-1.8,2.5-3.7,4.8-5.7,7.1c-1.2,1.4-2.7,2.6-4,3.8c-0.9,0.8-1.8,1.6-2.9,2.2c-1.5,0.9-3.1,1.1-4.7,0.3
		c-2.7-1.2-5.2-2.6-7.6-4.3c-4.7-3.2-5.5-9.3-3.1-14.1c0.8-1.5,1.4-1.8,3.1-1.6c0.4,0.1,0.8,0.3,1.4,0c-0.2-0.6-0.5-1.3,0.2-1.8
		c0.8-0.6,1.4-0.1,2.1,0.3c0.1,0.1,0.2,0.1,0.3,0.2c2.4,1.8,4.6,3.9,6.6,6c0.3,0.3,0.6,0.7,0.7,1.1c0.4,1.1-0.1,1.7-1.3,1.7
		c-0.7,0-1.2-0.4-1.7-0.8c-0.7-0.6-1.5-1.2-2.2-1.9c-0.5-0.4-0.9-0.9-1.6-1c-1.7-0.3-3.4-0.6-5.1-0.9c-0.5-0.1-0.8,0.1-1,0.6
		c-1,2.9,0.3,7,2.9,8.9c2.2,1.6,4.6,2.9,7.1,4.1c1,0.5,1.9,0.5,2.9-0.2c0.5-0.3,0.9-0.7,1.4-1c3.3-2.2,5.6-5.3,8.2-8.2
		c0.4-0.5,0.8-1,1.1-1.5c1.1-1.8,1.3-3.6,0.6-5.6c-1.1-3.1-2.8-5.5-5.4-7.5c-4.2-3.2-8.5-6.2-13-9c-1.2-0.7-2.5-1.3-3.9-1.1
		c-0.7,0.1-1.5,0.1-1.9-0.6c-0.6-1.1-1.3-0.8-2-0.4c-0.7,0.4-1.4,0.9-1.9,1.5c-2.4,2.8-4.5,5.7-6.2,8.9c-1,1.8-1.4,3.7-0.1,5.6
		c0.2,0.3,0.3,0.7,0.4,1.1c1,3.7,2.2,7.3,2.9,11.1c0.4,2.3,1,4.4,1.8,6.6c1.7,5.2,2.6,10.6,2.7,16.1c0.1,6.2,0.4,12.5,1.2,18.6
		c0.2,2,0.1,4.1,1.1,6c0,0.9-0.1,1.8,0.1,2.7c0.5,2.6,0.5,5.1-0.1,7.7c-0.1,0.3,0.1,0.9-0.4,0.9c-0.6,0.1-0.6-0.5-0.8-0.9
		c-0.1-0.2-0.1-0.4-0.2-0.5c-0.6-1.6-1.4-1.8-2.6-0.6c-0.6,0.5-0.9,1.2-1,2c-0.2,1.4-0.5,2.7-0.8,4.1c-0.7,3.3-1.6,6.5-1.5,9.9
		c0,0.8-0.2,1.5-0.7,2.2c-1-0.3-2-0.3-3-0.3c-1.9,0.2-3.5,1.6-3.7,3.4c-0.2,1.5,0.5,2.8,1.4,4c0.9,1.3,2.2,1.8,3.7,2.2
		c2.2,0.6,2.2,1.5,1.9,3.4c-0.1,0.8-0.5,1.6-0.8,2.3c-0.5,1.6-0.3,1.9,1.5,2.1c0.1,0.4,0.2,0.8,0.3,1.2c-0.1,1.6-0.2,3.3-0.3,4.9
		c-0.1,1.9,0.4,3.5,2.4,4.2c0.1,0.3,0.1,0.7,0.2,1c-1.6,0.4-1.7,0.4-1.6,1.9c0.1,3.9-0.1,7.8,0.3,11.7c0.5,4.7-0.4,9.3-0.3,14
		c0,0.1,0,0.3,0,0.4C243.5,315.8,243.2,319.2,243.3,322.6z M292.4,34.2c-1.3,0.7-2.5,1.3-3.7,1.9c-11,5.3-18.5,13.9-23,25.1
		c-2.6,6.4-4.1,13.1-4.9,19.9c-0.5,5.1-0.6,10.1-0.2,15.2c0.3,4.4,0.8,8.9,1.2,13.3c0.6,6.4,0.5,12.8-1.4,19.1
		c-1.3,4.2-3,8.2-4.6,12.3c-1,2.4-1.9,4.9-2.8,7.3c-0.4,0.9-0.1,1.4,0.8,1.7c0.7,0.3,1.5,0.4,2.2,0.4c3.2-0.1,6.5-0.1,9.7,0.3
		c3.8,0.4,7.4,1,10.6,3.3c1.4,1,2.8,1.8,4,3c0.4-0.3,0.3-0.6,0.3-0.8c0.2-2-0.3-3.9-0.4-5.9c-0.3-4.4-0.6-8.7-1.3-13.1
		c-0.6-3.8-1.1-7.7-0.6-11.6c0.2-1.4,0.6-2.9,0.8-4.3c0.6-3.8,1.4-7.5,2.7-11.1c0.2-0.5,0.2-1.1,0.9-1.5c0.4,1.4-0.1,2.7,0.2,4.1
		c0.7-0.4,0.9-1,1.3-1.5c1-1.5,2.2-2.8,3.6-3.9c3.4-2.7,7.7-2,10.1,1.6c1.6,2.4,2,5.1,1.6,7.9c-0.3,2.1-0.7,4.1-1.2,6.2
		c-0.9,4.4-0.6,8.7,0.7,13c1.8-4.7,2.7-11.2,2.4-15.6c-0.3-5.4-0.5-10.7-0.3-16.2c0.4-9.5,6.5-21.9,15.4-26.6
		c0.8-0.4,1.7-0.9,2.3-1.7c-1.5-1.2-2.9-2.4-4.3-3.6c-5.2-4.3-9.7-9.2-12.7-15.3C298.3,49.7,294.6,42.4,292.4,34.2z M261,153.7
		c0.2,0.3,0.3,0.5,0.4,0.5c0.5,0.4,1.1,0.7,1.6,1.1c4.7,3.4,9.9,6.3,13.2,11.4c0.2,0.4,0.6,0.5,1,0.2c1.1-0.7,2.3-1.3,3.2-2.4
		c0.9-1.1,1-1.7,0.1-2.9c-0.4-0.5-0.7-1.1-1.2-1.5c-2.3-2.4-4.7-4.7-8-5.5C267.9,153.8,264.6,153.6,261,153.7z M256.8,131.5
		c-0.4,0.3-0.6,0.4-0.8,0.6c-2.6,2.8-5.4,5.6-7.8,8.6c-2.4,2.8-2.4,6.3-2.4,9.9c1.1-0.5,2-0.9,2.9-1.2c0.5-0.2,0.7-0.5,0.9-0.9
		c2.3-4.5,4.6-9.1,6.8-13.6C256.7,133.9,257.1,132.9,256.8,131.5z M258.7,115.2c-0.9,3.4-2.1,6.6-2.7,10.1c-0.2,1.2-0.1,2.2,0.8,3.4
		C258.5,124.2,259.1,119.8,258.7,115.2z"/>
	<path class="st4" d="M752.8,322.6c-0.5,0.1-1,0.1-1.6,0c0.2-1.7-0.4-3.2-0.4-4.9c0.3-15.1-0.4-30.2,0.4-45.2c0.2-3-0.4-5.9-1.2-8.8
		c-0.2-0.8-0.3-1.4,0.2-2.1c0.8-1.1,0.8-2.4,0.2-3.6c-0.2-0.5-0.4-0.9-0.7-1.4c1.3-1.2,2.4-2.4,2.4-4.3c-0.1-2.3-0.1-4.5-0.2-6.8
		c0.4-1.5,0-3-0.3-4.5c0.9-0.1,1.5-0.6,1.5-1.5c0.1-2.5,0.3-5-0.1-7.4c-0.6-3.8-1.3-7.6-1-11.5c0.1-1.6-0.4-2.8-1.2-4.1
		c-0.7-1.2-1.3-1.3-2.5-0.8c-0.5,0.2-0.8,1-1.5,0.4c-0.4-0.4-0.8-0.8-1-1.3c-0.5-1.5-1.2-2.9-1.1-4.6c0.1-1.2,0-2.4,0-3.6
		c0-0.8-0.4-1.1-1.2-1.1c-0.4-1.4-0.6-2.9-0.8-4.3c-0.5-3.3-1-6.5-2-9.7c-0.4-1.2-0.4-1.2-1.7-1c-2.5,0.5-5,1-7.5,0.6
		c-8.5-1.5-16.3-4.6-23.6-9.2c-1.9-1.2-3.5-2.7-5-4.4c-1.5-1.8-2.7-4.8-0.9-7.3c1.1-1.6,1.6-3.6,1.9-5.5c0.1-0.9,0.2-1.8,0.4-2.6
		c0.2-1.1,0.6-1.2,1.6-0.8c0.6,0.3,1.2,0.7,1.9,0.9c4.4,1.3,8.7,2.9,12.9,4.6c2,0.8,4.1,0.8,6.2,0.1c0.6-0.2,1-0.5,1.1-1.2
		c0-0.7-0.3-1.1-0.8-1.4c-0.3-0.1-0.6-0.3-0.9-0.4c-2.1-1-4.2-2.1-6.2-3.3c-2.5-1.5-5-3-7.5-4.5c-2.1-1.2-4.3-2.2-6.7-2.8
		c-4.2-1-6-0.2-7.7,3.8c-2.9,6.7-6.2,13.2-10.1,19.4c-1.1,1.7-1.8,3.4-0.6,5.3c0.3,0.4,0.2,0.8-0.2,1.2c-0.4,0.4-0.9,0.5-1.4,0.2
		c-0.4-0.2-0.7-0.5-0.9-0.9c-0.9-1.4-0.9-2.9-0.5-4.4c0.3-1,0.8-1.9,1.4-2.7c3.4-5.4,6.4-11,8.9-16.8c1.3-3,2.6-6.1,5.6-8
		c-4.9-1.4-8.3,0-10.5,4.2c-3,5.8-5.7,11.6-8,17.7c-1.6,4.1-3.2,8.2-4,12.5c-0.1,0.8-0.5,1.1-1.3,1c-0.7-0.1-1.2-0.5-1.1-1.3
		c0-0.5,0.1-1,0.2-1.5c0.8-4.1,2.3-7.9,4-11.7c0.8-1.8,0.8-3.5,0.6-5.4c-0.5-3.5-0.8-6.9-1.1-10.4c-0.1-1.2,0.2-2.1,1.2-2.8
		c2.1-1.5,4.1-3.2,6.2-4.8c4.9-3.8,10.4-5.7,16.7-5.1c0.8,0.1,1.7,0.1,2.5,0c1.6-0.2,2.6-1.5,2.5-3.1c-0.1-1.4-0.8-2.1-2.5-2.3
		c-3-0.3-6-0.3-9-0.4c-2.6,0-5.2,0.3-7.7,1.2c-1.5,0.5-3,1.1-4.5,1.6c-1.3,0.2-2.6-0.5-3.9-0.4c-0.3-0.9-1.2-1.5-0.9-2.6
		c0.5-2.5,1.6-4.7,3.6-6.3c0.9-0.7,1.9-1.2,3.2-0.9c0,1.2-0.7,1.9-1.3,2.7c-0.9,1.2-1.6,2.6-2,4.1c-0.2,0.8,0.3,1.3,1.2,1.1
		c0.5-0.1,0.7-0.4,1-0.9c0.3-0.6,0.7-1.2,1.2-1.7c0.5-0.5,1.1-1,1.8-0.8c0.7,0.2,0.1,1.1,0.8,1.4c2.6-0.8,5.3-1.1,8-1.3
		c-0.6-0.3-1.2-0.4-1.7-0.6c-3.1-1.5-6.3-2.8-6.9-6.8c-0.4-2.3,0.5-3.9,2.8-4.2c1.8-0.3,3.7-0.1,5.5,0.4c3.4,1,5.4,3.8,5.3,7.2
		c0,1.6-0.6,2.8-2.2,3.5c-0.3,0.1-0.8,0.1-0.7,0.8c1.3,0,2.6,0,3.8,0c0.6,0,1-0.1,0.9-0.8c0-1.1,0.5-2,0.9-2.9
		c1.9-3.8,4.2-7.4,7.1-10.6c1.5-1.7,3-3.3,4.4-5c2.4-2.9,5.1-5.4,9.2-6.7c-3.6-1.4-7.1-1.9-10.5-2.8c-1.6-0.5-3.3-1.1-4.9-1.4
		c-1-0.3-2.1-0.6-3.1-0.9c-0.6-0.2-1.1-0.3-1.7-0.1c-3.1,1.2-6.3,2.3-8.8,4.7c-2.1,2.1-4.1,4.3-6,6.6c-0.7,0.6-1.3,1.3-2,1.9
		c0.9-0.3,1.7-0.8,2.3-1.5c0.5-0.1,0.9-0.7,1.4-0.7c0.2,0.5-0.2,0.8-0.4,1c-1.5,1.9-3,3.7-4.7,5.4c-4,4.1-7.2,8.8-8.9,14.4
		c-0.6,2-1.5,3.9-1.8,6c-0.4,0.8-1,1.5-2,0.9c-0.6-1.3-0.4-2.6-0.1-3.9c0.6-2.7,1.5-5.2,2.5-7.8c2.2-5.6,4.9-10.9,9-15.4
		c2-2.2,3.9-4.4,5.8-6.5c2.4-2.7,5-5.1,8.3-6.5c0.2-0.1,0.3-0.2,0.5-0.3c-4.7-2.3-10.7-2.2-15.4-0.1c-1,0.4-1.9,0.8-2.9,1.3
		c-0.3,0.2-0.8,0.4-1,0.1c-0.5-0.8-1.1-0.3-1.6-0.2c-3.8,1.3-7,3.6-10.1,6.1c-7.3,5.8-11.8,13.5-14.1,22.5c-0.6,2.3-0.6,4.8-1.2,7.1
		c-0.7,0.6-1.2,0.4-1.6-0.3c-0.7-2.1-0.3-4.3,0-6.4c0.7-5.5,3.1-10.3,6-14.9c5-7.9,11.8-13.5,20.5-17c1.8-0.7,3.7-0.9,5.3-2
		c0.1-0.1,0.2-0.1,0.4-0.1c5.7-0.8,11.3-1.9,16.9,0.6c1.8,0.8,3.7,1.7,5.8,1.6c0.2,0,0.5,0.1,0.7,0.2c2.7,2,6,2.7,9.1,3.5
		c10.1,2.8,19.9,6.5,29.5,10.6c4,1.7,7.7,4.1,11.6,6.2c0.2,0.1,0.4,0.3,0.7,0.4c3,0.7,4.1,3.2,5.2,5.6c2.4,4.9,4.1,10.1,4.3,15.7
		c0.1,2.7,0.2,5.3,0.3,8c0,1.3-0.1,2.5-0.5,3.8c-1.2,4.7-2.8,9.3-4.7,13.7c-1.7,3.9-4.1,7.6-7.2,10.7c-2.2,2.2-4.4,4.4-6.6,6.6
		c-1.4,1.3-2.9,2.5-4.6,3.3c-0.7,0.3-0.8,0.8-0.7,1.5c0.4,3,0.4,6,0.7,8.9c0.4,3.9,0.5,7.9,0.9,11.8c0.2,1.6,1,2.5,2.6,2.8
		c2.5,0.5,3.7,2.3,4.1,4.7c0.6,3.6,0.9,7.2,1,10.8c0.3,7.7,0.5,15.4,0.8,23c0.1,2.4-0.4,4.7-2.3,6.4c-0.8,0.7-0.7,1.6-0.7,2.5
		c0,4.3,0,8.6-0.1,13c-0.1,6.9,0,13.7,0.2,20.6c-0.2,0.3-0.2,0.6,0,0.9c0.6,8.5,0.9,17.1,0.8,25.7
		C752.9,321.4,752.8,322,752.8,322.6z M724.8,170.5c-0.1-0.7-0.7-0.5-1.1-0.5c-2.9-0.3-5.5-1.4-8.1-2.6c-1.8-0.8-3.6-1.6-5.5-2.1
		c-1-0.3-2-0.4-2.8,0.4c-0.6,0.4-1.1,0.9-1.4,1.6c-0.7,1.6-1.2,3.4-1.5,5.1c-0.2,1.1,0.4,2,1.5,2.4c1,0.4,1.8,1,2.7,1.4
		c1.5,0.8,2.9,1.9,4.5,2.5c1.7,0.6,3.2,1.4,4.8,2.3c2.3,1.4,4.8,1.8,7.5,1.3c0.6-0.1,0.8-0.3,0.6-0.9
		C724.8,177.8,724.8,174.2,724.8,170.5z M706.4,134.9c0.2,0.1,0.4,0.2,0.7,0.3c3.9,1.4,4.1,3.4,3.7,6.3c-0.2,1.6-1.1,2.8-2.6,3.5
		c-1.5,0.6-2.9,0.7-4.5,0.5c-3-0.4-6-0.8-9,0.5c-1.3,0.6-2.6,1.2-4,1.8c-2.3,1.1-4.3,2.6-6.1,4.4c-1.4,1.4-2.1,3.3-2.4,5.3
		c-0.3,1.7-0.1,3.4,0.8,4.9c0.5,0,0.6-0.4,0.7-0.6c1.3-2.4,2.6-4.8,4.1-7.1c1.1-1.8,2.3-3.5,3.6-5.1c0.9-1.1,2-1.9,3.6-2
		c2.3,0,4.7,0,7,0c2.9,0,5.7,0.2,8.6,0.5c1.7,0.2,3.4,0.2,5.1,0.5c4,0.8,8.1,1.6,12.2,2.3c1.5,0.3,1.5,0.3,2.1-1.1
		c0.9-2.2,2.1-4.2,3.5-6.1c3.1-4.6,6.9-8.6,10.8-12.6c0.1-0.1,0.2-0.3,0.2-0.4c-0.5-0.4-1,0.6-1.6-0.2c3.4-3.6,7.1-6.7,11.8-8.6
		c-0.1-0.4-0.4-0.5-0.6-0.7c-7.3-4.7-15.2-7.9-23.3-10.9c-0.9-0.3-1.6-0.2-2.4,0.1c-3.1,1.6-6,3.3-8.3,5.9
		C714.8,122,709.9,127.9,706.4,134.9z M731.8,151.7c0.5,0.5,0.7,0.6,0.9,0.8c1.4,1.6,1.4,2.9-0.1,4.4c-0.5,0.5-1,0.9-1.7,1.2
		c-1.6,0.7-1.4,2.6-2.3,3.8c-0.1,0.1,0.1,0.5,0.2,0.7c0.2,0.3,0.5,0.6,0.7,0.9c1.7,2,1.3,3.8-0.4,4.9c-0.6,0.4-1.1,0.8-1.7,1.2
		c-0.3,0.2-0.7,0.4-0.6,0.8c0.3,1.7,0.4,3.4,0.9,5c0.6,2,1,3.9,1.3,5.9c0.3,1.8,0.9,3.6,1.6,5.3c0.3,0.8,0.9,1.2,1.8,1.4
		c1.8,0.4,3.3-0.2,5-0.6c1.9-0.5,3.4-1.9,5.2-2.2c2-0.4,3.5-1.4,4.8-2.7c2.4-2.3,4.7-4.6,7-7c2.8-3,5-6.4,6.6-10.2
		c1.3-3.1,2.3-6.3,3.4-9.5c0.6-1.7,1.1-3.4,1.2-5.2c0.3-6.9-0.4-13.7-3-20.2c-0.3-0.8-0.5-1.8-1.1-2.4c-0.6-0.5-1.6,0-2.4,0
		c-4.4,0.4-8.5,1.7-11.9,4.6c-5.7,4.8-10.5,10.4-13.6,17.2C733.4,150.6,733,151.4,731.8,151.7z M705.5,150.4c3.8,1,7.3,2.7,10.6,4.8
		c1,0.6,1.9,1.2,2.9,1.9c1.9,1.3,4,1.6,6.2,1.2c1.6-0.3,3.1-1,4.6-1.8c0.7-0.3,1.2-0.8,1-1.6c-0.2-0.8-0.9-1.1-1.6-1.1
		c-3.6-0.4-7.1-1.4-10.6-2.2C714.3,150.5,709.9,149.9,705.5,150.4z M693.4,125c-0.4,0-0.9,0-1.3,0.1c-0.7,0.1-1.1,0.5-1.4,1.1
		c-0.3,0.7,0.3,1,0.7,1.4c1.4,1,2.8,2,4.4,2.7c0.8,0.3,1.5,0.6,2.4,0.5c0.6,0,0.9-0.3,0.9-0.9c0.1-1.7-0.5-3.1-2-4
		C695.9,125.2,694.7,125,693.4,125z M728.2,186.8c-0.4-0.8-0.7-1.5-1-2.2c-0.2-0.4-0.4-0.7-0.8-0.7c-1.3,0.2-2.6,0.1-3.7,1.2
		C724.6,185.8,726.2,186.5,728.2,186.8z M751.4,126.1c1.3-0.5,2.5-0.4,3.6-0.8c1-0.4,2-0.8,3.3-1.3
		C756.1,123.8,753.5,124.6,751.4,126.1z M741.7,190.4c-0.1-0.2-0.1-0.5-0.5-0.5c-0.2,0-0.3,0.2-0.3,0.4c0,0.3,0.2,0.5,0.5,0.5
		C741.6,190.9,741.7,190.7,741.7,190.4z"/>
	<path class="st4" d="M798.4,194.4c-0.8-0.9-1.1-2-1.3-3.1c-0.5-3-1-6-1.5-9c-0.4-2.9-1.2-5.6-2.7-8.1c-1.2-2-2.2-4.2-2.4-6.6
		c-0.3-2.9,0.2-5.6,2.1-7.9c1.5-1.9,2.7-4,3.7-6.2c1.3-2.6,2.6-5.1,4-7.6c0.7-1.1,1.2-2.4,1.7-3.6c1.1-2.9,2.3-5.8,3.6-8.6
		c1-2.2,1-2.1-0.7-3.9c-5.8-5.7-11.2-11.8-16.1-18.3c-6-8-11-16.5-14.9-25.7c-4.1-9.8-4.8-19.8-2.1-30.1c0.6-2.2,1.5-4.3,2.7-6.3
		c3.2-5.2,10.1-9.2,17.9-6.6c2.7,0.9,5.3,2.2,7.7,3.8c6.7,4.6,12.2,10.4,16.1,17.5c0.3,0.5,0.6,1,0.9,1.5c0.1,0.1,0.2,0.1,0.3,0.2
		c0.3,0,0.3-0.2,0.3-0.4c2.1-5.3,5.6-9.5,9.8-13.2c7.2-6.2,15.4-10,24.8-11.2c3.9-0.5,7.7-0.4,11.6,0.6c9.6,2.4,16.6,10.2,18,20
		c0.7,4.8,0.1,9.4-0.9,14c-1.6,7.3-3.9,14.5-6.7,21.4c-1.6,3.9-3.5,7.6-5.9,11.1c-7,10.1-15.3,19-25.6,25.9c-1,0.6-1.9,1.2-2.9,1.8
		c-1,0.6-2,1.2-3.1,1.8c0.6,1.5,1.6,2.8,3,3.5c2.2,1.1,2.9,2.9,3,5.1c0.1,2.6,0.2,5.2-0.1,7.8c-0.2,2,0.4,3.4,2,4.6
		c2.3,1.7,3.2,4.1,2.5,6.9c-0.8,3.2-0.8,6.2,0.4,9.4c0.6,1.7,0.5,3.5,0,5.3c-0.7,2.6-1.4,5.3-2.2,7.9c-0.3,1.2-0.5,2.4-0.3,3.6
		c0.5,4.4-0.4,8.6-2.1,12.6c-1.1,2.6-2.3,5.2-3.4,7.9c-0.9,2-1.6,4-1.7,6.2c-0.1,2.2,0.2,2.8,2.4,3.1c3.7,0.5,5.8,4.8,4.3,8.2
		c-0.8,1.8-2.3,2.9-4.2,3.2c-0.6,0.1-1.3,0.1-1.9,0.3c-2.8,0.9-3.9,3.1-2.9,5.8c0.5,1.5,1.2,3,1.3,4.6c-1.3-0.2-1.6-1.3-2-2.3
		c-1-2.8-0.9-5.5-0.1-8.4c0.7-2.1,1.9-3,3.9-1.7c0.2,0.1,0.3,0.2,0.5,0.3c0.6,0.4,1.1,0.3,1.7-0.2c1.4-1.2,2.2-2.6,2-4.5
		c-0.2-1.3-0.5-2.5-1.6-3.3c-1-0.7-2-0.5-3,0c-0.7,0.4-1.2,0.2-1.6-0.7c-0.4-1-0.8-2.2-1.7-2.9c0-0.4,0-0.8,0.1-1.1
		c0.2-2.7,1.3-5.1,2.3-7.6c1.6-3.9,3.2-7.8,4.5-11.9c0.7-2.4,0.4-2.8-2.1-2.7c-0.7,0-1.5,0.4-2.2-0.2c0-0.3,0-0.5,0.1-0.8
		c1.8-0.9,3.3-2,4.1-4c0.4-1,0.7-2,0.9-3.1c0.6-2.9,0.9-6,2.4-8.7c1.4-0.9,1.5-2.3,1.4-3.8c-0.1-1.7-0.4-2.2-2-2.7
		c-1-0.3-1.5-0.9-1.4-1.9c1.2-2.4,1.4-5,1.4-7.6c0-1.1-0.1-2.3-1.1-3.1c0-0.8-0.6-1-1.1-1.4c-1.5-1-1.6-1.7-1.1-3.3
		c0.7-2,1.1-4,0.5-6.1c-0.1-0.4-0.1-0.9,0-1.3c0.4-2.5-0.5-4.9-2.8-6.1c-1.4-0.8-2.4-1.9-3.1-3.2c-0.5-0.9-1-1.2-2-1
		c-2.2-3.3-4.5-6.6-7.3-9.5c-1.3-1.4-2.8-2.4-4.5-3.2c-2.4-1.1-3.5-0.9-5.3,1c-1.4,1.5-2.8,3.1-4,4.8c-2.3,3.6-4.5,7.2-7,10.7
		c-1.3,1.9-1.9,4.3-3.4,6.1c-0.6-0.1-1,0.3-1.5,0.6c-1.2,1-1.9,2.4-2.5,3.8c-1.4,3.6-3.4,6.8-5.9,9.6c-0.3,0.4-0.6,0.8-0.7,1.3
		c-0.5,2,0.1,3.8,1,5.6c0.3,0.6,0.8,1.1,1.6,1.2c0,0.1,0.1,0.2,0.1,0.4c-0.8,1.1-0.5,2.2,0.1,3.2c2.1,3.9,3.1,8.1,3.5,12.5
		c0.1,1.6,0.3,3.1,0.6,4.7C798.6,192.2,799.1,193.4,798.4,194.4z M807.9,129.2c0.7-0.9,1.4-1.8,2.1-2.6c1.7-2,3.7-3.9,6.2-5
		c2.5-1.1,5.1-0.7,7.1,0.8c1.8,1.3,4.1,2.4,5.1,4.7c2.5,1.8,4.2,4.2,5.8,6.7c0.5,0.8,1,0.8,1.7,0.4c1.5-0.9,3-1.7,4.4-2.6
		c6.6-4.2,12.3-9.5,17.5-15.3c5.1-5.7,9.6-11.9,12.6-18.9c3.1-7.2,5.4-14.6,7.1-22.3c0.8-3.9,1.4-7.8,1-11.9
		c-0.9-8.6-6.9-15.8-15.4-17.9c-4.1-1-8.2-0.9-12.3-0.2c-7.8,1.3-14.7,4.6-20.6,9.7c-5.2,4.5-9.6,9.5-10.1,16.8
		c-0.1,0.9-0.5,1.6-1.4,1.8c-0.9,0.2-1.6-0.2-2.1-0.9c-0.7-1.1-1.3-2.2-1.9-3.3c-3.1-6-6.9-11.4-12.1-15.8
		c-3.3-2.8-6.7-5.3-10.8-6.7c-5.6-2-11.3,0.1-14.3,5.2c-0.9,1.6-1.7,3.3-2.1,5.1c-2.1,8.1-1.8,16.2,0.6,24.2c1.9,6,4.9,11.6,8,17
		c4.4,7.6,9.7,14.6,15.5,21.2C802.2,122.8,805,126,807.9,129.2z"/>
	<path class="st4" d="M388.3,322.6c-1.5,0-3,0-4.6,0c0,0-0.1,0-0.1,0c0.1-0.8,0.1-1.5,0.2-2.3c1.3-7.6,1.8-15.4,2.5-23.1
		c0.5-5.6,0.7-11.3,1.3-16.9c1.3-12.5,2.4-25,3.3-37.6c0.6-7.2,1.1-14.4,1.1-21.7c0-1.1,0-2.3,0.5-3.4c0.4-0.7,0.2-1.3-0.1-1.9
		c-0.8-1.5-1.8-2.8-2.9-4c-2.3-2.7-5-4.9-7.3-7.5c-3.9-4.5-8.5-8.4-12.7-12.7c-1-1-2.1-1.9-3.3-2.6c-2.3-1.4-4-3.4-5.6-5.6
		c-1.9-2.6-3.2-3-6.2-1.9c-1.1-0.3-2.1-0.8-2.3-2.2c0-0.4-0.5-0.8-1-0.8c-0.5,0-0.8,0.4-1,0.8c-0.3,0.5,0,1.2-0.3,1.6
		c-0.1-0.1-0.3-0.1-0.3-0.2c0.1-1.5-1.1-1.9-2.2-2.3c-1.4-0.5-2.7-1.1-3.9-1.9c-2.8-1.7-3.4-3.3-2.7-6.4c0.5-2.3,1.3-4.5,2.3-6.6
		c1.5-3.3,3.4-6.4,5.4-9.4c1.5-2.2,3.1-4.5,4.7-6.7c0.2-0.1,0.3-0.3,0.3-0.6c0-0.2,0-0.4,0-0.6c0.6-0.5,0.4-1.2,0.2-1.8
		c0-0.1,0-0.1,0.1-0.2c0-0.4,0.1-0.7,0.1-1.1c-0.1-0.1,0-0.2,0-0.3c0.7,0.4,0,1.4,0.8,1.8c0.7-0.9,1.6-1.5,1.8-2.7
		c0.5-0.3,0.7-0.9,1-1.4c4.6-7.3,8.2-15.2,11.3-23.3c0.1-0.4,0.3-0.7,0.3-1.1c0.1-4,1.2-7.9,2.1-11.8c0.8-3.6,2.6-6.7,5.2-9.4
		c1.9-0.5,2.1-0.4,2.2,1.5c0,0.1,0,0.3,0,0.4c-0.3,0.5-0.7,0.9-0.8,1.6l0,0c-0.2,0.1-0.3,0.2-0.4,0.4l0,0c-0.3,0.2-0.4,0.4-0.4,0.8
		l0,0c-0.2,0-0.3,0.2-0.4,0.4l0,0c-0.2,0.1-0.3,0.2-0.3,0.4c0,0.1-0.1,0.2-0.1,0.4l0,0c-0.9,0.7-1.2,1.7-1.6,2.7
		c-0.5,1.5-1,3.1-1.5,4.7c-0.9,2.9-1.5,5.9-2.5,8.7c-1.2,3.5-2.4,6.9-3.6,10.4c-0.9,1.7-2,3.4-3.1,5c-3,4.8-6.3,9.4-8.7,14.5
		c-0.2,0.5-0.6,1-1,1.4c-1.1,1.1-1.9,2.4-2.3,3.9c-0.6,1.9-1.6,3.6-2.7,5.2c-0.6,0.9-1.1,1.7-1.6,2.6c-1.9,3.3-3.4,6.8-4.2,10.6
		c-0.3,1.7-0.2,2.2,1.2,3c1.4,0.8,2.9,1.6,4.5,1.9c1.2,0.3,2.2,0.8,3.2,1.5c1.5,1.1,3.1,2,5.1,2c0.3,0,0.7,0,0.9,0.2
		c0.8,1.2,2.3,1.6,3.3,2.5c3.4,3,6.9,5.9,10.2,8.9c1.1,1,1.8,1.9,1.1,3.4c-0.1,0.1,0,0.4,0.3,0.4c0.7-0.1,0.9-1.1,1.7-1.1
		c2.4,2.2,4.9,4.4,7,6.9c3.1,3.8,6.4,7.6,9.6,11.3c0.7,0.8,1,2.1,2,2.4c1,0.3,1.9-0.8,3-0.9c1.2-0.2,2.3-0.7,3.2-1.5
		c2.1-1.8,4.5-2.4,7.1-2.8c1.5-0.2,3,0,4.4-1c0.5-0.4,1.1-0.1,1.5,0.4c0.4,0.4,0.2,0.8-0.2,1.2c-0.7,0.7-0.6,1.6-0.5,2.5
		c-0.3,1.4-1.5,2.5-1.4,3.9c0.5,0.3,0.6-0.5,1.2,0c0,3.3,0,6.6,0,10c0.1,12-0.5,24-2.8,35.8c-1,5.3-1.4,10.7-4,15.6
		c-0.1,0.1-0.1,0.2-0.1,0.4c-0.1,0.5,0.3,0.6,0.7,0.7c-0.1,0.5-0.1,1-0.2,1.5c-2.1,10.2-2.9,20.5-2.6,31c0.1,3.9,0.7,7.8,0.9,11.7
		c-1.1,0.1-2.3,0.2-3.4-0.1c-0.3-3-0.6-6.1-0.8-9.1c-0.8-12.9,0.5-25.6,3.2-38.2c1.8-8.3,3.6-16.6,4.6-25.1
		c0.8-6.8,1.1-13.5,1.3-20.3c0.1-5,0-9.9,0.4-14.9c0.1-1.1,0.2-2.1,0.3-3.3c-3.1,0.6-5.9,1.6-8.5,3.1c-1.3,0.8-2.6,1.5-4.2,1.6
		c-1.6,0.1-1.9,0.8-1.8,2.4c0.1,1.1,0.1,2.2,0,3.2c-0.3,5-0.2,9.9-0.3,14.9c0,5.6-0.6,11.2-1.3,16.7c-0.6,4.5-1.1,9.1-1,13.7
		c0.2,7.2-0.3,14.3-1,21.5c-0.5,5.5-0.8,11-1.2,16.5c-0.3,3.9-0.8,7.8-1.6,11.7C388.7,318.8,388.5,320.7,388.3,322.6z"/>
	<path class="st5" d="M798.4,194.4c0.8-1,0.3-2.2,0.1-3.2c-0.2-1.6-0.4-3.1-0.6-4.7c-0.3-4.4-1.4-8.6-3.5-12.5
		c-0.5-1-0.8-2.1-0.1-3.2c2.5,3.8,4.1,7.9,4.6,12.4c0.5,4.4,1.1,8.7,2.5,12.9c1.5,4.5,2.9,9.1,4.2,13.6c1.4,5,1.5,10,1.1,15.1
		c-0.2,2.5-0.4,4.9-0.6,7.4c-0.1,2.4,0.4,3.1,2.7,4c1.1,0.4,2.2,0.7,3.3,1c1.9,0.6,3.4,0.1,4.7-1.6c1.4-1.9,2.8-2.1,4.7-0.6
		c1.5,1.2,3.1,1.4,4.8,0.7c1.3-0.5,2.6-1.1,3.8-1.7c1.8-0.9,2.9-2.3,3.3-4.2c0.3-1,0.2-2,0.3-3c0.2-2.3,0.4-4.7,1.2-6.9
		c0.9,0.8,1.3,1.9,1.7,2.9c0.4,0.9,0.8,1.1,1.6,0.7c1-0.5,2-0.8,3,0c1.1,0.8,1.5,1.9,1.6,3.3c0.2,1.9-0.6,3.3-2,4.5
		c-0.6,0.5-1.1,0.6-1.7,0.2c-0.2-0.1-0.3-0.2-0.5-0.3c-2.1-1.3-3.3-0.4-3.9,1.7c-0.9,2.8-1,5.6,0.1,8.4c0.4,1,0.7,2.1,2,2.3
		c0.5,0.1,1,0,1.4,0.4c-0.6,0-1.2,0.1-0.9,0.9c0.3,1,0.6,2.1,1,3.1c0.6,1.3,0.1,2.2-0.8,3c-0.4,0.4-1,0.6-1.4,0.9
		c-1.9,1.2-3.6,2.4-3.2,5.1c0,0.2,0,0.5-0.1,0.8c-0.5,2-0.5,4-0.6,6c-0.3,4.7-0.2,9.4-0.3,14c-0.3,12.1-0.1,24.2-0.1,36.4
		c0,0.4-0.2,1,0.2,1.3c1.2,0.8,0.9,2,0.9,3.1c0,1.3,0,2.7,0,4c-1.8,0.1-1.8,0.1-1.8-1.6c-0.1-7.4-0.2-14.7-0.3-22.1
		c-0.2-14.9,0-29.9,0.4-44.8c0-0.3,0-0.6,0-1c-0.1-0.6-0.5-0.7-1-0.5c-0.3,0.1-0.5,0.3-0.8,0.6c-2.4,2.1-4.8,4.2-7.4,6
		c-1.6,1.2-2.4,2.7-2.1,4.8c0.3,2-0.3,3.1-2,4c-1.7,0.9-3.5,0.8-4.8-0.3c-0.4-0.4-0.8-0.8-1.2-1.3c-0.9-1-2-1.4-3.3-0.9
		c-1.4,0.5-2.8,0.7-4.3,0.5c-1.1-0.1-1.8,0.4-2.2,1.4c-0.3,0.6-0.5,1.3-0.5,2c-1,9.8-2.4,19.5-3.7,29.3c-1,7.4-2,14.7-3,22.1
		c-0.3,1.9-0.3,1.9-2.2,1.8c-0.3,0-0.6-0.1-0.9-0.1c1.1-9.4,2.9-18.7,4-28c0.9-7.6,2.2-15.1,2.9-22.6c0-0.5,0.2-1,0.3-1.5
		c0.3-1.5-0.9-2.3-1.8-3.1c-2.2-2-2.4-4.6,1.2-5.9c0.3-0.1,0.6-0.2,0.9-0.3c0.9-0.4,1.7-1,2.1-1.8c0.6-1.1,1.1-2.3,1-3.6
		c-0.2-2.5,0.4-5,0.5-7.6c0.1-1.4,0.3-2.8,0.4-4.1c0.3-2.4,0.6-4.9,0.6-7.3c0-1.5-0.6-2.2-2.1-2.5c-1.1-0.2-2.2-0.4-3.4-0.4
		c-1.8-0.1-2.5-1-2.1-2.8c0.5-2.2,3.4-3.7,5.4-2.8c0.6,0.2,0.9,0.7,1,1.3c0,0.4,0,0.8,0,1.1c0.1,1,1,1.3,1.8,0.7
		c0.7-0.5,0.6-1,0.1-1.6c-0.9-1.1-0.7-2,0.1-3.2c1.9-2.8,2.1-6,0.7-9.2c-0.3-0.7-0.4-1.3-0.4-2c0.1-2.2-0.3-4.3-1.1-6.3
		c-1.3-3.5-2.6-7-3.4-10.7c-0.3-1.5-0.7-2.7-2-3.5C798.5,194.8,798.4,194.6,798.4,194.4z M832.9,239.7c0.1-0.8-0.1-1.7-0.3-2.6
		c-0.1-0.9-0.6-1.1-1.3-0.7c-1.6,0.9-3.4,1.5-5,2.3c-1.5,0.7-2.7,1.7-3.4,3.2c-0.8,1.6-2.1,2.2-3.9,2.2c-1.7,0-2.9-0.7-3.6-2.3
		c-0.4-1.1-1.3-1.7-2.4-1.9c-2.1-0.3-4.1-0.8-6-1.8c-0.9-0.5-1.4-0.2-1.6,0.9c-0.2,1.4-0.4,2.9-0.6,4.3c-0.7,6.2-1.5,12.3-2.2,18.5
		c-0.2,1.3,0.2,1.8,1.5,1.8c2.9,0.1,5.4-0.6,7.1-3.2c1.4-2.2,3.4-3.3,5.8-2.1c0.8,0.4,1.6,0.2,2.3-0.3c3.2-2.3,6.5-4.5,9.1-7.5
		C831.3,247.5,832.9,244,832.9,239.7z M815.1,260.5c-0.8,0-1.3,0.3-1.7,1c-0.8,1.5,0.1,3.7,1.6,4.3c1.4,0.5,2.4-0.1,2.5-1.6
		c0.1-1-0.2-1.9-0.7-2.7C816.5,260.8,815.9,260.5,815.1,260.5z M838.6,228c0.1,0.5,0.1,1,0.2,1.5c0.1,0.5,0.4,0.8,0.9,0.8
		c0.9,0.1,2.3-0.7,2.4-1.6c0.2-1.4,0-2.8-1-3.9c-0.6-0.7-1.1-0.5-1.5,0.1C838.8,225.8,838.5,226.9,838.6,228z M837.2,248.1
		c-0.1-0.5,0.1-1.2-0.5-1.5c-0.7-0.4-1.4-0.1-1.9,0.3c-0.8,0.5-1,1.4-1.3,2.2c-0.3,0.8-0.5,1.6,0.4,2.2c0.7,0.4,1.9,0.1,2.5-0.7
		C836.8,249.8,837.2,249,837.2,248.1z M817.7,239.7c-0.1,1.3,0.2,1.7,1.2,1.7c1.5,0.1,2.6-0.8,2.6-2.3c0-1.2-0.6-2-1.7-2
		C818.5,237,817.7,237.9,817.7,239.7z M800.9,230.6c0-1-0.5-1.8-1.3-1.8c-1,0-1.8,1.1-1.7,2.5c0,0.9,0.4,1.5,1.1,1.5
		C800,232.8,800.9,231.8,800.9,230.6z M799.7,265.3c0-1.2-0.6-2-1.6-2c-0.8,0-1.1,0.5-1.1,1.2c0,1.3,0.5,2.3,1.5,2.3
		C799.2,267,799.6,266.3,799.7,265.3z"/>
	<path class="st4" d="M712.3,273c-0.8,13-1.6,25.9-2.4,38.9c-0.2,3.1-0.4,6.2-0.7,9.3c-0.1,1.4-0.1,1.4-1.5,1.4c-0.5,0-1,0-1.5-0.1
		c0.3-4.9,0.6-9.8,0.9-14.6c0.4-6.3,0.9-12.5,1.3-18.8c0.4-5.2,0.7-10.4,1-15.6c0-0.6,0.1-1.1,0-1.7c-0.1-1.2-0.7-2-1.9-2.3
		c-2.5-0.8-3-1.3-3-3.9c-0.1-7.1-0.1-14.2,0.3-21.3c0.2-3.9,0.6-7.7,0.9-11.6c0.3-4,2.2-6.9,5.6-9c0.1-0.1,0.2-0.1,0.3-0.2
		c1.4-0.8,2.9-1.3,2.9-3.4c0-2.6-0.2-5.1-2.4-6.9c-0.6-0.5-1.3-0.9-2-1.2c-7.2-2.8-14.1-6.5-21.1-9.7c-2-0.9-4.1-1.8-6.1-2.7
		c-1.9-0.8-3.8-1.5-5.8-1.7c-1.1-0.1-2.1-0.5-2.6-1.6c0.9-0.6,1.9-0.4,2.7-0.2c2.8,0.8,5.7,1.6,8.3,2.9c0.7,0.3,1.4,0.7,2,1
		c0.9,0.4,1.2-0.9,2-0.6l0.1,0.1c0.3,2.3,0.5,2.4,2.7,1.9c0.3-0.1,0.6-0.1,0.9-0.1c0.4,0.1,0.7,0.2,1.1,0.4
		c7.4,3.4,14.8,6.9,22.3,10.3c0.3,0.2,0.7,0.3,1,0.5c1.2,0.7,1.3,1.2,0.3,2.1c-0.5,0.5-0.9,1-0.9,1.8c0.1,2.5,0.2,4.9,0.4,7.4
		c-0.2,0-0.4,0-0.6,0c-1,0-2.1-0.1-2,1.4c0,0.6-0.5,0.8-1.1,0.8c-2.4,0.4-4.2,1.9-5.6,3.8c-0.8,1.1-1.3,2.3-1.3,3.7
		c0,4.8,0,9.6,0,14.4c0,0.7,0,1.3,0.6,1.7c0.1,1,0.1,2,0.2,3.1c-0.2,1.4-0.3,2.8-0.5,4.2c-0.1,0.6-0.1,1.2,0.2,1.8
		c-0.1,1-0.3,2-0.4,3c-0.1,1.9-0.2,3.8,1.4,5.2c0.1,0.1,0.2,0.2,0.3,0.2c2.6,0.6,3.1,1.3,3.1,3.8C712,271.7,711.7,272.5,712.3,273z"
		/>
	<path class="st5" d="M689.7,199.4c-0.8-0.3-1.2,1-2,0.6c-0.7-0.3-1.4-0.7-2-1c-2.6-1.4-5.5-2.1-8.3-2.9c-0.9-0.2-1.9-0.4-2.7,0.2
		c-0.1-0.1-0.2-0.2-0.3-0.3c-2.2-1.5-3.8-3.4-4.3-6.2c-0.2-1-1-1.6-1.9-2c-3-1.6-6.1-3.1-9.4-4.1c-4-1.1-7.7-2.8-11.2-5
		c-1.3-0.8-2.1-2-2.6-3.4c-1.4-3.6-1.9-7.4-2.5-11.3c-0.5-4,0.1-7.7,1.9-11.4c1.9-4.1,3.2-8.4,5.5-12.3c0.2-0.4,0.4-0.8,0.7-1.1
		c0.4-0.6,0.9-1.1,1.7-0.8c0.3,0.1,0.6,0.1,0.8-0.3c0.4,0.8,0.9,0.9,1.6,0.3c0.4,0.5,1.1,0.6,1.4,1.3c1.4,3.4,1.8,6.9,1,10.5
		c-0.6-0.5-1.3,0-1.9,0c0.1-0.8,0.1-1.6,0.2-2.5c0.2-1.9,0-3.8-0.5-5.7c-0.2-0.8-0.7-1.4-1.6-1.5c-0.9-0.1-1.4,0.5-1.8,1.2
		c-0.2,0.4-0.4,0.9-0.6,1.4c-1.6,3.9-3.2,7.9-5.3,11.6c-0.6,1-0.7,2.1-0.8,3.3c-0.1,2.2,0.2,4.4,0.4,6.6c0.3,3,0.9,5.9,1.8,8.7
		c0.5,1.6,1.5,2.7,3,3.5c5.5,2.7,11.2,4.7,16.8,7c1.6,0.7,2.1,0.3,1.9-1.5c-0.2-2.1-0.5-4.3-0.8-6.4c-0.2-1.8-0.7-2.3-2.5-2.5
		c-3.5-0.5-6.6-2.1-9.5-4c-0.8-0.5-1.3-1.3-1.4-2.3c-0.1-1.3-0.3-2.6-0.5-4c-0.8-4.3-0.5-8.6,1-12.7c-0.1,4.2,0.1,8.5,1.5,12.5
		c-0.2,0.9,0,1.6,0.5,2.3c-0.7,0.6-0.5,1.2,0,1.8c1.3,2,3.1,3.6,5.3,4.7c0.6,0.3,1.3,0.6,1.9,0.7c1.2,0.3,2.1-0.6,1.9-1.8
		c0.5,0,1.1,0.5,1.3-0.5c0.1-0.5,0.3-1,0.2-1.5c-0.6-2.9-0.7-5.9-1-8.9c-0.3-2.6-0.5-5.2-0.5-7.8c0-2.4,0.6-4.6,2.6-6.3
		c1.1-0.9,2.2-1.7,3.5-2.2c1-0.4,1.8-0.8,2.6-1.5c1.1,0.7,1.6,0,2-0.9c1.4-0.6,2.5-1.7,4-1.8c1.3-0.1,2.6,0.5,3.9,0.4
		c-4.7,2.3-9.1,5.1-13.6,7.6c-2.2,1.2-3.1,3-3.1,5.4c0,3.2,0.2,6.3,0.5,9.5c0.8,8.7,2.5,17.3,3.8,26c0.4,2.6,1.8,4.5,4.2,5.8
		c0.8,0.4,1.7,0.8,2.6,1C682.8,196.2,686.4,197.6,689.7,199.4z"/>
	<path class="st5" d="M349.9,181.1c0.4-0.5,0.1-1.1,0.3-1.6c0.2-0.4,0.5-0.8,1-0.8c0.5,0,0.9,0.4,1,0.8c0.2,1.4,1.2,1.8,2.3,2.2
		c-1.3,1.2-1.8,2.7-2,4.4c-0.1,0.9-0.2,1.9-0.4,2.8c-1.1,5.3-1.6,10.7-2.1,16c-0.5,4.5-0.5,9.1-1.3,13.7c-1.3,7.2-2.7,14.5-4.2,21.7
		c-2,9.1-2.1,18.5-3.5,27.8c-0.9,6.2-1.3,12.5-2.1,18.7c-1.7,12-2.5,24-4.1,36c-0.9,0.2-1.7,0.2-2.6,0c1.1-6.8,1.1-13.8,1.9-20.7
		c1.3-12.1,2.7-24.2,4.2-36.3c0.3-2.7,1.1-5.3,1.5-8c0.8-4.8,1.1-9.7,1.7-14.6c0.8-6.9,2.1-13.7,3.3-20.5c1.4-7.2,2.3-14.5,3.4-21.8
		c0.7-5.3,1.5-10.6,1.7-15.9C350,183.6,350.3,182.3,349.9,181.1z"/>
	<path class="st6" d="M292.9,232.9c-0.1,2-0.1,4.1,1.4,5.7c0.3,0.4,0.6,1.1,1.3,0.3c0.3,0.1,0.5,0.2,0.8,0.4c-0.1,1,0.1,1.8,0.7,2.7
		c1.1,1.6,1.6,3.4,1.6,5.3c-0.1,3.4,0,6.8,0,10.3c0,3.6,0.4,4.1,3.8,5c1.8,0.5,2.3,1.1,2.3,2.9c0,0.5,0,1,0,1.5
		c0,2.6-0.9,3.5-3.4,3.7c-1.2,0.1-2.4,0.2-2.8,1.7c-0.1,0.6-0.8,0.6-1.3,0.6c-0.3-2.8,0.4-5.6,0.2-8.4c0.1-1.5,0.1-2.9,0.2-4.4
		c0.6-4.8,0.2-9.5-0.4-14.5c-0.4,0.3-0.7,0.5-0.8,0.7c-4.5,4.8-10.2,6.8-16.8,6.8c-7.5,0-14.6-1.6-21.5-4.3
		c-1.9-0.7-3.7-1.6-5.6-2.3c-0.4-0.7-1-1.3-1.6-1.9c-1.5-1.5-3.2-2.9-4.1-5.3c-0.7,2.4-1.5,4.4-1.3,6.6c-0.8,3-1.2,6.1-1,9.2
		c-0.7,3-0.6,6.1-0.5,9.2c-0.3,0.7-0.3,1.3-0.3,2c-0.2,2.2-0.4,4.5-0.5,6.7c-1.8-0.2-2-0.5-1.5-2.1c0.2-0.8,0.6-1.5,0.8-2.3
		c0.3-2,0.3-2.9-1.9-3.4c-1.4-0.4-2.7-1-3.7-2.2c-0.9-1.2-1.5-2.5-1.4-4c0.2-1.9,1.8-3.3,3.7-3.4c1-0.1,2-0.1,3,0.3
		c0.5-0.7,0.7-1.4,0.7-2.2c-0.1-3.4,0.8-6.6,1.5-9.9c0.3-1.4,0.6-2.7,0.8-4.1c0.1-0.8,0.4-1.5,1-2c1.2-1.1,2-0.9,2.6,0.6
		c0.1,0.2,0.1,0.4,0.2,0.5c0.1,0.4,0.2,1,0.8,0.9c0.5-0.1,0.3-0.6,0.4-0.9c0.5-2.6,0.6-5.1,0.1-7.7c-0.2-0.9-0.1-1.8-0.1-2.7
		c1.4,1.7,2,3.7,1.8,6c-0.2,1.6-0.2,3.3-0.2,4.9c-0.1,2.1,0.8,3.7,2.5,4.8c0.4,0.3,0.9,0.5,1.3,0.8c7.1,3.5,14.6,5.5,22.5,5.8
		c3.6,0.1,7.2-0.4,10.7-1.6c2.4-0.8,3.1-1.9,3.2-4.4c0.1-2.5,0.1-5.1,0.4-7.6C292.3,235.7,292.2,234.2,292.9,232.9z M237.2,259.7
		c0,0.9,0.2,2,0.4,2.4c0.5,0.9,1.3,1.3,2.4,1.1c1-0.2,1.3-0.9,1.3-1.8c0-0.8,0.2-1.6,0.2-2.5c0-1.3-0.8-1.9-2.1-2
		c-1.4-0.1-2,0.4-2.2,1.8C237.2,259,237.2,259.4,237.2,259.7z M301.6,263.6c-0.6,0-1.2,0.2-1.4,0.8c-0.4,1.4-0.6,2.8,0,4.1
		c0.5,1.2,2.4,1.5,3,0.5c0.7-1.2,1.1-2.4,0.6-3.8C303.4,264.1,302.6,263.5,301.6,263.6z"/>
	<path class="st4" d="M297.2,273c0.5,0,1.1,0,1.3-0.6c0.4-1.5,1.6-1.6,2.8-1.7c2.5-0.2,3.4-1.1,3.4-3.7c0-0.5,0-1,0-1.5
		c-0.1-1.8-0.6-2.4-2.3-2.9c-3.4-0.9-3.8-1.4-3.8-5c0-3.4,0-6.8,0-10.3c0-2-0.5-3.8-1.6-5.3c-0.6-0.8-0.8-1.7-0.7-2.7
		c1.9,0.2,2.8,0.7,3,2.5c0.8,5.4,2.2,10.8,1.5,16.4c-0.2,1.6,0.2,2,1.7,2.4c0.3,0.1,0.6,0.1,0.9,0.2c2.2,0.6,3,1.8,3.1,4
		c0,1.3-0.1,2.7-0.4,4c-0.5,2.1-1.6,3.1-3.8,3.3c-2.1,0.2-2.3,0.3-2.7,2.4c-0.4,2.6-0.7,5.2-1,7.7c-0.4,2.9-1.3,5.7-3.2,8
		c-0.5,0.7-0.7,1.5-0.7,2.3c-0.1,10,0.1,19.9,0.7,29.9c-0.6,0.2-1.2,0.2-1.9,0c0-5.3,0-10.7,0-16c0-2.9-0.5-5.8-0.9-8.6
		c-0.4-3.4-0.6-6.8,0.9-10c1.3-1.1,1.7-2.6,1.5-4.2c1.1-2.7,1.2-5.5,1.2-8.3C296.8,274.7,296.8,273.8,297.2,273z"/>
	<path class="st4" d="M798.7,194.8c1.2,0.8,1.7,2,2,3.5c0.8,3.6,2.1,7.2,3.4,10.7c0.8,2,1.2,4.1,1.1,6.3c0,0.7,0.1,1.4,0.4,2
		c1.4,3.2,1.3,6.3-0.7,9.2c-0.8,1.2-1,2.1-0.1,3.2c0.5,0.6,0.6,1.1-0.1,1.6c-0.8,0.6-1.6,0.3-1.8-0.7c-0.1-0.4,0-0.8,0-1.1
		c-0.1-0.6-0.4-1.1-1-1.3c-2-0.9-4.9,0.6-5.4,2.8c-0.4,1.8,0.2,2.7,2.1,2.8c1.1,0,2.3,0.2,3.4,0.4c1.4,0.3,2.1,1,2.1,2.5
		c0,2.5-0.3,4.9-0.6,7.3c-0.2,1.4-0.4,2.8-0.4,4.1c-0.1,2.5-0.7,5-0.5,7.6c0.1,1.3-0.4,2.5-1,3.6c-0.4,0.8-1.2,1.5-2.1,1.8
		c-0.3,0.1-0.6,0.2-0.9,0.3c-3.5,1.3-3.4,3.9-1.2,5.9c0.9,0.8,2.1,1.6,1.8,3.1c-0.5-0.7-1.3-0.7-2-1c-3.6-1.6-4.2-6-1.1-8.5
		c0.6-0.5,1.3-1,2.1-1.3c1.6-0.8,2.3-2.1,2.5-3.8c0.7-5.9,1.5-11.8,2.2-17.8c0.3-2.6,0-2.9-2.5-2.2c-2.5,0.7-3.9,0-4.7-2.4
		c-0.4-1.4-0.5-2.7-0.1-4.1c0.7-2.2,2.3-3.5,4.7-3.5c3.3-0.1,3.9-0.6,4-4c0.1-5.3-1-10.5-2.7-15.5c-0.5-1.6-1-3.1-1.6-4.7
		C799.1,199.4,798.9,197.1,798.7,194.8z"/>
	<path class="st4" d="M832.9,322.6c0-1.3,0-2.7,0-4c0-1.1,0.3-2.3-0.9-3.1c-0.4-0.2-0.2-0.8-0.2-1.3c0-12.1-0.2-24.2,0.1-36.4
		c0.1-4.7,0-9.4,0.3-14c0.1-2,0.1-4,0.6-6c0.1-0.2,0.1-0.5,0.1-0.8c-0.5-2.7,1.3-3.9,3.2-5.1c0.5-0.3,1-0.5,1.4-0.9
		c0.9-0.9,1.4-1.8,0.8-3c-0.4-1-0.7-2-1-3.1c-0.3-0.9,0.3-1,0.9-0.9c1.6,1.1,2.4,3.6,1.8,5.7c-0.3,1.4-1.1,2.6-2.4,3.3
		c-2.7,1.5-3.7,3.8-3.7,6.8c0.1,18.9,0.1,37.8,0.2,56.7c0,2,0.1,3.9,0.1,5.9C833.9,322.7,833.4,322.8,832.9,322.6z"/>
	<path class="st5" d="M356.6,142.1c-0.2,1.2-1.2,1.8-1.8,2.7c-0.8-0.5-0.2-1.4-0.8-1.8c0-3.2,0.8-6.3,0.7-9.6
		c-0.1-1.7-0.3-3.5,0.2-5.2c0.6,0,0.9-0.3,1.1-0.9c0.6-1.7,1.1-3.3,1.1-5.2c-0.1-1.6-0.3-3.3-0.3-4.9c-0.1-2.9-0.9-5.8-0.9-8.7
		c0-0.7-0.3-1.1-1-1c0-0.3,0-0.5,0-0.8c0.1,0,0.3,0,0.3-0.2c0-0.1-0.2-0.1-0.3-0.1c-0.1-1.4-0.1-2.8,0-4.2c0.1,0,0.3,0,0.3-0.2
		c0-0.1-0.2-0.1-0.3-0.1c-0.1-0.3-0.1-0.7,0-1c0.6-0.3,1-0.7,1-1.4c0.1-3.4,0.8-6.7,1.1-10.1c0.1-2.1,0.5-4.1,0.5-6.2
		c0-2.4,0.8-4.4,3.1-5.6c-0.1,0.5-0.2,1-0.3,1.5c-0.9,3.3-1.8,6.6-2.1,10c-0.5,5.1-0.7,10.3-0.6,15.4c0.1,9.6,0.6,19.3-0.1,28.9
		C357.1,136.2,356.6,139.2,356.6,142.1z"/>
	<path class="st5" d="M613.1,103.3c-0.7,0.1-0.8,0.5-0.8,1.1c0,1.3,0,2.7,0,4c0.1,2.4-0.4,4.8-0.6,7.1c-0.2,2.5-0.7,5-0.5,7.6
		c0,0.4,0.2,1-0.5,1c-0.5,0-0.6-0.5-0.6-1c0.4-0.3,0.3-0.8,0.3-1.2c0-6.4,0.1-12.8,0.1-19.2c0-3.9-0.2-7.9-0.7-11.8
		c-0.4-3.4-1.5-6.7-2.3-10c1.6,0.5,2.4,1.9,2.8,3.3c0.3,1,0.6,2,0.5,3.1c-0.1,3.8,0.5,7.5,1.1,11.2c0.1,0.6,0.1,1.3,0.1,1.9
		c0,0.8,0.2,1.4,1.1,1.4C613.2,102.3,613.3,102.8,613.1,103.3z"/>
	<path class="st4" d="M354.8,107.5c0.7-0.1,1,0.3,1,1c0,2.9,0.8,5.7,0.9,8.7c0,1.6,0.2,3.3,0.3,4.9c0.1,1.8-0.5,3.5-1.1,5.2
		c-0.2,0.6-0.5,0.8-1.1,0.9c0,0,0,0,0,0c0.2-0.4,0.2-0.8,0.2-1.3c0-5.1,0-10.3,0-15.4c0-0.4,0.1-0.9-0.3-1.3c-0.1-0.4-0.1-0.8,0-1.2
		c0,0,0.1-0.1,0.1-0.1c0-0.1-0.1-0.2-0.1-0.3C354.7,108.3,354.7,107.9,354.8,107.5z"/>
	<path class="st5" d="M354.8,110.2c0.4,0.4,0.3,0.8,0.3,1.3c0,5.1,0,10.3,0,15.4c0,0.4,0,0.9-0.2,1.3c-0.4-2.3-0.1-4.7-0.2-7
		C354.6,117.5,354.7,113.8,354.8,110.2z"/>
	<path class="st5" d="M613.1,109.4c-0.6-1.3-0.6-2.6,0-3.8C613.3,106.9,613.3,108.1,613.1,109.4z"/>
	<path class="st7" d="M642.5,110.2c0.5,0,0.7,0.3,0.7,0.7c0,0.4,0.1,1-0.5,1.1c-0.6,0.1-0.9-0.3-1-0.9
		C641.8,110.6,642.1,110.3,642.5,110.2z"/>
	<path class="st5" d="M353.7,144.6c0.2,0.6,0.4,1.3-0.2,1.8C353.4,145.8,353.4,145.2,353.7,144.6z"/>
	<path class="st8" d="M752,295.1c-0.2-0.3-0.2-0.6,0-0.9C752.2,294.4,752.2,294.7,752,295.1z"/>
	<path class="st5" d="M613.1,94.9c-0.5-0.3-0.4-0.8-0.3-1.3C613.1,94,613.2,94.4,613.1,94.9z"/>
	<path class="st5" d="M355.1,90.8c-0.1,0.2-0.1,0.4-0.2,0.6C354.8,91.2,355,91,355.1,90.8z"/>
	<path class="st5" d="M353.9,143.3c0,0.4-0.1,0.7-0.1,1.1C353.4,144,353.7,143.7,353.9,143.3z"/>
	<path class="st4" d="M354.8,101.8c0.1,0,0.3,0.1,0.3,0.1c0,0.2-0.2,0.2-0.3,0.2C354.7,102,354.7,101.9,354.8,101.8z"/>
	<path class="st4" d="M354.8,106.4c0.1,0,0.3,0.1,0.3,0.1c0,0.2-0.2,0.2-0.3,0.2C354.7,106.6,354.7,106.5,354.8,106.4z"/>
	<path class="st5" d="M354.8,108.6c0,0.1,0.1,0.2,0.1,0.3c0,0-0.1,0.1-0.1,0.1C354.8,108.9,354.8,108.8,354.8,108.6z"/>
	<path class="st5" d="M613.2,122.3c0-0.2-0.1-0.4-0.1-0.5C613.3,121.9,613.4,122.1,613.2,122.3z"/>
	<path class="st5" d="M353.5,147c0,0.2-0.1,0.4-0.3,0.6C353.2,147.3,353.3,147.1,353.5,147z"/>
	<path class="st5" d="M712.3,273c-0.6-0.6-0.3-1.3-0.4-2c0-2.6-0.6-3.2-3.1-3.8c-0.1,0-0.2-0.1-0.3-0.2c1-0.2,2-0.1,3-0.1
		c3,0,5.9,0,8.9-0.3c6.6-0.6,12.8-2.5,18.9-5c3.6-1.5,6.9-3.4,10.4-5.1c0.2,0.5,0.4,0.9,0.7,1.4c0.6,1.2,0.6,2.5-0.2,3.6
		c-0.5,0.7-0.5,1.3-0.2,2.1c0.8,2.9,1.4,5.8,1.2,8.8c-0.8,15.1-0.1,30.2-0.4,45.2c0,1.7,0.6,3.2,0.4,4.9c-0.8,0.2-1.2,0-1.2-0.9
		c0-2.5-0.1-4.9-0.2-7.4c-0.4-17-0.8-34-0.9-51c0-2.8-0.3-3-2.9-1.7c-9.3,4.8-19,7.7-29.5,8.1c-0.4,0-0.9,0.1-1.3,0.1
		c-2.7,0.2-2.7,0.2-2.8,2.9C712.4,272.8,712.4,272.9,712.3,273z"/>
	<path class="st9" d="M404.3,322.6c-0.2-3.9-0.8-7.8-0.9-11.7c-0.3-10.4,0.5-20.7,2.6-31c0.1-0.5,0.1-1,0.2-1.5
		c1.5-0.9,2.2-2.5,3-3.9c3.1-5.5,6.9-10.3,11.1-14.9c3.2-3.5,6.4-7,10-10.2c5.4-5,10.6-10.1,16.1-14.8c3.5-3.1,7.1-6.2,10.5-9.4
		c4.9-4.6,10-9,15-13.5c4-3.7,8.1-7.3,12.1-11c4.6-4.1,9.1-8.3,13.6-12.5c2.8-2.6,5.6-5.1,8.4-7.7c4.3-3.9,8.5-7.8,12.6-11.9
		c6.8-6.6,13.4-13.5,19.9-20.5c2.8-3,5.3-6.1,7.8-9.3c4.2-5.3,8-10.8,11.9-16.3c2.7-3.8,5.7-7.3,8.3-11.2c1.7-2.6,3.5-5.3,5.2-8
		c0.7-1.1,2-1.9,2.4-3.2c1.1,0.8,2.2,1.7,3.3,2.5c0.9,0.7,1.9,1,3,0.9c2.8-0.3,5.7-0.7,8.5-1.2c1-0.2,1.9-0.8,2.5-1.6
		c0.5-0.6,1-1.2,1.6-1.9c2.1,2.9,4.2,5.7,5.9,8.7c2.1,3.8,3.8,7.7,5.7,11.6c0.2,0.5,0.4,0.9,0.6,1.4c0.8,1.7,0.8,1.7,2.4,0.7
		c0.1-0.1,0.3-0.1,0.6-0.2c0.1,1.4-1,2.2-1.4,3.3c-0.4,0.3-0.8,0.6-1.2,1c-1.8,1.8-3.6,3.6-5.2,5.5c-2.2,2.6-5.1,4.5-7.7,6.8
		c-1.6,1.5-3.4,2.9-5.1,4.3c-4.3,3.6-8.7,7-12.7,10.9c-5.1,5.1-9.7,10.6-14.5,15.9c-4.9,5.5-9.4,11.3-13.4,17.5
		c-0.8,1.2-1.6,2.3-2.5,3.4c-3.6,4.7-7.2,9.5-10.8,14.2c-3.6,4.8-6.8,9.8-10.5,14.5c-5.1,6.5-10.5,12.7-16,18.8
		c-3.8,4.3-7.6,8.5-11.5,12.7c-4.5,4.8-8.9,9.6-13.5,14.2c-13.2,13.3-26.4,26.5-39.6,39.6c-5,5-9.8,10.3-14.4,15.7
		c-0.8,0.9-1.7,1.7-2.2,2.9C419,322.6,411.7,322.6,404.3,322.6z M495.2,242.7c0-0.3-0.1-0.5-0.4-0.5c-0.3,0-0.5,0.1-0.6,0.3
		c-0.1,0.4,0.1,0.6,0.4,0.6C494.9,243.2,495.1,243,495.2,242.7z"/>
	<path class="st10" d="M426.3,322.6c0.5-1.1,1.4-2,2.2-2.9c4.7-5.4,9.4-10.7,14.4-15.7c13.2-13.2,26.5-26.4,39.6-39.6
		c4.6-4.6,9-9.4,13.5-14.2c3.9-4.2,7.7-8.4,11.5-12.7c5.5-6.2,10.9-12.4,16-18.8c3.7-4.7,6.9-9.7,10.5-14.5
		c3.6-4.8,7.2-9.5,10.8-14.2c0.8-1.1,1.7-2.2,2.5-3.4c4-6.2,8.5-12,13.4-17.5c4.8-5.3,9.4-10.9,14.5-15.9c4-3.9,8.4-7.4,12.7-10.9
		c1.7-1.4,3.4-2.8,5.1-4.3c2.5-2.3,5.5-4.2,7.7-6.8c1.6-2,3.5-3.7,5.2-5.5c0.4-0.4,0.8-0.7,1.2-1c1.4,2.8,2.5,5.7,3.7,8.6
		c2.2,5.5,4.9,10.7,7.5,16c0.2,0.5,0.3,1,1.1,1.1c1.5,0.1,1.7,0.5,1.2,1.9c-0.1,0.4-0.3,0.7-0.4,1.1c-0.7,0.1-1,0.7-1.5,1.1
		c-1.5,1.5-2.8,3.1-4.3,4.6c-4.4,4.4-8.1,9.2-11.5,14.3c-5.8,8.9-11.7,17.8-19.5,25.1c-0.3,0.3-0.5,0.6-0.6,1
		c-0.5,0.1-0.9,0.5-1.3,0.8c-0.7,0.6-2.1,0.1-2-0.8c0.1-0.8-0.3-0.9-0.7-0.9c-1.8-0.3-3.6-0.6-5.5-0.8c-1.6-0.2-3.3-0.2-4.9-0.3
		c-0.4,0-0.8,0-1.1,0.4c1.2,0.4,1,1.2,0.7,2.2c-2,5.7-3.1,11.6-4.2,17.6c-1.9,10.9-3.1,22-4.3,33c-0.9,0.6-1.7,1.3-1.8,2.4
		c-0.2,1.7-1.4,2.7-2.6,3.6c-1.6,1.2-2.9,2.6-4.1,4.2c-2.4,3.1-4.8,6.2-7.7,8.9c-3.5,3.4-6.9,6.8-10.2,10.2
		c-1.5,1.5-2.9,3.2-4.3,4.8c-2.4,2.8-4.7,5.6-7.1,8.5c-2.6,3.2-5.3,6.3-7.9,9.5c-3,3.7-6,7.4-8.9,11.1c-2.3,2.9-4.7,5.8-6.8,8.9
		c-0.6,0-1.1,0-1.7,0c-22.8,0-45.5,0-68.3,0C427.6,322.6,427,322.6,426.3,322.6z"/>
	<path class="st8" d="M498.2,322.6c2.1-3.1,4.5-6,6.8-8.9c2.9-3.7,5.9-7.4,8.9-11.1c2.6-3.2,5.2-6.3,7.9-9.5
		c2.3-2.8,4.7-5.7,7.1-8.5c1.4-1.6,2.8-3.3,4.3-4.8c3.4-3.4,6.8-6.9,10.2-10.2c2.8-2.8,5.3-5.8,7.7-8.9c1.2-1.6,2.6-2.9,4.1-4.2
		c1.2-0.9,2.3-1.9,2.6-3.6c0.1-1,0.9-1.8,1.8-2.4c-0.3,3.2-0.5,6.4-0.8,9.7c-0.2,2.1-0.5,4.3-0.5,6.4c-0.1,4-0.5,8-0.5,12
		c0,7.2-0.2,14.4-0.3,21.5c-0.1,6.1,0.3,12.2,0.4,18.3c0,1.4,0.2,2.8,0.3,4.2c-0.6,0-1.3,0-1.9,0c-18.6,0-37.2,0-55.7,0
		C499.8,322.7,499,322.6,498.2,322.6z"/>
	<path class="st11" d="M292.2,322.5c-0.6,0-1.1,0.1-1.7,0.1c-15.4,0-30.7,0-46.1,0c0.2-3.7,0.5-7.3,0.6-11
		c0.3-6.8,0.6-13.7,0.9-20.5c0.1-3.1,0.4-3.3,3.4-2.3c6.5,2.1,13.2,3.2,20,3.4c6,0.2,12.1,0,18.1-0.7c3.9-0.5,4.1-0.2,4.2,3.7
		c0.1,3,0.1,6.1,0.1,9.1C291.9,310.3,292.1,316.4,292.2,322.5z"/>
	<path class="st6" d="M292.2,322.5c-0.1-6.1-0.3-12.2-0.4-18.3c-0.1-3-0.1-6.1-0.1-9.1c-0.1-3.9-0.2-4.2-4.2-3.7
		c-6,0.7-12,0.9-18.1,0.7c-6.8-0.2-13.5-1.3-20-3.4c-3-1-3.3-0.8-3.4,2.3c-0.3,6.8-0.6,13.7-0.9,20.5c-0.2,3.7-0.4,7.3-0.6,11
		c-0.4,0.1-0.8,0.1-1.1,0c-0.1-3.4,0.2-6.8,0.7-10.2c0-0.1,0-0.3,0-0.4c-0.1-4.7,0.8-9.3,0.3-14c-0.4-3.9-0.2-7.8-0.3-11.7
		c0-1.6,0-1.6,1.6-1.9c3.5,1.4,6.9,3,10.6,3.8c0.6,1.3,1.9,1.3,3,1.6c2.5,0.7,5.2,0.6,7.7,0.7c6.8,0.3,13.6,0.1,20.4,0.1
		c1.8,0,3.4-0.6,4.3-2.3c0.6-0.3,1.2-0.4,1.9-0.3c-1.5,3.2-1.4,6.6-0.9,10c0.4,2.9,0.9,5.7,0.9,8.6c0,5.3,0,10.7,0,16
		C293.1,322.8,292.7,322.7,292.2,322.5z"/>
	<path class="st7" d="M582.6,322.6c0-8.5,0.1-17-0.3-25.5c-0.3-6.2-0.1-12.3,0.1-18.5c0.3-7.9,1.3-15.7,2.1-23.5
		c0.6-5.9,0.5-11.8,0.1-17.7c-0.4-5.5-0.7-11-1.2-16.5c-0.5-5.7-1.2-11.4-1.7-17.1c-0.1-0.8-0.8-1.8-0.2-2.3
		c0.7-0.5,1.4,0.5,2.2,0.8c0.2,0.1,0.5,0.2,0.7,0.2c4.1,0.2,7.7,1.8,11.3,3.7c1.5,0.8,1.3,0.9,2.3-0.6c3.5-4.9,7.1-9.6,11.2-14
		c0.9-1,2-1.8,3-2.6c1-0.8,2.1-1.2,3.4-1.9c0.1,8,1.5,15.8,2.8,23.5c0.5,3.2,0.6,6.4,0.9,9.7c0.5,7.4,1.7,14.8,2.6,22.1
		c1.5,12,3.8,23.8,5.4,35.8c1.6,12.4,4.1,24.6,7,36.7c0.6,2.6,1.4,5.2,2,7.7c-0.9,0-1.8,0.1-2.7,0.1
		C616.5,322.6,599.6,322.6,582.6,322.6z"/>
	<path class="st7" d="M334.8,322.6c1.5-12,2.4-24,4.1-36c0.9-6.2,1.2-12.5,2.1-18.7c1.4-9.2,1.6-18.6,3.5-27.8
		c1.5-7.2,2.9-14.4,4.2-21.7c0.8-4.5,0.8-9.1,1.3-13.7c0.5-5.4,1-10.7,2.1-16c0.2-0.9,0.3-1.9,0.4-2.8c0.1-1.7,0.7-3.2,2-4.4
		c3-1.1,4.3-0.7,6.2,1.9c1.6,2.2,3.3,4.2,5.6,5.6c1.2,0.7,2.3,1.6,3.3,2.6c4.1,4.3,8.7,8.1,12.7,12.7c2.3,2.6,5,4.9,7.3,7.5
		c1.1,1.3,2.1,2.6,2.9,4c0.4,0.6,0.6,1.2,0.1,1.9c-0.6,1-0.5,2.2-0.5,3.4c0,7.2-0.5,14.5-1.1,21.7c-1,12.5-2,25.1-3.3,37.6
		c-0.6,5.6-0.8,11.3-1.3,16.9c-0.7,7.7-1.2,15.5-2.5,23.1c-0.1,0.7-0.1,1.5-0.2,2.3c-15.4,0-30.8,0-46.2,0
		C336.6,322.6,335.7,322.6,334.8,322.6z"/>
	<path class="st12" d="M574.2,100.2c-0.4,1.3-1.7,2.1-2.4,3.2c-1.7,2.7-3.4,5.3-5.2,8c-2.6,3.9-5.6,7.4-8.3,11.2
		c-3.9,5.5-7.7,11-11.9,16.3c-2.5,3.2-5.1,6.3-7.8,9.3c-6.5,7-13.1,13.9-19.9,20.5c-4.1,4-8.4,8-12.6,11.9c-2.8,2.6-5.7,5.1-8.4,7.7
		c-4.5,4.2-9,8.4-13.6,12.5c-4.1,3.6-8.1,7.3-12.1,11c-5,4.5-10.1,8.9-15,13.5c-3.5,3.2-7,6.3-10.5,9.4c-5.5,4.8-10.7,9.9-16.1,14.8
		c-3.5,3.2-6.8,6.7-10,10.2c-4.2,4.6-8,9.5-11.1,14.9c-0.8,1.4-1.6,2.9-3,3.9c-0.4-0.1-0.8-0.2-0.7-0.7c0-0.1,0.1-0.2,0.1-0.4
		c2.6-4.9,2.9-10.3,4-15.6c2.4-11.8,2.9-23.8,2.8-35.8c0-3.4,0-6.7,0-10c-0.5-0.5-0.7,0.3-1.2,0c-0.1-1.4,1.1-2.5,1.4-3.9
		c0.5-0.2,0.6-0.6,0.9-1c3.7-5.4,7.6-10.6,11.8-15.5c3.4-4,6.8-7.8,10.4-11.6c4.3-4.5,8.8-9,13.1-13.5c4.9-5,9.7-10,14.9-14.7
		c2.5-2.2,4.9-4.4,7.6-6.2c3.2-2,5.7-4.8,8.5-7.3c0.9,0,1.7-0.3,2.4,0.7c0.2,0.3,0.8,0.3,1.2,0.4c6.6,1.7,12.3,0.1,17.2-4.6
		c2.4-2.4,4.3-5.2,6.2-8c3.6-5.5,6.4-11.5,8.4-17.7c1.4-4.3,2.6-8.7,4-13.1c0.4-1.4,1-2.7,1.5-4.1c0.3-0.9,0.9-1.5,1.9-1.7
		c0.9-0.2,1.7-0.5,2.6-0.7c4.8-1.3,9.5-2.9,14-4.9c3.6-1.6,7.4-2.8,11-4.2c1.8-0.7,3.6-0.4,5.4-0.7c2-0.3,3.1,0.4,4.2,2
		c2.5,3.5,5.4,6.6,8.3,9.7c1.1,1.1,2.2,2.1,3.5,2.9C572.5,98.8,573.4,99.4,574.2,100.2z"/>
	<path class="st13" d="M375.3,193.5c-0.8-0.1-1,1-1.7,1.1c-0.2-0.1-0.3-0.3-0.3-0.4c0.7-1.5-0.1-2.4-1.1-3.4
		c-3.3-3-6.8-5.9-10.2-8.9c-1-0.9-2.5-1.3-3.3-2.5c-0.1-0.2-0.6-0.2-0.9-0.2c-2,0.1-3.5-0.9-5.1-2c-1-0.7-2-1.2-3.2-1.5
		c-1.6-0.3-3.1-1.1-4.5-1.9c-1.4-0.8-1.6-1.4-1.2-3c0.8-3.8,2.3-7.2,4.2-10.6c0.5-0.9,1-1.7,1.6-2.6c1.1-1.7,2.1-3.3,2.7-5.2
		c0.4-1.5,1.2-2.8,2.3-3.9c0.4-0.4,0.7-0.9,1-1.4c2.4-5.1,5.7-9.8,8.7-14.5c1.1-1.7,2.2-3.3,3.1-5c0.3-0.5,0.7-1,1-1.6
		c1.3-2.5,2.9-4.8,3.4-7.6c0.6-4,1.7-7.9,2.9-11.8c0.6-1.9,1.4-3.6,1.8-5.6c0,0,0,0,0,0c0.2,0,0.3-0.1,0.3-0.3c0-0.2,0-0.3,0.1-0.5
		c0,0,0,0,0,0c0.2,0,0.3-0.2,0.4-0.4c0,0,0,0,0,0c0.3-0.2,0.4-0.5,0.4-0.8c0,0,0,0,0,0c0.2-0.1,0.3-0.2,0.4-0.4c0,0,0,0,0,0
		c1.1-0.3,1.8-1.3,2.9-1.5c0.2,0,0.4,0,0.6,0c2.1,0.3,4.1,0.7,4.5,3.4c0,0.1,0.2,0.1,0.3,0.2c0.6-0.3,0.9-0.8,1.4-1.3
		c2.2-2.2,4.3-4.5,6.5-6.7c4.2-4.1,8.5-7.9,13.4-11.3c4.5-1.5,9.2-1.3,13.8-1.5c0.8-0.1,1.6,0.1,2.4,0.3c4.2,1.2,8.3,2.6,12,5.2
		c1.3,0.9,2.8,1.4,4.4,1.7c0.5,0.1,1,0.2,1.5,0.3c1.6,0.2,2.4,0.9,2.7,2.7c0.9,4.8,3.1,9.2,5.3,13.6c0.2,0.5,0.5,0.9,0.6,1.4
		c-0.7,0.1-1.1,0.6-1.5,1.1c-0.6,0.6-1.3,1.2-2,1.8c-2.5,2.1-5.1,4.2-7.2,6.7c-2.7,3.3-6,6-9.1,8.9c-3.4,3-6.8,6.1-10.1,9.2
		c-3,2.8-5.9,5.8-8.8,8.7c-1.4,1.4-2.7,2.9-3.9,4.4c-2.5,3-4.9,6.1-7.4,9.2c-3.3,4.1-6.7,8.3-9.7,12.7c-5.4,7.8-10.3,16-14.8,24.4
		C375.3,192.6,375.3,193,375.3,193.5z"/>
	<path class="st14" d="M375.3,193.5c0-0.5,0-1,0.3-1.5c4.5-8.4,9.3-16.6,14.8-24.4c3-4.4,6.4-8.5,9.7-12.7c2.5-3.1,4.9-6.1,7.4-9.2
		c1.2-1.5,2.5-3,3.9-4.4c2.9-3,5.7-6,8.8-8.7c3.4-3.1,6.7-6.2,10.1-9.2c3.2-2.8,6.4-5.5,9.1-8.9c2.1-2.6,4.7-4.6,7.2-6.7
		c0.7-0.6,1.3-1.2,2-1.8c0.5-0.4,0.9-0.9,1.5-1.1c2.8,5.1,5.6,10.1,8.8,14.9c1.9,2.9,3.8,5.7,5.8,8.5c4.1,5.6,8.9,10.5,15.1,13.7
		c-2.7,2.5-5.3,5.2-8.5,7.3c-2.8,1.8-5.2,4-7.6,6.2c-5.2,4.7-10.1,9.7-14.9,14.7c-4.4,4.5-8.8,8.9-13.1,13.5
		c-3.6,3.8-7.1,7.6-10.4,11.6c-4.2,5-8.1,10.2-11.8,15.5c-0.2,0.4-0.4,0.8-0.9,1c0-0.9-0.2-1.8,0.5-2.5c0.3-0.3,0.6-0.7,0.2-1.2
		c-0.4-0.5-1-0.8-1.5-0.4c-1.3,1-2.9,0.7-4.4,1c-2.6,0.4-5.1,1.1-7.1,2.8c-0.9,0.8-2,1.4-3.2,1.5c-1.1,0.1-2,1.2-3,0.9
		c-1-0.3-1.3-1.6-2-2.4c-3.2-3.7-6.5-7.5-9.6-11.3C380.3,197.9,377.8,195.8,375.3,193.5z"/>
	<path class="st8" d="M449,95.1c0.6-0.2,0.9,0.2,1.2,0.4c7.1,4.2,14.8,7,22.8,9.1c2.6,0.7,5.3,0.9,7.9,1c7.2,0.2,14.4,0,21.6-0.1
		c3.8-0.1,7.4-1,11-2.2c0.5-0.2,1.1-0.7,1.6-0.1c0.3,0.4,0,1-0.1,1.5c-0.1,0.2-0.1,0.5-0.2,0.7c-2.2,4.8-3.3,10.1-5.6,14.9
		c-2.6,5.4-5.7,10.5-9.5,15.1c-2.8,3.2-6.3,5.1-10.6,5.2c-3.2,0.1-6.3-0.8-9.1-2.5c-4-2.3-7.3-5.5-10.2-9.1
		c-8-10.3-14.8-21.3-20.3-33.1C449.2,95.7,449.1,95.5,449,95.1z"/>
	<path class="st7" d="M356.6,142.1c0-3,0.5-5.9,0.7-8.9c0.7-9.6,0.2-19.3,0.1-28.9c0-5.1,0.1-10.3,0.6-15.4c0.3-3.4,1.2-6.7,2.1-10
		c0.1-0.5,0.2-1,0.3-1.5c0.4-0.4,1.1-0.8,1.3-1.4c1.2-2.7,3.8-4.4,5.2-6.9c0.1-0.2,0.3-0.4,0.5-0.6c2.2-1.9,4.3-3.8,6.5-5.6
		c2.3-2,5-3,8.1-2.4c0,0,0,0,0,0c1.6,2,1.9,4.3,1.3,6.7c-0.3,1.3-0.6,2.6-1,3.9c-1.9,5.9-5,11.4-7.1,17.3c-0.3,0.8-0.9,1.4-1.9,1.3
		c-0.9-0.1-1.4-0.8-1.6-1.7c-0.3-1.6-0.4-3.1-0.2-4.7c0.5-4,1.4-8,2.9-11.8c0.2-0.5,0.4-0.9,0.4-1.5c0-0.8-0.5-1.1-1.2-1.3
		c-0.6-0.2-1,0.2-1.2,0.7c-0.2,0.3-0.3,0.7-0.5,1c-1,2.5-1.8,5.1-2.4,7.8c-0.7,3.2-0.8,6.4-0.5,9.7c0.3,2.8,1.8,4.3,4.3,4.4
		c2.5,0.1,2.5,0.1,3,2.6c0,0.1,0.1,0.2,0.1,0.4c-2.6,2.7-4.3,5.7-5.2,9.4c-0.9,3.9-2,7.7-2.1,11.8c0,0.4-0.2,0.7-0.3,1.1
		c-3.1,8.1-6.7,15.9-11.3,23.3C357.3,141.3,357.1,141.8,356.6,142.1z M362.5,109.6c0.4-0.8,0.5-1.6,1.1-2.2c0.2-0.2,0.1-0.5-0.1-0.7
		c-0.2-0.3-0.5-0.3-0.8-0.2c-0.5,0.2-0.7,0.5-0.7,1C361.9,108.2,362.1,108.8,362.5,109.6z"/>
	<path class="st8" d="M582.9,199.3c0.1-0.4,0.3-0.7,0.6-1c7.8-7.4,13.6-16.3,19.5-25.1c3.4-5.1,7.1-10,11.5-14.3
		c1.5-1.5,2.8-3.1,4.3-4.6c0.4-0.4,0.8-1,1.5-1.1c2.1,3.5,4.3,7,7,10.2c1,1.2,2,2.3,2.9,3.5c1.3,1.5,1.3,1.5-0.2,2.9
		c-1.8,1.7-3.7,3.5-5.6,5.2c-3.8,3.4-7.6,6.7-11.4,10.1c-5.4,4.8-9.9,10.3-13.8,16.5c-0.4,0.7-0.9,1.4-1.1,2.2
		c-0.3,1.1-1,1.2-1.9,0.9c-1.1-0.4-2.2-0.7-3.2-1.2C589.6,202,586.3,200.5,582.9,199.3z"/>
	<path class="st7" d="M607.5,80.8c0.8,3.3,1.8,6.6,2.3,10c0.5,3.9,0.7,7.8,0.7,11.8c0,6.4-0.1,12.8-0.1,19.2c0,0.4,0.1,0.9-0.3,1.2
		c-2.2-4.9-4.5-9.8-6.9-14.6c-2.1-4-4.7-7.7-7.8-11c-1.4-1.5-1.7-1.6-3.6-0.8c0.1-1.2,1-1.1,1.9-1.1c3.3-0.1,4.6-1.2,5.1-4.4
		c0.1-0.6,0.2-1.3,0.2-1.9c0.2-5.6-1.2-10.9-3.3-16.1c-0.1-0.2-0.2-0.5-0.3-0.7c-0.3-0.6-0.8-0.8-1.5-0.5c-0.6,0.2-1,0.7-0.9,1.3
		c0,0.5,0.3,1,0.4,1.4c0.8,2.1,1.4,4.2,1.9,6.4c0.7,3.1,1.3,6.2,0.9,9.4c-0.2,1.4-0.9,2.3-1.8,2.4c-0.9,0.1-1.5-0.4-2.1-1.9
		c-1.2-3.2-2.6-6.2-3.9-9.3c-1.4-3.3-2.7-6.5-3.7-10c-0.7-2.6-0.7-5,0.5-7.4c0.1-0.1,0.2-0.3,0.4-0.4c2.4-0.8,4.6-0.3,6.7,1
		c1.1,0.7,2.1,1.5,3.1,2.4c1.8,1.6,3.6,3.1,5.4,4.7c0.8,1.4,1.8,2.7,3,3.8c0.5,0.4,0.8,0.9,1.1,1.5
		C605.7,78.7,606.5,79.8,607.5,80.8z"/>
	<path class="st6" d="M376.6,95.3c0-0.1-0.1-0.2-0.1-0.4c-0.4-2.5-0.4-2.5-3-2.6c-2.5-0.1-4.1-1.7-4.3-4.4c-0.3-3.2-0.2-6.5,0.5-9.7
		c0.6-2.7,1.4-5.3,2.4-7.8c0.1-0.4,0.3-0.7,0.5-1c0.3-0.5,0.6-0.9,1.2-0.7c0.6,0.2,1.1,0.6,1.2,1.3c0,0.5-0.2,1-0.4,1.5
		c-1.5,3.8-2.4,7.8-2.9,11.8c-0.2,1.6-0.1,3.2,0.2,4.7c0.2,0.9,0.7,1.5,1.6,1.7c1,0.1,1.6-0.4,1.9-1.3c2.1-5.9,5.1-11.3,7.1-17.3
		c0.4-1.3,0.7-2.6,1-3.9c0.5-2.4,0.2-4.7-1.3-6.7c2.6-0.2,4.9-1.2,7.1-2.3c1.1-0.5,2.1-0.6,3,0.1c0.5,0.4,0.8,0.8,0.1,1.4
		c-1.6-0.6-3.1-0.2-4.7,0.2c-1.4,0.3-1.9,1.1-1.7,2.6c0.5,3.6-0.4,6.9-1.5,10.3c-1.1,3.3-2.6,6.5-4,9.7c-1.6,3.4-2.1,7-1.8,10.8
		c0,0.5,0.1,1,0.7,1.2c0.5,0.2,1,0.1,1.4-0.3c0.3-0.3,0.6-0.7,0.8-1c2-2.9,4-5.9,6-8.8c4.1-6.1,6.8-12.7,6.8-20.3
		c1.1,0,1.4-0.5,1.4-1.5c0-0.9-0.4-1.9,0.4-2.7c0.1,0.8,0.2,1.6,0.3,2.5c0.1,2.1,0.6,4.2,0.2,6.4c-1.2,6.4-3.8,12.2-7.4,17.6
		c-1.4,2.1-2.8,4.2-4.2,6.4c-0.3,0.4-0.5,0.9-0.7,1.4c-0.2,0.5,0,0.9,0.4,1.2c0.4,0.3,0.8,0.3,1.2,0.1c0.4-0.3,0.9-0.5,1.3-0.8
		c5.3-3.5,8.7-8.4,11.1-14.1c1.5-3.7,2.6-7.5,3.9-11.3c0.8-2.2,1.3-4.5,1-6.9c1.3-0.9,0.8-2.1,0.5-3.3c-0.3-1.3-1-2.6-0.9-4
		c0.1-1,0.4-1.7,1.5-1.9c-0.4,3,0.6,5.3,2.8,7.3c0.4,0.4,0.8,0.8,1.2,1.2c2.5,2.9,3.5,6.2,3,10c-0.3,1.9-1.1,3.6-1.5,5.5
		c-1,0.4-2.1,0.8-3.2,0.7c1-2.7,2-5.3,2.5-8.1c0.4-2.3-0.9-4.6-3.1-5.5c-0.5,4.4-2,8.5-3.7,12.5c-1.3,3.1-2.5,6.3-3.7,9.6
		c2-0.3,4.2-2.5,6.9-6.5c0.3,1.3,1.4,0.7,2.2,1c-0.2,0.3-0.3,0.7-0.5,1c-4.8,3.3-9.2,7.2-13.4,11.3c-2.2,2.2-4.3,4.5-6.5,6.7
		c-0.4,0.4-0.8,1-1.4,1.3c-0.1-0.1-0.3-0.1-0.3-0.2c-0.4-2.6-2.4-3.1-4.5-3.4c-0.2,0-0.4,0-0.6,0c-0.2-0.3-0.6-0.2-0.8-0.3
		c-0.2,0-0.3,0.1-0.5,0.1c-0.3,0.1-0.5,0.1-0.8,0.2c0-0.1,0-0.3,0-0.4C378.6,94.9,378.5,94.8,376.6,95.3z"/>
	<path class="st6" d="M585.2,64.4c-1.2,2.4-1.2,4.8-0.5,7.4c0.9,3.4,2.2,6.7,3.7,10c1.4,3.1,2.8,6.1,3.9,9.3c0.5,1.4,1.2,2,2.1,1.9
		c0.9-0.1,1.7-1,1.8-2.4c0.4-3.2-0.2-6.3-0.9-9.4c-0.5-2.2-1.1-4.3-1.9-6.4c-0.2-0.5-0.4-1-0.4-1.4c-0.1-0.6,0.3-1.1,0.9-1.3
		c0.6-0.2,1.1-0.1,1.5,0.5c0.1,0.2,0.2,0.5,0.3,0.7c2.1,5.2,3.5,10.5,3.3,16.1c0,0.6-0.1,1.3-0.2,1.9c-0.5,3.2-1.9,4.3-5.1,4.4
		c-0.9,0-1.7-0.1-1.9,1.1c-0.6,1.1-1.6,1.7-2.3,2.8c-0.4,0.6-1.3,0.7-2.1,0.8c-2.1,0-4.3,0.3-6.4,0.7c-0.8,0.1-1.6,0-2.3-0.5
		c-0.8-0.5-1.5-1.2-2.2-1.8c-3.5-2.9-7.1-5.6-10-9.3c-1.6-2.1-3.5-4-5.2-6c-0.4-0.4-0.7-0.8-0.9-1.4c-0.4-1-1.2-1.6-2.3-1.6
		c-0.4-1.1-0.8-2.3-1.2-3.4c-1.5-5-0.4-9.4,3.3-13.1c0.3-0.3,0.6-0.6,0.9-0.9c2-1.9,2.8-4.2,2.2-6.9c1.8,0.7,2.1,1.9,1.5,3.5
		c-0.4,1.1-0.7,2.2-1.1,3.2c-0.4,1.1-0.2,2,0.8,2.6c-0.4,2-0.2,3.9,0.6,5.8c0.5,1.2,0.9,2.5,1.3,3.8c1.2,3.6,2.4,7.2,4,10.7
		c2.4,5.3,6.1,9.5,11,12.6c0.5,0.3,1.1,0.9,1.7,0.3c0.6-0.5,0.5-1.3,0.2-1.9c-0.2-0.3-0.4-0.7-0.6-1c-1.3-2-2.6-4-4-6
		c-2.6-3.8-4.8-7.9-6.2-12.4c-1-3.2-1.8-6.4-1.3-9.7c0.2-1.5,0.3-3,0.4-4.5c0.6,0.6,0.7,1.3,0.4,2.2c-0.3,1.1,0.1,1.8,1.4,2.4
		c0.2,1.8,0.3,3.7,0.6,5.5c0.9,5,3,9.6,5.8,13.8c2.2,3.3,4.4,6.5,6.6,9.8c0.3,0.4,0.6,0.8,1,1.1c0.9,0.5,1.7,0.1,1.8-0.9
		c0.4-3.1,0.2-6.2-1-9.2c-0.9-2.2-1.9-4.3-2.8-6.5c-2.1-5-4.1-10-3.5-15.6c0.1-1.4-0.4-1.9-1.8-2.3c-1.3-0.3-2.6-0.6-4-0.4
		c-0.4,0-0.8-0.2-0.7-0.7c0.1-0.4,0.4-0.7,0.7-0.8c0.9-0.1,1.9-0.2,2.8,0.2c1.8,0.9,3.5,1.7,5.5,2C584.8,63.8,585.1,64.1,585.2,64.4
		z M569.2,89.8c-2.5-7.7-6.5-14.6-7.6-23c-1.9,1.7-3.6,3.2-3.1,5.8c1,5.2,2.9,10,6.5,14C566.2,87.9,567.5,89.2,569.2,89.8z"/>
	<path class="st7" d="M563.3,56c0.6,2.7-0.3,5-2.2,6.9c-0.3,0.3-0.6,0.6-0.9,0.9c-3.7,3.7-4.8,8.1-3.3,13.1c0.3,1.1,0.8,2.3,1.2,3.4
		c-4.8-0.1-9.4,0.6-13.5,2.7c-0.7-0.4-0.7-1-0.8-1.4c-0.8-3.3-1.8-6.6-3.1-9.8c-1.1-2.7-0.4-4.6,2.1-5.9c5.5-2.9,10.5-6.4,15.1-10.5
		c0.3-0.3,0.7-0.5,1.1-0.8c1.5-0.8,2.4-0.7,3.6,0.5C562.8,55.4,563,55.7,563.3,56z"/>
	<path class="st7" d="M410.1,76.9c0.5-1.8,1.3-3.6,1.5-5.5c0.6-3.8-0.5-7.1-3-10c-0.4-0.4-0.8-0.9-1.2-1.2c-2.2-1.9-3.2-4.3-2.8-7.3
		c1.6-2.7,3.6-2.5,5.7-0.6c3.3,3,6.8,5.7,10.7,8c1.4,0.8,2.8,1.5,4.2,2.3c2.6,1.5,3.3,3.3,2.2,6c-0.9,2.4-1.8,4.8-2.4,7.2
		c-0.2,0.9-0.6,1.3-1.6,1.1C419,76.3,414.5,76.5,410.1,76.9z"/>
	<path class="st7" d="M576.1,62.9c1.3-0.2,2.7,0.1,4,0.4c1.4,0.3,1.9,0.9,1.8,2.3c-0.6,5.6,1.4,10.6,3.5,15.6
		c0.9,2.2,1.9,4.3,2.8,6.5c1.2,2.9,1.4,6,1,9.2c-0.1,1-0.9,1.4-1.8,0.9c-0.5-0.3-0.7-0.7-1-1.1c-2.2-3.3-4.4-6.5-6.6-9.8
		c-2.8-4.2-4.9-8.8-5.8-13.8c-0.3-1.8-0.4-3.7-0.6-5.5c0.4-1,0.6-2.1,1.1-3.1C574.9,63.6,575.3,63.1,576.1,62.9z"/>
	<path class="st7" d="M394.5,64c0,7.5-2.7,14.1-6.8,20.3c-2,3-4,5.9-6,8.8c-0.2,0.4-0.5,0.7-0.8,1c-0.4,0.4-0.9,0.5-1.4,0.3
		c-0.6-0.2-0.7-0.7-0.7-1.2c-0.3-3.7,0.2-7.3,1.8-10.8c1.5-3.2,2.9-6.4,4-9.7c1.1-3.3,2-6.7,1.5-10.3c-0.2-1.4,0.3-2.2,1.7-2.6
		c1.5-0.4,3.1-0.8,4.7-0.2C393.8,60.9,394,62.5,394.5,64z"/>
	<path class="st7" d="M571.6,62.9c-0.1,1.5-0.1,3-0.4,4.5c-0.5,3.4,0.3,6.6,1.3,9.7c1.4,4.5,3.5,8.6,6.2,12.4c1.4,2,2.7,4,4,6
		c0.2,0.3,0.4,0.6,0.6,1c0.3,0.7,0.4,1.4-0.2,1.9c-0.6,0.6-1.2,0-1.7-0.3c-4.9-3.1-8.5-7.4-11-12.6c-1.6-3.5-2.8-7.1-4-10.7
		c-0.4-1.3-0.8-2.5-1.3-3.8c-0.7-1.9-1-3.8-0.6-5.8C566.2,62.1,568.1,61.4,571.6,62.9z"/>
	<path class="st7" d="M403.5,62.1c0.3,2.4-0.2,4.6-1,6.9c-1.3,3.8-2.4,7.6-3.9,11.3c-2.4,5.8-5.9,10.6-11.1,14.1
		c-0.4,0.3-0.8,0.6-1.3,0.8c-0.4,0.2-0.9,0.3-1.2-0.1c-0.3-0.3-0.5-0.7-0.4-1.2c0.2-0.5,0.4-0.9,0.7-1.4c1.4-2.1,2.8-4.3,4.2-6.4
		c3.6-5.4,6.2-11.1,7.4-17.6c0.4-2.2-0.1-4.3-0.2-6.4c0-0.8-0.2-1.6-0.3-2.5C399.4,57.9,401.6,58.6,403.5,62.1z"/>
	<path class="st7" d="M405.8,79.6c-2.6,4-4.9,6.3-6.9,6.5c1.3-3.3,2.4-6.4,3.7-9.6c1.7-4,3.2-8.1,3.7-12.5c2.3,1,3.5,3.3,3.1,5.5
		c-0.5,2.8-1.5,5.5-2.5,8.1c0,0,0,0,0,0c-0.2,0.1-0.3,0.3-0.3,0.5C406.3,78.6,405.7,78.9,405.8,79.6z"/>
	<path class="st6" d="M600.8,72.1c-1.8-1.6-3.6-3.1-5.4-4.7c-1-0.9-2-1.7-3.1-2.4c-2.1-1.3-4.3-1.8-6.7-1c-0.1-1.2,0.8-1.5,1.7-1.5
		c2.7,0,5.1,0.7,7.3,2.2C597.5,66.6,599.7,68.9,600.8,72.1z"/>
	<path class="st6" d="M382.2,60.6c-3.1-0.7-5.8,0.4-8.1,2.4c-2.2,1.8-4.3,3.7-6.5,5.6c-0.1-0.2-0.2-0.4-0.2-0.5
		c2.1-4.5,7.8-9.2,13.4-8.6C381.6,59.5,382.1,59.7,382.2,60.6z"/>
	<path class="st7" d="M407.5,81.5c0.2-0.3,0.3-0.7,0.5-1c0.9-0.6,1.9-0.7,2.9-0.7c3.3-0.2,6.5-0.2,9.8,0c0.2,0,0.5,0.2,0.7,0.2
		C416.7,80.2,412,80,407.5,81.5z"/>
	<path class="st6" d="M406.6,78.1c0-0.2,0.1-0.4,0.3-0.5C406.9,77.9,406.8,78,406.6,78.1z"/>
	<path class="st11" d="M292.9,232.9c-0.6,1.3-0.5,2.7-0.7,4.1c-0.3,2.5-0.3,5.1-0.4,7.6c-0.1,2.5-0.8,3.5-3.2,4.4
		c-3.4,1.2-7,1.8-10.7,1.6c-7.9-0.3-15.4-2.3-22.5-5.8c-0.5-0.2-0.9-0.5-1.3-0.8c-1.7-1.1-2.6-2.7-2.5-4.8c0.1-1.6,0.1-3.3,0.2-4.9
		c0.2-2.3-0.3-4.2-1.8-6c-0.9-1.9-0.8-4-1.1-6c-0.7-6.2-1-12.4-1.2-18.6c-0.1-5.5-0.9-10.9-2.7-16.1c-0.7-2.2-1.3-4.4-1.8-6.6
		c-0.7-3.8-1.9-7.4-2.9-11.1c-0.1-0.4-0.2-0.8-0.4-1.1c-1.3-1.9-0.9-3.8,0.1-5.6c1.7-3.2,3.8-6.1,6.2-8.9c0.5-0.6,1.2-1.2,1.9-1.5
		c0.8-0.4,1.5-0.8,2,0.4c0.4,0.7,1.2,0.7,1.9,0.6c1.5-0.1,2.7,0.4,3.9,1.1c4.5,2.7,8.9,5.7,13,9c2.5,2,4.3,4.4,5.4,7.5
		c0.7,2,0.5,3.9-0.6,5.6c-0.3,0.5-0.7,1.1-1.1,1.5c-2.6,2.9-4.9,6-8.2,8.2c-0.5,0.3-0.9,0.7-1.4,1c-0.9,0.7-1.8,0.7-2.9,0.2
		c-2.4-1.2-4.9-2.5-7.1-4.1c-2.6-1.9-3.9-6-2.9-8.9c0.2-0.5,0.5-0.7,1-0.6c1.7,0.3,3.4,0.6,5.1,0.9c0.7,0.1,1.1,0.6,1.6,1
		c0.7,0.6,1.4,1.3,2.2,1.9c0.5,0.4,1.1,0.7,1.7,0.8c1.2,0.1,1.7-0.5,1.3-1.7c-0.2-0.4-0.4-0.8-0.7-1.1c-2.1-2.1-4.3-4.2-6.6-6
		c-0.1-0.1-0.2-0.2-0.3-0.2c-0.7-0.4-1.3-0.9-2.1-0.3c-0.7,0.5-0.4,1.2-0.2,1.8c-0.6,0.3-1,0-1.4,0c-1.7-0.2-2.3,0.1-3.1,1.6
		c-2.4,4.8-1.5,10.9,3.1,14.1c2.4,1.7,5,3.1,7.6,4.3c1.6,0.8,3.2,0.6,4.7-0.3c1-0.6,2-1.4,2.9-2.2c1.3-1.3,2.8-2.4,4-3.8
		c2-2.3,4-4.6,5.7-7.1c1.4-2,1.7-4.3,1-6.7c-0.4-1.3-0.3-1.3,0.9-1.9c1.2-0.6,2.3-1.2,3.2-2c1.5-1.3,2.3-3,2.4-5
		c0.1-2.7-0.3-5.3-0.5-8c-0.3-3.7-0.7-7.5-1-11.2c-0.2-2.3-0.7-4.5-1.1-6.7c-0.9-5.6-1.2-11.3,1.2-16.7c1.1-2.6,2.4-5,4.1-7.3
		c0.6-0.8,1.3-1.6,2-2.3c2.6-2.3,5.7-1.6,7,1.7c0.7,1.8,0.7,3.6,0.4,5.4c-0.5,2.5-1,5-1.4,7.5c-0.9,6.7,0.5,13,3.9,18.8
		c2.8,4.7,5.3,9.6,7.2,14.7c1,2.7,1.7,5.6,2.2,8.5c0.5,3.3,0,6.6-1.3,9.7c-3.6,8.4-6.6,17.1-8.9,25.9
		C295.6,212.4,293.8,222.6,292.9,232.9z"/>
	<path class="st9" d="M292.4,34.2c2.2,8.2,5.9,15.5,9.4,22.9c3,6.1,7.5,11,12.7,15.3c1.4,1.2,2.8,2.3,4.3,3.6
		c-0.6,0.9-1.5,1.3-2.3,1.7c-8.9,4.7-15.1,17.2-15.4,26.6c-0.2,5.4,0,10.8,0.3,16.2c0.3,4.4-0.6,10.9-2.4,15.6
		c-1.4-4.3-1.7-8.6-0.7-13c0.4-2,0.9-4.1,1.2-6.2c0.4-2.8,0-5.5-1.6-7.9c-2.4-3.6-6.7-4.3-10.1-1.6c-1.4,1.1-2.6,2.5-3.6,3.9
		c-0.3,0.5-0.6,1.1-1.3,1.5c-0.4-1.4,0.2-2.7-0.2-4.1c-0.7,0.3-0.7,1-0.9,1.5c-1.2,3.6-2.1,7.3-2.7,11.1c-0.2,1.4-0.6,2.9-0.8,4.3
		c-0.5,3.9-0.1,7.8,0.6,11.6c0.7,4.3,1,8.7,1.3,13.1c0.2,2,0.6,3.9,0.4,5.9c0,0.2,0.1,0.5-0.3,0.8c-1.2-1.1-2.7-2-4-3
		c-3.2-2.3-6.8-2.9-10.6-3.3c-3.2-0.3-6.5-0.3-9.7-0.3c-0.8,0-1.5-0.1-2.2-0.4c-0.9-0.3-1.2-0.8-0.8-1.7c1-2.4,1.9-4.9,2.8-7.3
		c1.6-4.1,3.3-8.1,4.6-12.3c1.9-6.3,1.9-12.6,1.4-19.1c-0.4-4.4-0.8-8.8-1.2-13.3c-0.4-5.1-0.3-10.2,0.2-15.2
		c0.7-6.8,2.3-13.5,4.9-19.9c4.6-11.2,12-19.8,23-25.1C290,35.5,291.1,34.9,292.4,34.2z"/>
	<path class="st10" d="M296.4,275.4c0,2.8-0.1,5.6-1.2,8.3c-0.5,0.2-0.9,0.3-1.5,0.4c-2.4,0.2-4.8,0.6-7.2,0.9
		c-2.8,0.2-5.5,0.6-8.3,0.6c-4.9,0-9.9,0.2-14.8-0.3c-3.5-0.4-6.9-0.8-10.4-1.1c-2.5-0.3-5-1-7.5-0.8c-2-0.8-2.5-2.4-2.4-4.2
		c0.1-1.6,0.2-3.3,0.3-4.9c1.3-0.9,2.6-1,4.1-0.5c2.3,0.7,4.8,1,7.2,1.2c2.4,0.2,4.9,0.5,7.3,0.7c2.5,2.1,5,4.1,7.4,6.2
		c2.1,1.8,3.6,1.9,6.1,0.7c3.3-1.7,6.2-3.9,8.6-6.7c0.2,0,0.4-0.1,0.6-0.1c1.7,0.1,3.3-0.4,5-0.9C292.1,274.1,294.3,274,296.4,275.4
		z"/>
	<path class="st8" d="M245.5,283.4c2.6-0.2,5,0.5,7.5,0.8c3.5,0.4,6.9,0.8,10.4,1.1c5,0.5,9.9,0.3,14.8,0.3c2.8,0,5.5-0.4,8.3-0.6
		c2.4-0.2,4.8-0.7,7.2-0.9c0.5,0,1-0.2,1.5-0.4c0.2,1.7-0.3,3.1-1.5,4.2c-0.7-0.1-1.3,0-1.9,0.3c-0.8,0.1-1.5,0-2.3,0.2
		c-2.4,0.4-4.9,0.7-7.4,0.7c-8.6,0.1-17.2,0.2-25.8-1c-3.7-0.8-7.1-2.4-10.6-3.8C245.6,284.1,245.5,283.7,245.5,283.4z"/>
	<path class="st9" d="M262,275.6c-2.4-0.3-4.9-0.6-7.3-0.7c-2.4-0.2-4.9-0.4-7.2-1.2c-1.5-0.5-2.8-0.4-4.1,0.5
		c-0.1-0.4-0.2-0.8-0.3-1.2c0.2-2.2,0.4-4.5,0.5-6.7c0.1-0.7,0-1.4,0.3-2c2.9,0.5,5.8,0.9,8.8,1.4c0.9,0.2,1.8,0.2,2.4-0.7
		c0.3,0.3,0.3,0.7,0.4,1c1.2,3.3,3.1,6,5.7,8.2C261.5,274.7,262,275,262,275.6z"/>
	<path class="st11" d="M261,153.7c3.6-0.1,6.9,0.1,10.2,0.9c3.3,0.8,5.8,3.1,8,5.5c0.4,0.5,0.8,1,1.2,1.5c0.9,1.2,0.8,1.7-0.1,2.9
		c-0.9,1-2.1,1.6-3.2,2.4c-0.4,0.3-0.7,0.2-1-0.2c-3.3-5.1-8.5-7.9-13.2-11.4c-0.5-0.4-1.1-0.7-1.6-1.1
		C261.2,154.1,261.2,154,261,153.7z"/>
	<path class="st11" d="M256.8,131.5c0.3,1.4,0,2.4-0.5,3.4c-2.3,4.5-4.6,9.1-6.8,13.6c-0.2,0.4-0.4,0.8-0.9,0.9
		c-0.9,0.3-1.7,0.7-2.9,1.2c0.1-3.6,0.1-7.1,2.4-9.9c2.5-3,5.2-5.7,7.8-8.6C256.1,131.9,256.3,131.8,256.8,131.5z"/>
	<path class="st11" d="M258.7,115.2c0.4,4.6-0.2,9-1.9,13.5c-0.9-1.2-1-2.3-0.8-3.4C256.6,121.9,257.8,118.6,258.7,115.2z"/>
	<path class="st2" d="M689.7,199.4c-3.3-1.9-6.8-3.2-10.5-4.2c-0.9-0.3-1.8-0.6-2.6-1c-2.3-1.2-3.8-3.2-4.2-5.8
		c-1.2-8.7-3-17.2-3.8-26c-0.3-3.2-0.5-6.3-0.5-9.5c0-2.4,0.9-4.2,3.1-5.4c4.5-2.6,8.9-5.3,13.6-7.6c1.5-0.5,3-1.1,4.5-1.6
		c2.5-0.8,5.1-1.2,7.7-1.2c3,0,6,0,9,0.4c1.7,0.2,2.5,0.9,2.5,2.3c0.1,1.6-0.9,2.9-2.5,3.1c-0.8,0.1-1.7,0.1-2.5,0
		c-6.3-0.7-11.8,1.3-16.7,5.1c-2.1,1.6-4.1,3.2-6.2,4.8c-1,0.7-1.3,1.6-1.2,2.8c0.3,3.5,0.6,7,1.1,10.4c0.3,1.9,0.2,3.6-0.6,5.4
		c-1.7,3.8-3.2,7.6-4,11.7c-0.1,0.5-0.2,1-0.2,1.5c0,0.8,0.4,1.2,1.1,1.3c0.8,0.1,1.2-0.2,1.3-1c0.9-4.3,2.5-8.4,4-12.5
		c2.3-6.1,5-11.9,8-17.7c2.2-4.3,5.6-5.6,10.5-4.2c-3,1.9-4.3,5-5.6,8c-2.6,5.8-5.5,11.4-8.9,16.8c-0.5,0.9-1.1,1.7-1.4,2.7
		c-0.5,1.5-0.4,3,0.5,4.4c0.2,0.4,0.5,0.7,0.9,0.9c0.5,0.2,1,0.1,1.4-0.2c0.4-0.3,0.5-0.8,0.2-1.2c-1.3-1.9-0.5-3.6,0.6-5.3
		c3.9-6.2,7.2-12.7,10.1-19.4c1.7-4,3.4-4.8,7.7-3.8c2.4,0.6,4.6,1.6,6.7,2.8c2.5,1.5,5,3,7.5,4.5c2,1.2,4.1,2.3,6.2,3.3
		c0.3,0.1,0.6,0.3,0.9,0.4c0.6,0.3,0.9,0.7,0.8,1.4c0,0.7-0.5,1-1.1,1.2c-2.1,0.7-4.1,0.7-6.2-0.1c-4.2-1.7-8.5-3.3-12.9-4.6
		c-0.7-0.2-1.2-0.6-1.9-0.9c-1-0.4-1.4-0.2-1.6,0.8c-0.2,0.9-0.3,1.8-0.4,2.6c-0.3,2-0.7,4-1.9,5.5c-1.8,2.5-0.7,5.5,0.9,7.3
		c1.5,1.7,3.1,3.2,5,4.4c7.3,4.5,15.1,7.7,23.6,9.2c2.6,0.4,5.1,0,7.5-0.6c1.3-0.3,1.3-0.3,1.7,1c1,3.2,1.5,6.4,2,9.7
		c0.2,1.4,0.3,2.9,0.8,4.3c0,0.4-0.1,0.8,0,1.1c0.3,4,0.6,8,0.9,12c0.1,1.5-0.3,2.5-1.8,3.2c-3.6,1.7-7.1,3.3-10.9,4.6
		c-3.7,1.2-7.4,2.2-11.3,2.5c-1.9,0.2-2.4-0.3-2.7-2.1c-0.2-1,0-2-0.3-3c-0.1-2.5-0.2-4.9-0.4-7.4c0-0.8,0.3-1.3,0.9-1.8
		c1-1,0.9-1.4-0.3-2.1c-0.3-0.2-0.7-0.3-1-0.5c-7.4-3.4-14.8-6.9-22.3-10.3c-0.3-0.2-0.7-0.3-1.1-0.4
		C692.3,200.5,691.1,199.8,689.7,199.4L689.7,199.4z"/>
	<path class="st15" d="M706.4,134.9c3.6-7,8.4-12.9,13.5-18.6c2.4-2.6,5.3-4.3,8.3-5.9c0.8-0.4,1.5-0.5,2.4-0.1
		c8,3,16,6.2,23.3,10.9c0.2,0.1,0.5,0.2,0.6,0.7c-4.6,1.8-8.3,5-11.8,8.6c0.5,0.8,1.1-0.2,1.6,0.2c-0.1,0.1-0.1,0.3-0.2,0.4
		c-3.8,4-7.7,8-10.8,12.6c-1.3,1.9-2.6,3.9-3.5,6.1c-0.6,1.4-0.6,1.4-2.1,1.1c-4.1-0.8-8.1-1.5-12.2-2.3c-1.7-0.3-3.4-0.3-5.1-0.5
		c-2.8-0.3-5.7-0.5-8.6-0.5c-2.3,0-4.7,0-7,0c-1.5,0-2.7,0.9-3.6,2c-1.3,1.6-2.5,3.3-3.6,5.1c-1.4,2.3-2.7,4.7-4.1,7.1
		c-0.2,0.3-0.3,0.6-0.7,0.6c-0.9-1.5-1-3.2-0.8-4.9c0.3-1.9,1-3.8,2.4-5.3c1.8-1.8,3.8-3.2,6.1-4.4c1.3-0.6,2.6-1.2,4-1.8
		c3-1.3,6-0.9,9-0.5c1.6,0.2,3,0.1,4.5-0.5c1.6-0.6,2.4-1.8,2.6-3.5c0.4-2.9,0.2-4.9-3.7-6.3C706.8,135.1,706.6,135,706.4,134.9z
		 M735.7,122.8c-0.9,0-1.2,0.5-1.5,0.8c-5.2,4.4-9.4,9.6-13,15.3c-0.6,0.9-1,1.9-1.3,2.9c-0.1,0.5-0.3,1-0.3,1.5
		c0,0.6,0,1.3,0.8,1.5c0.7,0.2,1-0.4,1.2-1c1.9-3.9,4.5-7.4,7-10.8c1.3-1.7,2.6-3.3,3.8-5C733.6,126.4,734.8,124.8,735.7,122.8z
		 M732.4,117.5c-1.3,0.4-2.4,1.3-3.4,2c-3.6,2.7-6.8,5.9-9.4,9.6c-0.7,1-1.3,2.2-1.5,3.4c-0.1,0.6-0.3,1.2,0.5,1.5
		c0.6,0.2,0.9-0.4,1.1-0.8c0.7-1.2,1.4-2.4,2.4-3.4c1.8-2,3.6-3.9,5.4-5.9C729.2,122,731,120,732.4,117.5z M748.2,123.2
		c-0.6-0.6-1-0.3-1.4-0.1c-1.5,0.7-2.8,1.5-4,2.6c-5.3,4.5-9.6,9.8-13.7,15.3c-0.1,0.1-0.1,0.2,0.2,0.4c1.2-1.3,2.4-2.5,3.6-3.8
		c1.2-1.3,2.4-2.6,3.6-3.9c1.2-1.2,2.3-2.5,3.6-3.7c1.3-1.2,2.6-2.4,3.9-3.6C745.3,125.1,747,124.5,748.2,123.2z"/>
	<path class="st15" d="M674.9,142.2c-0.8,0.7-1.7,1.2-2.6,1.5c-1.3,0.5-2.4,1.4-3.5,2.2c-2,1.6-2.7,3.8-2.6,6.3
		c0,2.6,0.3,5.2,0.5,7.8c0.3,3,0.4,5.9,1,8.9c0.1,0.5-0.1,1-0.2,1.5c-0.1,1-0.8,0.5-1.3,0.5c-2.3-1-4-2.6-5.3-4.7
		c-1-1.7-1.6-3.5-1.9-5.3c-0.7-3.5-1.3-7.1-2-10.6c0.9-3.6,0.4-7.1-1-10.5c-0.3-0.8-1-0.8-1.4-1.3c0.7-2.3,0.6-4.8,1.2-7.1
		c2.3-9,6.8-16.6,14.1-22.5c3.1-2.5,6.3-4.8,10.1-6.1c0.6-0.2,1.1-0.7,1.6,0.2c0.2,0.4,0.7,0.1,1-0.1c1-0.5,1.9-0.9,2.9-1.3
		c4.6-2.1,10.7-2.2,15.4,0.1c-0.2,0.1-0.4,0.2-0.5,0.3c-3.3,1.5-5.9,3.8-8.3,6.5c-1.9,2.2-3.9,4.4-5.8,6.5c-4.1,4.5-6.8,9.8-9,15.4
		c-1,2.5-2,5.1-2.5,7.8C674.5,139.6,674.2,140.9,674.9,142.2z M685.2,106.2c-2-0.1-3.7,0.6-5.3,1.5c-8.3,4.3-13.9,11.1-17.5,19.6
		c-2.7,6.2-3.5,12.8-2.6,19.6c0.1,0.7,0.2,1.7,1.2,1.7c0.9-0.1,0.7-1.1,0.7-1.7c0.1-3.1,0.3-6.2,0.7-9.3c1.4-9.3,5.7-17.1,12.6-23.5
		c2.3-2.1,4.8-3.7,7.4-5.3C683.4,108,684.5,107.3,685.2,106.2z M684.7,112.8c-1,0.4-1.5,0.9-1.9,1.3c-4.1,3.8-7.5,8.1-10.6,12.7
		c-1.1,1.6-2,3.4-2.8,5.2c-0.9,2-1.6,4.1-1.8,6.4c-0.1,0.9-0.1,1.8,0.2,2.6c0.1,0.4,0.2,0.8,0.7,0.8c0.5,0,0.5-0.5,0.7-0.8
		c0.1-0.2,0.1-0.4,0.1-0.6c0.7-5.2,3.1-9.8,5.9-14.1c2-3,4.1-5.8,6.3-8.6C682.5,116.2,683.5,114.7,684.7,112.8z"/>
	<path class="st3" d="M731.8,151.7c1.2-0.3,1.6-1,1.9-1.8c3.1-6.9,7.9-12.4,13.6-17.2c3.4-2.9,7.5-4.1,11.9-4.6
		c0.8-0.1,1.8-0.6,2.4,0c0.6,0.5,0.8,1.5,1.1,2.4c2.6,6.5,3.3,13.3,3,20.2c-0.1,1.8-0.6,3.5-1.2,5.2c-1.1,3.2-2,6.4-3.4,9.5
		c-1.6,3.7-3.8,7.2-6.6,10.2c-2.3,2.4-4.6,4.7-7,7c-1.4,1.3-2.8,2.4-4.8,2.7c-1.8,0.3-3.3,1.8-5.2,2.2c-1.6,0.4-3.2,1-5,0.6
		c-0.9-0.2-1.5-0.6-1.8-1.4c-0.7-1.7-1.3-3.5-1.6-5.3c-0.4-2-0.8-4-1.3-5.9c-0.5-1.6-0.6-3.4-0.9-5c-0.1-0.5,0.2-0.6,0.6-0.8
		c0.6-0.4,1.1-0.8,1.7-1.2c1.6-1.2,2-3,0.4-4.9c-0.2-0.3-0.5-0.6-0.7-0.9c-0.1-0.2-0.3-0.6-0.2-0.7c1-1.1,0.7-3,2.3-3.8
		c0.6-0.3,1.2-0.7,1.7-1.2c1.5-1.5,1.6-2.8,0.1-4.4C732.5,152.3,732.3,152.1,731.8,151.7z M761.7,144.8c0.1-2.3-0.4-4.9-1.7-7.3
		c-1.9-3.7-4.4-4.2-7.5-1.5c-4.9,4.3-9.3,9-12.3,14.9c-2.7,5.2-5,10.6-6.6,16.2c-0.9,3.2-1.7,6.4-1.4,9.7c0.1,1.3,0.3,2.6,1,3.8
		c0.7,1.3,1.8,2.1,3.4,2.1c1.4,0,2.6-0.4,3.8-1c2.9-1.4,5.5-3.3,7.4-5.8c4.9-6.2,9.1-12.9,11.8-20.3
		C760.7,152.3,761.6,148.8,761.7,144.8z"/>
	<path class="st14" d="M680.9,139.5c-1.6,0.1-2.7,1.2-4,1.8c0.3-2.1,1.2-4,1.8-6c1.8-5.5,4.9-10.2,8.9-14.4c1.7-1.7,3.2-3.5,4.7-5.4
		c0.2-0.3,0.6-0.5,0.4-1c-0.6,0-0.9,0.5-1.4,0.7c-0.1-0.1-0.2-0.3-0.4-0.4c1.8-2.3,3.8-4.5,6-6.6c2.5-2.5,5.6-3.5,8.8-4.7
		c0.6-0.2,1.1-0.1,1.7,0.1c1,0.3,2,0.6,3.1,0.9c0,0.1,0,0.3,0,0.4c-0.3,0-0.5,0-0.8,0c-3.6,0-4.9,0.8-6.4,3.9
		c-0.2,0.5-0.1,0.9,0.3,1.2c0.5,0.4,1.1,0.7,1.6,1c2.6,1.5,5.5,2.4,8.2,3.8c0.4,0.2,0.7,0,1-0.2c2.9-1.9,3-6.1,0.2-8.1
		c0-0.5,0.4-0.4,0.7-0.5c3.4,0.9,6.9,1.4,10.5,2.8c-4.1,1.3-6.8,3.8-9.2,6.7c-1.4,1.7-2.9,3.3-4.4,5c-2.9,3.2-5.2,6.8-7.1,10.6
		c-0.4,0.9-1,1.8-0.9,2.9c0,0.7-0.3,0.8-0.9,0.8c-1.3,0-2.5,0-3.8,0c0-0.7,0.4-0.6,0.7-0.8c1.5-0.7,2.1-1.9,2.2-3.5
		c0.1-3.5-1.9-6.3-5.3-7.2c-1.8-0.5-3.6-0.7-5.5-0.4c-2.3,0.4-3.2,1.9-2.8,4.2c0.6,4.1,3.9,5.3,6.9,6.8c0.5,0.3,1.2,0.4,1.7,0.6
		c-2.7,0.2-5.4,0.5-8,1.3c-0.7-0.3,0-1.2-0.8-1.4c-0.8-0.2-1.3,0.3-1.8,0.8c-0.5,0.5-0.9,1-1.2,1.7c-0.2,0.4-0.5,0.7-1,0.9
		c-0.8,0.2-1.4-0.3-1.2-1.1c0.4-1.5,1.1-2.8,2-4.1c0.6-0.8,1.3-1.6,1.3-2.7c-1.2-0.3-2.3,0.2-3.2,0.9c-2.1,1.6-3.1,3.8-3.6,6.3
		C679.8,138,680.7,138.6,680.9,139.5z M704.4,123.6c2.7,0.1,4.3-0.7,5.2-2.4c0.9-1.7,0.6-3.3-0.6-4.8c-2.1-2.7-4.8-4.4-8.1-5.1
		c-3-0.6-5.1,0.9-5.7,3.9c-0.2,0.8,0.2,1.7,0,2.4c-0.3,1.1,0.2,1.9,1,2.5C698.9,122.2,701.9,123.2,704.4,123.6z"/>
	<path class="st8" d="M749.7,256.6c-3.5,1.7-6.8,3.6-10.4,5.1c-6.1,2.5-12.3,4.3-18.9,5c-3,0.3-5.9,0.3-8.9,0.3c-1,0-2-0.2-3,0.1
		c-1.6-1.4-1.5-3.3-1.4-5.2c0-1,0.3-2,0.4-3c1,0,2,0.3,3,0.4c4.3,0.4,8.6,0.6,12.9,0.4c0.5,0,1-0.1,1.5-0.2c3-0.5,5.9-1.4,8.8-2.5
		c5.5-2.2,10.6-5.1,14.9-9.3c1-1,2-1.7,3.3-2.1c0.1,2.3,0.1,4.5,0.2,6.8C752.2,254.3,751,255.5,749.7,256.6z"/>
	<path class="st10" d="M751.9,245.5c-1.3,0.4-2.4,1.2-3.3,2.1c-4.3,4.2-9.3,7.1-14.9,9.3c-2.8,1.1-5.7,2-8.8,2.5
		c-0.5,0.1-1,0.2-1.5,0.2c-4.3,0.2-8.6-0.1-12.9-0.4c-1-0.1-2-0.4-3-0.4c-0.2-0.6-0.3-1.2-0.2-1.8c0.2-1.4,0.3-2.8,0.5-4.2
		c1.1,0,2.1,0,3.2,0.2c4,0.8,8.1,1.3,12.2,0.6c4.7-0.9,9.3-2.1,13.6-4.1c3.2-1.5,6.1-3.5,8.9-5.8c1.7-1.4,3.4-2.9,5.6-3.5
		c0.1,0.3,0.2,0.5,0.4,0.8C752,242.5,752.3,244,751.9,245.5z"/>
	<path class="st6" d="M751.6,241c-0.1-0.3-0.2-0.5-0.4-0.8c0.4-4.2,0.6-8.5-0.2-12.7c-0.1-1.4-0.2-2.7-0.3-4.1
		c0.1-1.4,0.4-2.8-0.8-4.1c-1,1.4-2.1,2.6-3.5,3.4c-5.1,2.7-10.2,5.2-15.7,6.8c-3.9,1.1-7.9,2-12,2.1c-2.4,0.1-5,0.3-7.2-1.1
		c-1.4-0.9-2.2-0.7-2.7,0.9c-0.5,1.7-0.9,3.4-0.7,5.2c-0.1,1.8-0.1,3.6,0,5.4c-0.2,1.6-0.2,3.3-0.2,4.9c-0.5,0.9-0.1,1.9-0.5,2.7
		c-0.6-0.4-0.6-1.1-0.6-1.7c0-4.8,0-9.6,0-14.4c0-1.4,0.5-2.6,1.3-3.7c1.4-2,3.1-3.4,5.6-3.8c0.6-0.1,1.1-0.3,1.1-0.8
		c-0.1-1.6,1-1.5,2-1.4c0.2,0,0.4,0,0.6,0c0.3,1,0.1,2,0.3,3c0.4,1.8,0.8,2.2,2.7,2.1c3.9-0.3,7.6-1.3,11.3-2.5
		c3.7-1.3,7.3-2.9,10.9-4.6c1.4-0.7,1.9-1.6,1.8-3.2c-0.4-4-0.6-8-0.9-12c0-0.4,0-0.8,0-1.1c0.8,0,1.2,0.3,1.2,1.1
		c0,1.2,0.1,2.4,0,3.6c-0.1,1.7,0.5,3.1,1.1,4.6c0.2,0.6,0.6,1,1,1.3c0.7,0.6,1-0.2,1.5-0.4c1.2-0.5,1.8-0.4,2.5,0.8
		c0.8,1.2,1.3,2.5,1.2,4.1c-0.3,3.9,0.4,7.7,1,11.5c0.4,2.4,0.1,4.9,0.1,7.4C753.1,240.4,752.5,240.9,751.6,241z"/>
	<path class="st15" d="M724.8,170.5c0,3.7,0,7.3,1.3,10.9c0.2,0.6,0,0.8-0.6,0.9c-2.7,0.5-5.1,0.1-7.5-1.3c-1.5-0.9-3.1-1.7-4.8-2.3
		c-1.6-0.6-2.9-1.7-4.5-2.5c-0.9-0.4-1.7-1-2.7-1.4c-1.1-0.4-1.7-1.3-1.5-2.4c0.3-1.7,0.7-3.5,1.5-5.1c0.3-0.6,0.7-1.2,1.4-1.6
		c1.2-0.5,2.4-0.1,3.5,0.4C715.3,168.4,719.9,169.9,724.8,170.5z"/>
	<path class="st2" d="M705.5,150.4c4.4-0.5,8.7,0.1,13,1.1c3.5,0.8,7,1.8,10.6,2.2c0.7,0.1,1.4,0.3,1.6,1.1c0.2,0.8-0.3,1.3-1,1.6
		c-1.5,0.8-3,1.4-4.6,1.8c-2.2,0.4-4.3,0.1-6.2-1.2c-1-0.6-1.9-1.3-2.9-1.9C712.8,153.1,709.3,151.4,705.5,150.4z"/>
	<path class="st14" d="M693.4,125c1.3,0,2.5,0.3,3.6,0.9c1.5,0.9,2.1,2.3,2,4c0,0.6-0.3,0.9-0.9,0.9c-0.9,0-1.6-0.2-2.4-0.5
		c-1.6-0.7-3-1.6-4.4-2.7c-0.5-0.3-1-0.7-0.7-1.4c0.2-0.6,0.7-1.1,1.4-1.1C692.5,125,692.9,125,693.4,125z"/>
	<path class="st8" d="M724.8,170.5c-4.9-0.6-9.5-2.1-13.9-4.3c-1.1-0.6-2.2-0.9-3.5-0.4c0.8-0.9,1.8-0.7,2.8-0.4
		c1.9,0.5,3.7,1.3,5.5,2.1c2.6,1.2,5.2,2.3,8.1,2.6C724.1,170,724.7,169.8,724.8,170.5z"/>
	<path class="st7" d="M728.2,186.8c-2-0.3-3.7-1-5.5-1.7c1.1-1.1,2.5-1,3.7-1.2c0.4-0.1,0.7,0.3,0.8,0.7
		C727.5,185.3,727.9,186,728.2,186.8z"/>
	<path class="st3" d="M751.4,126.1c2.2-1.6,4.7-2.4,6.9-2.2c-1.3,0.5-2.3,0.9-3.3,1.3C753.9,125.8,752.7,125.6,751.4,126.1z"/>
	<path class="st5" d="M710.4,104.8c0-0.1,0-0.3,0-0.4c1.7,0.3,3.3,0.8,4.9,1.4c-0.3,0.1-0.7,0-0.7,0.5
		C713.4,105.5,711.8,105.5,710.4,104.8z"/>
	<path class="st11" d="M690.9,114.8c0.1,0.1,0.2,0.3,0.4,0.4c-0.6,0.7-1.4,1.2-2.3,1.5C689.6,116,690.3,115.4,690.9,114.8z"/>
	<path class="st3" d="M741.7,190.4c0,0.2,0,0.4-0.3,0.4c-0.3,0-0.5-0.2-0.5-0.5c0-0.2,0.1-0.4,0.3-0.4
		C741.5,190,741.6,190.2,741.7,190.4z"/>
	<path class="st13" d="M807.9,129.2c-2.9-3.3-5.7-6.5-8.5-9.7c-5.8-6.6-11.1-13.6-15.5-21.2c-3.1-5.5-6.2-11-8-17
		c-2.5-8-2.7-16.1-0.6-24.2c0.5-1.8,1.2-3.5,2.1-5.1c3-5.2,8.7-7.2,14.3-5.2c4.1,1.4,7.5,4,10.8,6.7c5.2,4.4,9,9.8,12.1,15.8
		c0.6,1.1,1.2,2.2,1.9,3.3c0.5,0.7,1.2,1.2,2.1,0.9c0.9-0.2,1.3-0.9,1.4-1.8c0.6-7.3,4.9-12.4,10.1-16.8c5.9-5.1,12.8-8.4,20.6-9.7
		c4.1-0.7,8.2-0.8,12.3,0.2c8.4,2.1,14.5,9.3,15.4,17.9c0.4,4.1-0.1,8-1,11.9c-1.7,7.7-4,15.1-7.1,22.3c-3,7.1-7.5,13.2-12.6,18.9
		c-5.2,5.8-10.8,11.1-17.5,15.3c-1.5,0.9-3,1.7-4.4,2.6c-0.7,0.4-1.2,0.5-1.7-0.4c-1.6-2.6-3.3-5-5.8-6.7c-1-2.3-3.2-3.4-5.1-4.7
		c-2-1.5-4.6-1.8-7.1-0.8c-2.5,1.1-4.4,2.9-6.2,5C809.3,127.5,808.7,128.3,807.9,129.2z"/>
	<path class="st2" d="M834.9,220c-0.8,2.2-1,4.6-1.2,6.9c-0.1,1,0,2-0.3,3c-0.5,1.9-1.6,3.3-3.3,4.2c-1.3,0.6-2.5,1.1-3.8,1.7
		c-1.7,0.7-3.3,0.5-4.8-0.7c-1.8-1.5-3.2-1.3-4.7,0.6c-1.2,1.7-2.7,2.2-4.7,1.6c-1.1-0.3-2.2-0.6-3.3-1c-2.2-0.9-2.8-1.6-2.7-4
		c0.1-2.5,0.4-4.9,0.6-7.4c0.4-5.1,0.3-10.1-1.1-15.1c-1.3-4.6-2.7-9.1-4.2-13.6c-1.4-4.2-2-8.5-2.5-12.9c-0.5-4.5-2.1-8.6-4.6-12.4
		c0-0.1-0.1-0.2-0.1-0.4c-0.3-1.4-0.6-2.7-0.8-4.1c-0.4-2.2,0.4-4,2.1-5.4c1.1-0.8,2.2-1.5,3.4-2c5.2-2.5,10.4-5,15.7-7.4
		c5.6-2.6,11.3-4.9,17.2-6.7c1.7-0.5,3.4-0.9,5.3-0.7c1.5,0.1,2.6,0.9,3,2.3c0.9,3.3,0.4,6.5-1,9.6c-0.2,0.4-0.5,0.7-0.8,1
		c-1.9,2-3.5,2.2-5.8,0.6c-1-0.7-2-1-3-0.3c-2.5,1.7-5.5,2-8.3,2.4c-7,1.1-14.1,2.2-20.9,4.1c-0.6,0.2-1.1,0.2-1.6,0.6
		c-0.4,0.3-0.6,0.8-0.5,1.4c0.1,0.6,0.6,0.8,1.1,0.8c0.8,0,1.5-0.1,2.3-0.3c6.6-1.7,13.2-3.1,20-4c4.3-0.6,8.7-0.8,13.1-1.5
		c2.9-0.4,5.8-0.6,8.7,0.1c1,0.8,1.1,2,1.1,3.1c0,2.6-0.2,5.2-1.4,7.6c-5-0.1-10,0-15,0.5c-6.5,0.6-12.8,1.7-19.2,2.9
		c-2.1,0.4-4,1.1-5.5,2.8c-1.7,2-2,4.6-2.6,7.1c-0.2,0.8,0.5,1.2,1.2,1.4c0.8,0.2,1.2-0.2,1.4-0.9c0.1-0.4,0.2-0.7,0.2-1.1
		c0.6-4.3,2.3-6.2,6.6-7c7.9-1.5,15.8-2.5,23.8-2.9c2.9-0.2,5.8-0.1,8.8-0.1c1.9,0,2.5,0.7,2.5,2.6c0,1-0.1,2-0.2,3
		c-1.5,2.7-1.8,5.7-2.4,8.7c-0.2,1.1-0.5,2.1-0.9,3.1c-0.8,1.9-2.3,3.1-4.1,4c-1.3-0.5-2.7-0.5-4.1-0.5c-0.9,0-1.9,0.1-2.8-0.2
		c-1.5-0.5-2.4-2.2-2.2-4c0.1-1.5,0.8-2.2,2.7-2.3c2.1-0.2,4.1-1,6-1.7c1-0.3,1.3-0.8,1.1-1.6c-0.3-0.8-0.8-1.1-1.8-0.8
		c-1.2,0.3-2.3,0.7-3.4,1.1c-1.2,0.4-2.3,0.6-3.5,0.1c-1.5-0.6-1.7-0.5-2.5,0.9c-2,3.5-1.6,7,1.3,9.9c1.7,1.7,2.8,3.7,3.3,6.1
		c0.3,1.4,0.3,2.8,0.3,4.2c0,1.5-0.1,2.9-0.1,4.4c0,1.1,0.8,1.6,1.8,1.2c0.6-0.3,0.8-0.8,0.8-1.4c0.2-1.5,0.3-2.9,0.4-4.4
		c0.1-2.3-0.4-4.4-1.4-6.5c-1-2.2-0.5-3.1,1.9-3.1c0.8,0,1.5-0.1,2.2-0.5c0.7,0.6,1.4,0.2,2.2,0.2c2.5,0,2.9,0.4,2.1,2.7
		c-1.2,4.1-2.9,7.9-4.5,11.9c-1,2.5-2.1,4.9-2.3,7.6C835,219.3,835,219.6,834.9,220z"/>
	<path class="st2" d="M802.3,148.3c1.6-1.8,2.1-4.1,3.4-6.1c2.4-3.5,4.7-7.1,7-10.7c1.1-1.8,2.5-3.3,4-4.8c1.8-1.9,2.9-2.1,5.3-1
		c1.7,0.8,3.2,1.8,4.5,3.2c2.7,2.9,5.1,6.2,7.3,9.5c0.2,0.9,1,1.6,1.1,2.5c-0.4,0.4-0.8,0.4-1.3,0.6c-2.5,0.8-4.9,1.6-7.4,2.4
		c-2.3,0.7-3.9-0.6-3.9-3c0-1,0.3-2,0.5-3c0.1-0.5,0.3-1,0.4-1.5c0.1-0.7-0.1-1.3-0.8-1.5c-0.8-0.2-1.2,0.2-1.5,0.9
		c0,0.1-0.1,0.2-0.1,0.4c-0.8,3.5-2.3,6.7-3.5,10c-0.4,1.1-1,1.8-2.1,2.2c-5,2.3-10,4.7-15,7c-0.4,0.2-0.7,0.5-1.3,0.3
		C799.9,153.3,801.1,150.8,802.3,148.3z"/>
	<path class="st5" d="M802.3,148.3c-1.2,2.5-2.4,5-3.6,7.5c0.6,0.2,1-0.1,1.3-0.3c5-2.3,10-4.7,15-7c1.1-0.5,1.7-1.1,2.1-2.2
		c1.2-3.3,2.7-6.6,3.5-10c0-0.1,0.1-0.2,0.1-0.4c0.2-0.7,0.7-1,1.5-0.9c0.8,0.2,1,0.8,0.8,1.5c-0.1,0.5-0.2,1-0.4,1.5
		c-0.3,1-0.5,2-0.5,3c0,2.4,1.5,3.7,3.9,3c2.5-0.7,5-1.6,7.4-2.4c0.4-0.1,0.9-0.2,1.3-0.6c-0.1-0.9-0.9-1.6-1.1-2.5
		c0.9-0.2,1.5,0.2,2,1c0.7,1.4,1.7,2.4,3.1,3.2c2.2,1.2,3.2,3.6,2.8,6.1c-0.1,0.4-0.1,0.9,0,1.3c0.6,2.1,0.2,4.1-0.5,6.1
		c-0.5,1.6-0.4,2.4,1.1,3.3c0.5,0.3,1.2,0.6,1.1,1.4c-2.9-0.6-5.8-0.5-8.7-0.1c-4.3,0.7-8.7,0.9-13.1,1.5c-6.7,0.9-13.4,2.3-20,4
		c-0.7,0.2-1.5,0.3-2.3,0.3c-0.6,0-1-0.2-1.1-0.8c-0.1-0.5,0-1,0.5-1.4c0.5-0.4,1-0.5,1.6-0.6c6.9-1.9,13.9-3,20.9-4.1
		c2.9-0.5,5.8-0.8,8.3-2.4c1-0.7,2.1-0.3,3,0.3c2.3,1.6,3.9,1.4,5.8-0.6c0.3-0.3,0.6-0.7,0.8-1c1.4-3.1,1.9-6.3,1-9.6
		c-0.4-1.4-1.5-2.2-3-2.3c-1.8-0.2-3.5,0.2-5.3,0.7c-5.9,1.8-11.6,4.1-17.2,6.7c-5.2,2.4-10.4,5-15.7,7.4c-1.2,0.6-2.4,1.2-3.4,2
		c-1.8,1.4-2.5,3.2-2.1,5.4c0.2,1.4,0.6,2.7,0.8,4.1c-0.8-0.1-1.3-0.6-1.6-1.2c-0.9-1.7-1.5-3.6-1-5.6c0.1-0.5,0.4-0.9,0.7-1.3
		c2.6-2.8,4.5-6,5.9-9.6c0.6-1.4,1.2-2.8,2.5-3.8C801.2,148.6,801.7,148.2,802.3,148.3z"/>
	<path class="st5" d="M844.9,179.9c0.1-1,0.2-2,0.2-3c0-1.9-0.6-2.6-2.5-2.6c-2.9-0.1-5.9-0.1-8.8,0.1c-8,0.4-15.9,1.4-23.8,2.9
		c-4.2,0.8-6,2.7-6.6,7c-0.1,0.4-0.1,0.8-0.2,1.1c-0.2,0.7-0.7,1.1-1.4,0.9c-0.8-0.2-1.4-0.6-1.2-1.4c0.6-2.5,0.9-5,2.6-7.1
		c1.4-1.7,3.4-2.4,5.5-2.8c6.4-1.2,12.7-2.3,19.2-2.9c5-0.5,10-0.6,15-0.5c-0.1,1,0.4,1.6,1.4,1.9c1.6,0.5,1.9,1,2,2.7
		C846.4,177.6,846.3,179,844.9,179.9z"/>
	<path class="st5" d="M837.5,196.4c-0.7,0.4-1.4,0.5-2.2,0.5c-2.4,0.1-3,0.9-1.9,3.1c1,2.1,1.5,4.2,1.4,6.5
		c-0.1,1.5-0.2,2.9-0.4,4.4c-0.1,0.6-0.2,1.1-0.8,1.4c-1,0.4-1.8-0.1-1.8-1.2c0-1.5,0.1-2.9,0.1-4.4c0-1.4,0-2.8-0.3-4.2
		c-0.5-2.4-1.7-4.3-3.3-6.1c-2.9-3-3.3-6.4-1.3-9.9c0.8-1.4,1-1.5,2.5-0.9c1.2,0.5,2.4,0.3,3.5-0.1c1.1-0.4,2.3-0.8,3.4-1.1
		c1-0.3,1.5,0,1.8,0.8c0.3,0.8,0,1.3-1.1,1.6c-2,0.6-3.9,1.5-6,1.7c-1.9,0.2-2.6,0.9-2.7,2.3c-0.2,1.9,0.7,3.5,2.2,4
		c0.9,0.3,1.9,0.3,2.8,0.2c1.4,0,2.8,0,4.1,0.5C837.5,195.9,837.5,196.2,837.5,196.4z"/>
	<path class="st7" d="M376.5,101c-0.3,1.9-1.2,3.7-1.8,5.6c-1.2,3.9-2.4,7.7-2.9,11.8c-0.4,2.8-2.1,5.1-3.4,7.6
		c-0.3,0.6-0.7,1.1-1,1.6c1.1-3.5,2.4-6.9,3.6-10.4c1-2.9,1.5-5.9,2.5-8.7c0.5-1.6,0.9-3.1,1.5-4.7
		C375.2,102.7,375.5,101.7,376.5,101z"/>
	<path class="st3" d="M380,96.9c0.2,0.2,0.6,0,0.8,0.3c-1.1,0.2-1.9,1.2-2.9,1.5c0.1-0.6,0.5-1.1,0.8-1.6c0.3-0.1,0.5-0.1,0.8-0.2
		C379.7,97.1,379.9,97,380,96.9z"/>
	<path class="st3" d="M377.6,99.1c0,0.3-0.1,0.6-0.4,0.8C377.2,99.5,377.3,99.3,377.6,99.1z"/>
	<path class="st3" d="M378,98.7c-0.1,0.2-0.2,0.4-0.4,0.4C377.6,98.9,377.7,98.8,378,98.7z"/>
	<path class="st11" d="M377.2,99.8c0,0.2-0.1,0.4-0.4,0.4C376.9,100,377,99.9,377.2,99.8z"/>
	<path class="st11" d="M376.8,100.2c0,0.2,0,0.3-0.1,0.5c-0.1,0-0.1,0-0.2-0.1C376.5,100.4,376.7,100.3,376.8,100.2z"/>
	<path class="st7" d="M376.6,100.6c0.1,0,0.1,0.1,0.2,0.1c0,0.2-0.2,0.3-0.3,0.3C376.5,100.9,376.5,100.8,376.6,100.6z"/>
	<path class="st2" d="M832.9,239.7c0,4.3-1.6,7.9-4.3,10.9c-2.7,2.9-5.9,5.2-9.1,7.5c-0.7,0.5-1.5,0.7-2.3,0.3
		c-2.4-1.2-4.4-0.1-5.8,2.1c-1.7,2.6-4.2,3.3-7.1,3.2c-1.3-0.1-1.7-0.5-1.5-1.8c0.7-6.2,1.5-12.3,2.2-18.5c0.2-1.4,0.3-2.9,0.6-4.3
		c0.2-1.1,0.7-1.4,1.6-0.9c1.9,1.1,3.9,1.5,6,1.8c1.1,0.2,2,0.8,2.4,1.9c0.6,1.6,1.9,2.3,3.6,2.3c1.7,0,3.1-0.6,3.9-2.2
		c0.7-1.5,1.9-2.5,3.4-3.2c1.6-0.8,3.4-1.4,5-2.3c0.7-0.4,1.2-0.2,1.3,0.7C832.7,238,833,238.9,832.9,239.7z"/>
	<path class="st7" d="M815.1,260.5c0.8,0,1.4,0.3,1.8,0.9c0.5,0.8,0.8,1.7,0.7,2.7c-0.1,1.5-1.1,2.1-2.5,1.6
		c-1.6-0.5-2.5-2.8-1.6-4.3C813.8,260.8,814.4,260.5,815.1,260.5z"/>
	<path class="st11" d="M838.6,228c0-1.1,0.2-2.1,0.9-3c0.5-0.6,1-0.8,1.5-0.1c1,1.1,1.2,2.5,1,3.9c-0.1,0.8-1.5,1.6-2.4,1.6
		c-0.5-0.1-0.8-0.4-0.9-0.8C838.6,229,838.6,228.5,838.6,228z"/>
	<path class="st7" d="M837.2,248.1c0,0.9-0.3,1.7-0.8,2.5c-0.6,0.8-1.8,1.1-2.5,0.7c-1-0.6-0.7-1.4-0.4-2.2c0.3-0.8,0.6-1.7,1.3-2.2
		c0.6-0.4,1.2-0.7,1.9-0.3C837.3,246.9,837.1,247.5,837.2,248.1z"/>
	<path class="st7" d="M817.7,239.7c0.1-1.7,0.8-2.6,2.1-2.6c1.1,0,1.7,0.8,1.7,2c0,1.4-1.1,2.4-2.6,2.3
		C817.9,241.3,817.6,241,817.7,239.7z"/>
	<path class="st11" d="M800.9,230.6c0,1.1-0.9,2.2-1.9,2.2c-0.7,0-1.1-0.5-1.1-1.5c0-1.4,0.8-2.6,1.7-2.5
		C800.4,228.9,800.9,229.6,800.9,230.6z"/>
	<path class="st7" d="M799.7,265.3c0,1-0.5,1.7-1.2,1.6c-0.9-0.1-1.5-1-1.5-2.3c0-0.8,0.3-1.2,1.1-1.2
		C799.1,263.3,799.7,264.1,799.7,265.3z"/>
	<path class="st9" d="M751.1,227.5c0.8,4.2,0.6,8.5,0.2,12.7c-2.2,0.6-3.9,2.1-5.6,3.5c-2.7,2.3-5.6,4.3-8.9,5.8
		c-4.3,2-8.9,3.2-13.6,4.1c-4.2,0.8-8.2,0.2-12.2-0.6c-1.1-0.2-2.1-0.2-3.2-0.2c-0.1-1-0.1-2-0.2-3.1c0.4-0.9,0-1.9,0.5-2.7
		c1.1,0.9,2.4,1.3,3.9,1.2c3.3-0.1,6.6,0,9.9-0.3c4.6-0.5,9-1.6,13.1-3.6c4.9-2.3,9.1-5.8,13.6-8.7c1.5-1,2.3-2.7,2.3-4.6
		c0-1.1,0-2.3,0-3.4C750.9,227.6,751,227.6,751.1,227.5z"/>
	<path class="st5" d="M689.8,199.5c1.3,0.3,2.5,1,3.6,1.8c-0.3,0-0.6,0-0.9,0.1C690.2,201.9,690.1,201.8,689.8,199.5z"/>
	<path class="st2" d="M655,150.5c-1.5,4.1-1.8,8.4-1,12.7c0.2,1.3,0.5,2.6,0.5,4c0.1,1.1,0.6,1.8,1.4,2.3c2.9,1.9,6,3.4,9.5,4
		c1.8,0.3,2.3,0.8,2.5,2.5c0.3,2.1,0.6,4.3,0.8,6.4c0.2,1.8-0.3,2.2-1.9,1.5c-5.6-2.3-11.4-4.3-16.8-7c-1.5-0.8-2.5-1.9-3-3.5
		c-0.9-2.9-1.5-5.8-1.8-8.7c-0.2-2.2-0.5-4.4-0.4-6.6c0-1.2,0.2-2.3,0.8-3.3c2.1-3.7,3.7-7.7,5.3-11.6c0.2-0.5,0.4-0.9,0.6-1.4
		c0.4-0.7,0.9-1.3,1.8-1.2c0.9,0.1,1.3,0.7,1.6,1.5c0.5,1.9,0.7,3.7,0.5,5.7c-0.1,0.8-0.1,1.6-0.2,2.5
		C655,150.3,655,150.4,655,150.5z"/>
	<path class="st4" d="M655,150.5c-0.1-0.1,0-0.2,0-0.3c0.6-0.1,1.3-0.5,1.9,0c0.6,3.5,1.3,7.1,2,10.6c0.4,1.9,1,3.7,1.9,5.3
		c1.2,2.1,3,3.7,5.3,4.7c0.2,1.2-0.7,2.1-1.9,1.8c-0.7-0.1-1.3-0.4-1.9-0.7c-2.2-1.1-3.9-2.7-5.3-4.7c-0.4-0.6-0.7-1.2,0-1.8
		c0.5-0.9-0.2-1.6-0.5-2.3C655.1,159,654.9,154.8,655,150.5z"/>
	<path class="st8" d="M656.5,163.1c0.3,0.8,1,1.4,0.5,2.3C656.5,164.7,656.3,163.9,656.5,163.1z"/>
	<path class="st14" d="M244.5,255.1c-0.1-3.1,0.3-6.2,1-9.2c0.7,0.2,1.3,0.3,2,0.5c1.6,0.5,3.2,0.9,4.9,0.2c1.9,0.8,3.7,1.6,5.6,2.3
		c6.9,2.7,14,4.4,21.5,4.3c6.5,0,12.2-2,16.8-6.8c0.2-0.2,0.4-0.3,0.8-0.7c0.6,5,1,9.7,0.4,14.5c-0.3-0.9-0.1-1.8-0.2-2.6
		c-0.1-1.6-0.5-2-2-1.7c-0.9,0.2-1.9,0.3-2.8,0.3c-1.7,0-3.4,0.5-5,0.8c-0.5,0.1-0.8,0.4-1,0.8c-1.2-0.8-2.5-1.3-3.8-1.7
		c-2.2-0.7-4.3-0.3-6.1,1c-0.3,0.2-0.5,0.4-0.8,0.6c-1.6,1.1-3.2,1.1-4.8,0.1c-0.9-0.6-1.7-1.2-2.6-1.6c-3.2-1.8-6.4-1.7-9.6,0.2
		c-0.5,0.3-1.1,0.7-1.6,1C253.3,255.8,248.9,255.6,244.5,255.1z"/>
	<path class="st12" d="M244.5,255.1c4.4,0.5,8.8,0.6,12.9,2.3c-1.4,2.3-2.6,4.7-2.4,7.5c-0.6,0.9-1.4,0.9-2.4,0.7
		c-2.9-0.5-5.8-1-8.8-1.4C243.9,261.2,243.8,258.1,244.5,255.1z"/>
	<path class="st9" d="M296.4,275.4c-2.1-1.5-4.3-1.3-6.6-0.7c-1.6,0.5-3.2,1-5,0.9c0.1-0.2,0.1-0.4,0.2-0.7c2-1.7,3.5-3.7,4.4-6.2
		c0.3-0.9,0.6-1.8,1-2.6c0.2-0.1,0.5-0.1,0.7-0.2c2.1-0.4,4.1-1.5,6.4-1.3c0.2,2.8-0.5,5.6-0.2,8.4
		C296.8,273.8,296.8,274.7,296.4,275.4z"/>
	<path class="st12" d="M297.4,264.7c-2.3-0.2-4.3,0.9-6.4,1.3c-0.2,0-0.5,0.1-0.7,0.2c0.2-2.7-0.8-4.9-2.6-6.9
		c-0.4-0.4-0.7-0.9-1-1.3c0.2-0.4,0.5-0.8,1-0.8c1.7-0.3,3.3-0.9,5-0.8c0.9,0,1.9,0,2.8-0.3c1.5-0.4,1.9,0.1,2,1.7
		c0,0.9-0.1,1.8,0.2,2.6C297.5,261.7,297.5,263.2,297.4,264.7z"/>
	<path class="st13" d="M252.4,246.6c-1.7,0.7-3.3,0.3-4.9-0.2c-0.7-0.2-1.3-0.3-2-0.5c-0.2-2.2,0.6-4.2,1.3-6.6
		c0.9,2.4,2.6,3.8,4.1,5.3C251.5,245.3,252,245.9,252.4,246.6z"/>
	<path class="st7" d="M237.2,259.7c0-0.3,0-0.6,0-0.9c0.2-1.4,0.8-1.9,2.2-1.8c1.3,0.1,2,0.7,2.1,2c0,0.8-0.1,1.6-0.2,2.5
		c0,0.9-0.3,1.6-1.3,1.8c-1.1,0.2-1.9-0.2-2.4-1.1C237.4,261.6,237.2,260.6,237.2,259.7z"/>
	<path class="st7" d="M301.6,263.6c1.1,0,1.8,0.5,2.2,1.5c0.5,1.4,0.1,2.7-0.6,3.8c-0.6,1-2.5,0.7-3-0.5c-0.6-1.3-0.4-2.8,0-4.1
		C300.4,263.7,301,263.5,301.6,263.6z"/>
	<path class="st5" d="M495.2,242.7c-0.1,0.3-0.2,0.5-0.5,0.4c-0.3,0-0.6-0.2-0.4-0.6c0.1-0.3,0.3-0.4,0.6-0.3
		C495.1,242.3,495.1,242.5,495.2,242.7z"/>
	<path class="st4" d="M256.3,288.2c8.6,1.1,17.2,1.1,25.8,1c2.5,0,4.9-0.3,7.4-0.7c0.7-0.1,1.5-0.1,2.3-0.2
		c-0.9,1.7-2.6,2.3-4.3,2.3c-6.8,0.1-13.6,0.2-20.4-0.1c-2.6-0.1-5.2,0-7.7-0.7C258.2,289.5,256.8,289.5,256.3,288.2z"/>
	<path class="st5" d="M362.5,109.6c-0.5-0.7-0.6-1.4-0.6-2.1c0-0.5,0.2-0.9,0.7-1c0.3-0.1,0.6-0.1,0.8,0.2c0.2,0.2,0.3,0.5,0.1,0.7
		C363,107.9,362.9,108.8,362.5,109.6z"/>
	<path class="st4" d="M380,96.9c-0.1,0.2-0.3,0.2-0.5,0.1C379.7,97,379.9,96.9,380,96.9z"/>
	<path class="st7" d="M569.2,89.8c-1.7-0.7-3-2-4.2-3.3c-3.6-4-5.5-8.8-6.5-14c-0.5-2.6,1.2-4.1,3.1-5.8
		C562.7,75.2,566.7,82.2,569.2,89.8z"/>
	<path class="st5" d="M262,275.6c-0.1-0.6-0.5-1-0.8-1.4c1.1-0.1,2.1,0.2,3.1,0.4c1,0.5,1.8,1.1,2.5,2c0.7,0.8,1.6,1.5,2.3,2.2
		c1.8,1.9,3.8,1.9,6.1,0.8c1.2-0.6,2.4-1.5,3.7-1.9c0.9,0.1,1.7,0,2.2-0.7c0.7-1,1.7-1.3,2.8-1.2l0.1,0.1c-2.4,2.9-5.3,5-8.6,6.7
		c-2.5,1.3-4,1.1-6.1-0.7C267,279.8,264.5,277.7,262,275.6z"/>
	<path class="st5" d="M284.9,275c-0.1,0.2-0.1,0.4-0.2,0.7c-0.2,0-0.4,0.1-0.6,0.1c0,0-0.1-0.1-0.1-0.1
		C284.1,275.2,284.4,274.9,284.9,275z"/>
	<path class="st6" d="M284.9,275c-0.5,0-0.8,0.2-0.9,0.7c-1.1-0.1-2.1,0.2-2.8,1.2c-0.6,0.8-1.3,0.9-2.2,0.7c0.6-1.3,1.8-2.1,2.8-3
		c2.4-2.4,4.7-4.8,5.5-8.3c0.4-1.5,0.3-3-0.7-4.2c-3.4-3.9-6.6-4.8-10.3-1c-0.1,0.1-0.2,0.2-0.3,0.3c-2.4,2.4-2.6,2.5-4.9,0
		c-1.7-1.8-3.6-3-6-3.5c-3.2-0.7-5.9,0.8-6.9,3.8c-0.5,1.5-0.5,3.1,0.2,4.6c0.9,1.9,2,3.7,3.5,5.1c0.9,0.9,1.9,1.7,2.3,3
		c-1-0.1-2.1-0.5-3.1-0.4c-2.7-2.2-4.6-4.9-5.7-8.2c-0.1-0.3-0.1-0.7-0.4-1c-0.2-2.8,1-5.2,2.4-7.5c0.5-0.3,1.1-0.7,1.6-1
		c3.1-1.9,6.4-2,9.6-0.2c0.9,0.5,1.7,1.1,2.6,1.6c1.6,1,3.2,1.1,4.8-0.1c0.3-0.2,0.5-0.4,0.8-0.6c1.9-1.4,3.9-1.7,6.1-1
		c1.3,0.4,2.6,0.9,3.8,1.7c0.3,0.4,0.7,0.9,1,1.3c1.7,2,2.7,4.2,2.6,6.9c-0.3,0.9-0.6,1.8-1,2.6C288.5,271.3,286.9,273.3,284.9,275z
		"/>
	<path class="st4" d="M735.7,122.8c-0.9,2-2.2,3.6-3.3,5.3c-1.2,1.7-2.6,3.3-3.8,5c-2.6,3.5-5.2,6.9-7,10.8c-0.2,0.5-0.5,1.1-1.2,1
		c-0.8-0.2-0.8-0.9-0.8-1.5c0-0.5,0.1-1,0.3-1.5c0.3-1,0.8-2,1.3-2.9c3.6-5.8,7.8-11,13-15.3C734.6,123.2,734.9,122.8,735.7,122.8z"
		/>
	<path class="st4" d="M732.4,117.5c-1.3,2.4-3.1,4.5-5,6.4c-1.8,1.9-3.6,3.9-5.4,5.9c-0.9,1-1.7,2.2-2.4,3.4c-0.2,0.4-0.5,1-1.1,0.8
		c-0.7-0.2-0.5-0.9-0.5-1.5c0.2-1.3,0.8-2.4,1.5-3.4c2.6-3.7,5.8-6.8,9.4-9.6C730,118.8,731,118,732.4,117.5z"/>
	<path class="st5" d="M748.2,123.2c-1.2,1.3-2.9,1.9-4.2,3.1c-1.3,1.2-2.7,2.4-3.9,3.6c-1.2,1.2-2.4,2.4-3.6,3.7
		c-1.2,1.3-2.4,2.6-3.6,3.9c-1.2,1.3-2.4,2.6-3.6,3.8c-0.3-0.2-0.3-0.3-0.2-0.4c4.1-5.5,8.4-10.8,13.7-15.3c1.2-1,2.5-1.9,4-2.6
		C747.2,122.9,747.6,122.6,748.2,123.2z"/>
	<path class="st4" d="M685.2,106.2c-0.7,1.1-1.8,1.8-2.8,2.5c-2.6,1.6-5.1,3.3-7.4,5.3c-7,6.4-11.2,14.2-12.6,23.5
		c-0.5,3.1-0.7,6.2-0.7,9.3c0,0.6,0.2,1.6-0.7,1.7c-1,0.1-1.1-0.9-1.2-1.7c-0.9-6.8,0-13.3,2.6-19.6c3.6-8.5,9.2-15.3,17.5-19.6
		C681.5,106.8,683.2,106.1,685.2,106.2z"/>
	<path class="st4" d="M684.7,112.8c-1.1,1.9-2.2,3.4-3.3,4.8c-2.2,2.8-4.3,5.6-6.3,8.6c-2.9,4.3-5.2,8.9-5.9,14.1
		c0,0.2-0.1,0.4-0.1,0.6c-0.1,0.3-0.2,0.8-0.7,0.8c-0.5,0-0.6-0.4-0.7-0.8c-0.2-0.9-0.2-1.8-0.2-2.6c0.2-2.2,0.9-4.3,1.8-6.4
		c0.8-1.8,1.7-3.5,2.8-5.2c3.1-4.6,6.5-8.9,10.6-12.7C683.2,113.6,683.6,113.1,684.7,112.8z"/>
	<path class="st4" d="M761.7,144.8c0,4.1-1,7.5-2.2,10.9c-2.7,7.5-6.9,14.1-11.8,20.3c-2,2.6-4.5,4.4-7.4,5.8c-1.2,0.6-2.5,1-3.8,1
		c-1.6,0-2.7-0.8-3.4-2.1c-0.6-1.2-0.9-2.5-1-3.8c-0.2-3.4,0.5-6.6,1.4-9.7c1.6-5.6,3.9-11,6.6-16.2c3.1-5.8,7.4-10.6,12.3-14.9
		c3.1-2.7,5.6-2.2,7.5,1.5C761.2,139.9,761.8,142.5,761.7,144.8z M759.6,144.4c-0.2-2-0.4-4.1-1.4-6c-1.3-2.7-2.4-2.9-4.7-1.1
		c-3.8,3.1-7.1,6.8-9.7,10.9c-3.7,5.9-6.2,12.2-8.1,18.8c-0.9,3.2-1.6,6.4-1.3,9.8c0.3,3.7,1.6,4.6,5.1,3.2c2.6-1.1,4.6-3,6.4-5.1
		c4.8-5.7,8.5-12.2,11.2-19.2C758.4,152.2,759.3,148.4,759.6,144.4z"/>
	<path class="st4" d="M704.4,123.6c-2.5-0.3-5.5-1.4-8.2-3.4c-0.8-0.6-1.2-1.3-1-2.5c0.2-0.8-0.2-1.6,0-2.4c0.6-3,2.7-4.6,5.7-3.9
		c3.3,0.7,6,2.4,8.1,5.1c1.1,1.5,1.5,3.1,0.6,4.8C708.7,122.9,707.2,123.7,704.4,123.6z M704.4,120.8c1.4,0.1,2.2-0.1,2.7-0.9
		c0.4-0.7,0.3-1.3-0.1-2c-1.7-2.4-4-3.8-6.8-4.4c-1-0.2-1.7,0.3-2.2,1.1c-0.6,1-0.8,2.1-0.5,3.3c0,0.2,0.2,0.3,0.4,0.4
		C700.1,119.6,702.4,120.4,704.4,120.8z"/>
	<path class="st4" d="M710.4,104.8c1.3,0.6,2.9,0.6,4.2,1.5c2.8,2,2.7,6.3-0.2,8.1c-0.3,0.2-0.7,0.4-1,0.2c-2.6-1.4-5.5-2.3-8.2-3.8
		c-0.6-0.3-1.1-0.6-1.6-1c-0.4-0.3-0.5-0.7-0.3-1.2c1.5-3.1,2.8-3.9,6.4-3.9C709.9,104.8,710.2,104.8,710.4,104.8z M713.3,112.6
		c0.6-0.7,0.6-1.5,0.7-2.3c0-0.5-0.1-1-0.5-1.4c-1.5-1.4-5.5-1.6-7.4-0.4C708.5,109.8,711.2,110.5,713.3,112.6z"/>
	<path class="st14" d="M708.3,242.1c-0.1-1.8-0.1-3.6,0-5.4c1.7-0.7,3.4-0.4,5.1-0.2c3.7,0.4,7.5,0.5,11.2-0.1
		c6.9-1.2,13-4.1,18.7-8.1c1.9-1.3,3.5-2.9,5.5-4.1c0.7-0.4,1.3-0.9,2.1-0.8c0.1,1.4,0.2,2.7,0.3,4.1c-0.1,0-0.2,0.1-0.3,0.2
		c-1.7,1.2-3,2.7-4.5,4c-5.9,5-12.7,8.2-20,10.4c-1.3,0.4-2.6,0.3-3.9,0.6c-2,0.4-3.9,0.3-5.9,0.1
		C713.8,242.5,711,242.2,708.3,242.1z"/>
	<path class="st12" d="M708.3,242.1c2.8,0.1,5.5,0.4,8.3,0.7c1.9,0.2,3.9,0.3,5.9-0.1c1.3-0.3,2.6-0.2,3.9-0.6
		c7.3-2.2,14.1-5.4,20-10.4c1.5-1.3,2.8-2.9,4.5-4c0,1.1,0,2.3,0,3.4c0,1.9-0.8,3.6-2.3,4.6c-4.6,2.8-8.8,6.3-13.6,8.7
		c-4.1,2-8.5,3.1-13.1,3.6c-3.3,0.3-6.6,0.1-9.9,0.3c-1.5,0.1-2.8-0.3-3.9-1.2C708,245.4,708,243.8,708.3,242.1z"/>
	<path class="st13" d="M750.8,223.4c-0.8-0.1-1.4,0.4-2.1,0.8c-2,1.2-3.7,2.7-5.5,4.1c-5.6,4-11.8,6.9-18.7,8.1
		c-3.7,0.6-7.4,0.5-11.2,0.1c-1.7-0.2-3.4-0.4-5.1,0.2c-0.3-1.8,0.1-3.5,0.7-5.2c0.5-1.6,1.3-1.8,2.7-0.9c2.2,1.4,4.8,1.2,7.2,1.1
		c4.1-0.1,8-1,12-2.1c5.5-1.6,10.6-4.1,15.7-6.8c1.5-0.8,2.5-2,3.5-3.4C751.1,220.7,750.8,222.1,750.8,223.4z"/>
	<path class="st13" d="M264.4,274.5c-0.4-1.2-1.4-2.1-2.3-3c-1.5-1.5-2.6-3.2-3.5-5.1c-0.7-1.5-0.7-3.1-0.2-4.6
		c1-3.1,3.7-4.6,6.9-3.8c2.4,0.5,4.3,1.7,6,3.5c2.3,2.5,2.6,2.5,4.9,0c0.1-0.1,0.2-0.2,0.3-0.3c3.6-3.8,6.9-2.9,10.3,1
		c1,1.2,1.1,2.6,0.7,4.2c-0.8,3.4-3,5.9-5.5,8.3c-1,1-2.2,1.7-2.8,3c-1.4,0.4-2.5,1.3-3.7,1.9c-2.2,1.2-4.2,1.1-6.1-0.8
		c-0.7-0.8-1.6-1.4-2.3-2.2C266.2,275.7,265.4,275,264.4,274.5z"/>
	<path class="st3" d="M759.6,144.4c-0.3,4-1.1,7.7-2.5,11.4c-2.6,7-6.3,13.5-11.2,19.2c-1.8,2.1-3.7,4-6.4,5.1
		c-3.5,1.4-4.8,0.6-5.1-3.2c-0.3-3.4,0.4-6.6,1.3-9.8c1.9-6.6,4.5-13,8.1-18.8c2.6-4.2,5.9-7.8,9.7-10.9c2.3-1.9,3.3-1.6,4.7,1.1
		C759.2,140.3,759.4,142.4,759.6,144.4z M737.6,172.5c0,2.8,1.6,3.7,3.8,2.4c0.4-0.3,0.8-0.6,1.2-0.9c1.6-1.4,3-2.9,4.2-4.7
		c3.8-5.7,6.4-12,8.2-18.6c0.4-1.6,0.7-3.2,0.2-4.9c-0.4-1.4-1.2-2-2.5-1.9c-0.7,0.1-1.3,0.4-1.9,0.8c-1.5,1.1-2.6,2.5-3.6,3.9
		c-4.4,6.5-7.5,13.5-9.2,21.2C737.8,170.9,737.7,171.8,737.6,172.5z"/>
	<path class="st14" d="M704.4,120.8c-2-0.4-4.4-1.2-6.5-2.5c-0.2-0.1-0.4-0.2-0.4-0.4c-0.3-1.2-0.1-2.2,0.5-3.3
		c0.5-0.9,1.2-1.3,2.2-1.1c2.8,0.6,5.2,2,6.8,4.4c0.4,0.6,0.5,1.3,0.1,2C706.6,120.7,705.8,120.9,704.4,120.8z"/>
	<path class="st14" d="M713.3,112.6c-2.1-2.1-4.8-2.8-7.2-4.1c1.9-1.2,5.9-0.9,7.4,0.4c0.4,0.4,0.6,0.8,0.5,1.4
		C713.9,111.1,713.9,111.9,713.3,112.6z"/>
	<path class="st4" d="M737.6,172.5c0.1-0.7,0.2-1.6,0.4-2.6c1.6-7.7,4.7-14.7,9.2-21.2c1-1.5,2.1-2.9,3.6-3.9
		c0.6-0.4,1.2-0.8,1.9-0.8c1.3-0.1,2.1,0.5,2.5,1.9c0.5,1.7,0.3,3.3-0.2,4.9c-1.8,6.6-4.3,12.9-8.2,18.6c-1.2,1.7-2.6,3.3-4.2,4.7
		c-0.4,0.3-0.8,0.7-1.2,0.9C739.2,176.2,737.6,175.3,737.6,172.5z M753.2,148.1c0-0.5,0-0.7,0-0.9c0-0.4,0.1-1-0.3-1.2
		c-0.6-0.3-1,0.1-1.3,0.4c-1.2,0.9-2.1,2.1-2.9,3.3c-1.9,2.9-3.6,6-5.1,9.1c-1.9,4-3.3,8.2-4,12.7c-0.1,0.6-0.4,1.5,0.2,1.9
		c0.7,0.4,1.2-0.4,1.8-0.8c1.8-1.3,2.8-3.3,3.9-5.1c3.2-5.2,5.3-10.8,7.2-16.6C753,150,753.3,148.9,753.2,148.1z"/>
	<path class="st3" d="M753.2,148.1c0,0.8-0.2,1.9-0.5,2.9c-1.9,5.8-4,11.4-7.2,16.6c-1.1,1.8-2.1,3.8-3.9,5.1
		c-0.5,0.4-1.1,1.2-1.8,0.8c-0.7-0.4-0.4-1.3-0.2-1.9c0.7-4.4,2.1-8.6,4-12.7c1.5-3.2,3.2-6.2,5.1-9.1c0.8-1.2,1.7-2.4,2.9-3.3
		c0.4-0.3,0.8-0.8,1.3-0.4c0.4,0.3,0.3,0.8,0.3,1.2C753.2,147.4,753.2,147.6,753.2,148.1z M744.8,160.2c0,0.9,0,1.5,0.7,1.9
		c0.4,0.3,0.9,0.2,1.2-0.1c1.6-1.6,2.4-3.5,2.7-5.7c0.1-0.9-1-1-1.4-1.7c-0.1-0.2-0.7,0.4-1,0.7C745.7,156.7,745,158.5,744.8,160.2z
		"/>
	<path class="st4" d="M744.8,160.2c0.2-1.7,0.9-3.4,2.2-4.9c0.3-0.3,0.9-0.9,1-0.7c0.4,0.7,1.5,0.7,1.4,1.7
		c-0.3,2.2-1.1,4.1-2.7,5.7c-0.3,0.3-0.8,0.4-1.2,0.1C744.9,161.7,744.8,161.1,744.8,160.2z"/>
</g>
</svg>
