<svg id="Layer_1" data-name="Layer 1" xmlns="http://www.w3.org/2000/svg" viewBox="0 0 1366 479"><defs><style>.cls-1{fill:#edc3b1;}.cls-2{fill:#f5e7dd;}.cls-3{fill:#d09c8d;}.cls-4{fill:#84b9dd;}.cls-5{fill:#233032;}.cls-6{fill:#322d2b;}.cls-7{fill:#6c7ccd;}.cls-8{fill:#3f261f;}.cls-9{fill:#a8c287;}.cls-10{fill:#ebc2b0;}.cls-11{fill:#f2e5dc;}.cls-12{fill:#f0d7bf;}.cls-13{fill:#fca165;}.cls-14{fill:#fbd379;}.cls-15{fill:#e75d54;}.cls-16{fill:#04979e;}</style></defs><path class="cls-1" d="M1052.52,478.41H992.78c-.7-1.21-.26-2.49-.2-3.74,1-20.86,2.22-41.71,3.13-62.57,1.09-25.32,2-50.65,2.87-76,.1-2.78.74-3.72,3.71-3.46,6.34.54,12.69,1.31,19.07,1,7.69-.36,15.11-1.8,22-5.49,1.59.25,1.47,1.47,1.5,2.62,0,2,.07,4.07.18,6.11,1.74,30.64,3.56,61.27,5.21,91.91C1051.11,445.34,1052.43,461.85,1052.52,478.41Z"/><path class="cls-2" d="M892.44,478.41h-59c.5-5.45,1.08-10.89,1.49-16.35,1.75-23.23,3.54-46.46,5.15-69.69,1.14-16.51,2-33.05,3-49.57,1-1.5-1.31-4.64,2.64-4.73a90.3,90.3,0,0,0,40.56-10.76c2.85-1.51,3-.53,3,2,.29,20.25.53,40.51,1.13,60.75.38,12.84.11,25.71,1.23,38.53a135,135,0,0,0,.32,16.09c0,.88-.11,1.76-.09,2.64C892.06,457.71,892.93,468.05,892.44,478.41Z"/><path class="cls-3" d="M665,478.41H600.61q1-20.25,2.08-40.49,1.08-21.59,2.08-43.17c.1-2.1.16-3.35,3-2.39C624.33,398,641.37,398,658.46,396c3.19-.38,3.64.48,3.7,3.2.33,14.91.7,29.83,1.24,44.74.29,8,1,16,1.45,24,0,.9,0,1.79,0,2.69-.07.09-.2.21-.18.29a3.85,3.85,0,0,0,.24.61h0C665,473.81,665,476.11,665,478.41Z"/><path class="cls-2" d="M501,478.41H449c.07-1,.08-2,.24-3,5.28-32,9.29-64.24,13.52-96.42.33-2.51,0-5.31,1.56-7.37,1.36-1.77,3.9,0,5.76-.9.33-.17.79-.08,1.12-.24,2.25-1.08,3.83-.69,5.47,1.44a5,5,0,0,0,6.12,1.78c2.31-.9,4-2.82,3.51-4.87-1.2-4.65,1.94-6.15,4.74-8.23,2.14-1.58,4-3.48,6.14-5.11.92-.71,1.56-2.19,3.2-1.57C499.09,395.4,500.14,436.9,501,478.41Z"/><path class="cls-4" d="M298.83,478.41H281.21c.27-1.75.55-3.5.79-5.26q1.86-13.69,3.7-27.4c2.36-.58,4.25-2.05,6.33-3.18,2.73-1.48,4.61-4.27,8-4.77a18.88,18.88,0,0,0,12.1-7.51c4.08-5.68,10.14-8.23,15-12.54,2.15-1.92,4.81-1.07,7.12-2.23,2.7-1.36,4.64-3.47,6.93-5.22,3.14-2.39,8.07-2.94,8.6-8.15.09-.92,1.1-1,1.85-1a4.41,4.41,0,0,0,3.56-1.95,10.45,10.45,0,0,1,5.79-3.4l.85,2.18q-.91,18.39-1.82,36.79c-.76.81-.94,1.94-2.06,2.63-4.64,2.87-9,6.24-13.52,9.23C328.91,456.84,314.17,468.06,298.83,478.41Z"/><path class="cls-5" d="M988.18,478.41c1.26-6.53,1.46-13.14,1.74-19.76,1-23.93,2.34-47.84,3.26-71.78.66-17.32,1.35-34.62,1.57-51.95.06-4.46-2.36-8.19-2.25-12.64.12-4.7,0-9.18,3.87-12.6a2.69,2.69,0,0,0,.93-2c.44-11.41,0-22.72-5-33.28-4-8.46-8.23-16.82-12.35-25.22s-4.55-17.53-3.65-26.74c.2-2,1.92-3,3-4.28,1.32-1.58,1.29-2.65.23-4.33a97.91,97.91,0,0,1-5.53-10,14.3,14.3,0,0,1-.18-11.84c1.94-4.81,5.34-7,10.53-6.75,2.34.11,4,.71,2.86-3.16-3.91-13.88-7.41-27.89-10.66-41.94a47.81,47.81,0,0,1-.29-17.53,7.37,7.37,0,0,1,5.72-6c2.23-.57,6.5,3.06,7.42,5.72,3.88,11.2,8,22.31,11.64,33.59a182,182,0,0,0,10,24.46c1.43,2.93,3.25,5.66,4.87,8.49a1.64,1.64,0,0,0,1.54.93c.93-.05,1.25-.76,1.42-1.54,1.54-7.17,3.23-14.31,4.58-21.52,2.08-11.05,3.74-22.19,7-33,.81-2.66,1.27-5.44,2.53-8,1.45-2.9,2.85-5.9,6.84-5.56,3.56.29,7,3.69,8,7.27,2.69,10.53.86,20.9-1,31.27-.65,3.62-1,7.27-1.81,10.88-2.8,12.42-2,25.09-1.85,37.68.11,7.13-.21,14.29.73,21.4a5.85,5.85,0,0,0,1,3.23c5.74,6.77,7,14.92,7.73,23.41.71,8.82.23,17.59-.38,26.35a97.26,97.26,0,0,1-2.21,12.7c-.69,3.4-1.5,6.2,2.24,9,3,2.27,3.57,6.73,3.17,10.6s1,6.65,3.92,9.24c10.82,9.73,19.44,21.32,27.52,33.34,2.73,4.07,2.4,6.3-1.46,9.48-3.46,2.87-6.92,5.94-11.86,2.82a2,2,0,0,0-1.48-.14c-5.53,1.72-8-1.72-9.47-6-1.63-4.71-5.86-8-6.77-13,1.22.18,2.07,2.1,3.62.79,2.28,2.11,3,5.28,5,7.56,1,2,2,4.05,2.88,6.1.67,1.5,1.65,1.66,3,1.06,1.68-.71,1-1.75.42-2.72-1.2-1.9-2.47-3.76-3.71-5.63l-5.73-9.28,3.4-.18a2.72,2.72,0,0,0,.54.15,71.53,71.53,0,0,0,6.42,9.89c1.28,2.18,2.73,4.27,3.8,6.55,1.14,2.44,2.48,2.64,4.78,1.45,6-3.12,6.29-4.45,1.85-9.84-1.85-3.67-4.86-6.44-7.38-9.58-1.51-3.34-4.62-5.48-6.47-8.56,1.12-.41,1.41-1.22.58-2-4.93-4.75-9.28-10.12-14.8-14.21-1.36-1-1.46-1.3-1-2.82.79-2.5,1.5-5,.33-7.86-1.07-2.64-2.13-4.78-4.82-6-2.42-1.08-1.55-3.41-1.2-5,.85-4.06.53-8.1.44-12.15l.12-1.19c1.5-.26,1.55-1.39,1.54-2.56q0-3.16,0-6.34a1.94,1.94,0,0,1,0-1.83,1.7,1.7,0,0,0,1.51-1.85c.17-9.25.27-18.51-1.6-27.64-.19-1-.95-.5-1.52-.42l-3-7.89c-.09-1.23.3-2.6-.81-3.57-2.69-2.35-2.79-5.3-2.39-8.58.23-1.81,1-4.18-1.63-5.27-.09-2-.19-4.06-.28-6.09a4.54,4.54,0,0,0,.52-2.93q0-16.74-.06-33.48v-.28c2.7-.88,1.17-3.21,1.65-4.85a64.4,64.4,0,0,0,2.93-22.32c.17-2.54.29-5.08.52-7.61a40.75,40.75,0,0,0-.73-13.31c-.62-2.56-1.92-5.09-4.73-5.44-3-.37-3.11,2.84-4.14,4.68a20.29,20.29,0,0,0-1.48,4.33c-2.68,9.3-4.52,18.79-6.26,28.29-1.82,10-3.37,20.1-6.37,29.85-.56,1.81-.75,4.41-3.2,4.74s-3.35-2-4.47-3.6c-7.47-10.79-12.25-22.84-16.39-35.19-3.76-11.22-7.19-22.56-11.84-33.47-.69-1.61-1.46-3.15-3.46-3s-2.16,1.9-2.5,3.39a25,25,0,0,0-.53,9.88c1.47,8.39,3.3,16.71,5.36,25,2,8,5.14,15.64,5.84,23.91-.22.57-.76,1.25-.6,1.68,1.24,3.27-.36,4-3.18,3.76a24.29,24.29,0,0,0-3.35-.53c-1.85-.07-3.92-.32-4.26,2.39-3.06,4-3.84,8.31-1.62,13-.85,4.21,2.88,6,4.67,8.79h0q0,4.23-.05,8.44l-2.13,3.42c-.18-.35-.44-1.3-.69-.82-3.14,6.08-1.39,12.17.2,18.23.09.32.83.47,1.27.7l0,.19c-.4,4.33,1.59,7.58,4.71,10.3l-.05,0c.23.49-1.09,1.84.78,1.43l.63,1.45c-.72,4.29,1.92,6.92,4.68,9.48v0c-.4,2.08.24,3.8,1.21,5.73,3.86,7.67,6.58,15.69,6.32,24.47-.11,3.95-.19,7.92.05,11.87a8.33,8.33,0,0,1-2.21,6.66c-2.42,2.25-2.48,4.77-2.5,7.61,0,3.21,0,6.37,2.17,9,1.1,1.32,1,2.87.91,4.38-.47,7.79-.39,15.58-1.11,23.41-1.35,14.84-.14,29.88-1.84,44.8-1.07,9.4.47,18.85-1.3,28.4-1.71,9.22.14,18.86-1.6,28.35-1.14,6.18-.24,12.73-.25,19.11Z"/><path class="cls-6" d="M501,478.41c-.9-41.51-2-83-.7-124.53-1.64-.62-2.28.86-3.2,1.57-2.1,1.63-4,3.53-6.14,5.11-2.8,2.08-5.94,3.58-4.74,8.23.53,2-1.2,4-3.51,4.87a5,5,0,0,1-6.12-1.78c-1.64-2.13-3.22-2.52-5.47-1.44-.33.16-.79.07-1.12.24-1.86.9-4.4-.87-5.76.9-1.57,2.06-1.23,4.86-1.56,7.37-4.23,32.18-8.24,64.39-13.52,96.42-.16,1-.17,2-.24,3h-3.83a101.09,101.09,0,0,0,2.05-10.4c.86-9.34,2.75-18.53,3.76-27.87,1.38-12.68,4-25.23,5.34-37.92.93-8.84,2.7-17.55,3.38-26.41a2.33,2.33,0,0,0-1-2.25c-4.19-2.78-4.38-7.37.07-8.65S464,360,464,357.26c.1-7.08,1.31-14,1.75-21,.34-5.55.08-5.57-5.4-5.65-3.51-.05-4.58-1.37-3.63-4.7.78-2.76,3-2.94,5.44-3s2.39,1,2.18,2.77c-.14,1.21.55,2.05,1.85,1.69a1.38,1.38,0,0,0,.66-2.42c-1.48-1.68-.78-2.83.35-4.31a16.66,16.66,0,0,0,1.68-3.79l.87,0c-.23,3-.36,6.06-.69,9.07-.62,5.58-.16,6.4,5.37,8.1,2.85.88,5.6,2,7.81-1.65,1-1.68,3.75-2.55,5.43-.9,3.55,3.49,6.5,1.14,9.85-.16,4-1.57,5.75-4.24,5.87-8.51A40,40,0,0,1,505,312.21a37.41,37.41,0,0,1,2,4c.46,1.3.65,2,2.28,1a3.34,3.34,0,0,1,4.92,1.42c1.14,2.43,1.4,5.18-.4,7.53-1.39,1.8-3.24,1.82-5.07.56-.93-.65-1.9-1.05-2.69-.05-2.59,3.29-3.33,13.64,1.25,16.1l0,0c3.2,8.42,3.72,7.44-3.61,12.46-.91.61-.93,1.38-1.06,2.26-1.29,8.58-1,17.26-1.33,25.87-.64,15.92-.19,31.89-.16,47.84,0,.8-.5,1.81.82,2.67v-15.8h.68v60.34Zm12.11-153.27L514,324c-.24-1.57,0-3.25-1-4.66-.49-.63-1.15-1.45-1.76-.87a6.21,6.21,0,0,0-1.46,6.25C510.3,326.86,511.94,325.51,513.15,325.14Zm-11.38,8.23a1.67,1.67,0,0,0-1.79.3c-3.51,2.24-8.16,2.31-10.38,7.17-1.56,3.42-7.79,3.13-8.93,0-.9-2.48-2.37-2.91-4.48-3.18a14.15,14.15,0,0,1-5.77-1.86c-1.84-1.16-2.4-.53-2.62,1.37-1.11,9.36-2.29,18.72-3.4,28.09-.1.79-.46,1.66.8,2.18,2.61,1.06,8.24-.74,9.65-3.24,1.68-3,3.93-4.68,7.51-3.19a3,3,0,0,0,3.2-.45C494.68,354,504.19,347.64,502,334A5.88,5.88,0,0,0,501.77,333.37Zm-18.58,34.31c-.39-1.81-.71-3.91-3.24-3.87-1.94,0-2.52,1.79-2.39,3.26a3.68,3.68,0,0,0,3.38,3.56C482.82,370.78,483.09,369.24,483.19,367.68Zm24.63-19.16c-.36-.85.34-2.55-1.41-2.49-2.52.1-3,2.35-3.65,4.24a1.58,1.58,0,0,0,1.52,2.14C506.66,352.44,507.27,350.54,507.82,348.52Zm-24.56-11.33c-.06,1.18-.27,2.64,1.33,2.65s3.35-.78,3.43-2.82c.05-1.26-.52-2.66-2-2.77C484,334.12,483.48,335.61,483.26,337.19ZM460,329a2.9,2.9,0,0,0,2.21-3.09c-.08-1.15-.86-2.1-1.94-1.89-1.68.32-1.76,2-1.83,3.32C458.4,328.2,458.71,329.13,460,329Zm.61,40.7c-.22-1-.25-2.18-1.81-2.3s-1.74.81-1.63,1.92.49,2.39,1.81,2.58S460.45,370.84,460.62,369.68Z"/><path class="cls-5" d="M360,434.8q.9-18.39,1.82-36.79c.65-.18,1.3-.51,1.29-1.21-.05-4.92.94-9.71,1.43-14.55.74-7.44.17-15,.15-22.52.27-1.54.53-3.08.79-4.62,1.35-4,.65-8.19.73-12.29.85-13.09-.39-26.17,1.24-39.35,1.54-12.4.34-25.13.37-37.72,0-2-.62-4-2.7-3.91-3.91.1-3.48-2.33-3.4-4.77,2-.45,1.45-2.08,1.46-3.35,0-4.25,0-8.51,0-12.76-.94-4.63,1.83-8.85,1.51-13.41a8.8,8.8,0,0,1,1.93-4.47,268,268,0,0,1,19.07-24.28,51.8,51.8,0,0,0,9.81-16.17c3.67-9.9,4.65-20.57,8.78-30.37,1.28-3,.4-5.79-3.08-7.56A83.92,83.92,0,0,1,383,132.13c-2.71-2.44-4.89-3-7.2.21-3.73,1.53-1.86,4.36-1.23,6.55s1.76,3.86-.42,5.59l-.34-1.34c-.26-4-1.67-4.75-6.05-3.31a2.53,2.53,0,0,1-2.27.81c-1.19,1-.77,2.33-.79,3.55s-.07,2.61-1.91,2.57a13,13,0,0,0-1.94-5.11c.23-2.47-2-3.48-4.89-2.08a30.42,30.42,0,0,1-8.36,2.81l.07.07c.06-2-1.39-1.72-2.62-1.8-6.39-.39-14.12,5.32-16.92,12.51l.05,0L325,153l-.23-.22c0-1.9,1.36-2.93,2.49-4.12a45.51,45.51,0,0,1,14.18-10.15c1.1-.5,2.39-1.09,3.28-.6,5.85,3.19,11.7-2.11,17.67.16,1.82.69,4-1.87,6.44-1.86,3.27,0,2.92-2.93,3.71-4.94A6.91,6.91,0,0,1,383.17,128c7.26,5.31,14.34,10.86,22.27,15.2,2.84,1.55,2.78,4.37,2.62,7.05a37.71,37.71,0,0,1-3,11.34c-1.72,4.32-2.5,8.81-3.48,13.24a57.35,57.35,0,0,1-9.8,21.77c-4.84,6.68-10.22,12.92-15.24,19.45-2.76,3.59-5.68,7-7.69,11.08-4.68,9.38-4.7,19.52-4.32,29.68,0,1,.34,1.74,1.43,2,3.21.65,3.66,2.71,2.83,5.47s.72,5.49.61,8.28c-.28,7.69-.59,15.38-.77,23.07-.09,3.68.63,7.31.49,11q-.84,22.9-1.81,45.82c-.94,22.65-1.68,45.33-3.07,67.95-.79,12.73-.56,25.47-1.48,38.17-.47,6.6-1.26,13.18-1.08,19.81h-3.83Q358.88,456.6,360,434.8Z"/><path class="cls-7" d="M360,434.8q-1.08,21.81-2.14,43.61h-59c15.34-10.35,30.08-21.57,45.54-31.75,4.55-3,8.88-6.36,13.52-9.23C359,436.74,359.19,435.61,360,434.8Z"/><path class="cls-5" d="M843.12,342.8c-1,16.52-1.88,33.06-3,49.57-1.61,23.23-3.4,46.46-5.15,69.69-.41,5.46-1,10.9-1.49,16.35H830.4c.52-12.59,1.87-25.12,2.75-37.67.63-9,1.55-18,1.92-27.06.44-10.83,1.34-21.63,2-32.44.79-12.81,2-25.6,2.6-38.44.11-2.46.42-4.75-3.16-5.29-2.26-.34-3-2.59-3-4.79-.1-14.41,0-28.82,1.77-43.15.65-5.31,4.48-8.39,8.89-10.65A2.91,2.91,0,0,0,846,276c.19-4.87-.35-8.62-6.1-10.86-12.66-4.94-24.42-12-37.15-16.85-2.57-1-6.14,0-7.52-3.53a40.87,40.87,0,0,1,16.24,5c1.37.73,2,1.19,2.06-.78a1.33,1.33,0,0,1,1.61.84c0,1-.29,2.1,1.07,2.45a1.43,1.43,0,0,0,1.93-1.22q15.55,7.2,31.1,14.4c1.66.77,3.27,1.71.85,3.43-1.28.91-.72,2-.68,3.1.09,2.66.21,5.32.32,8-1.32.42-4.21-1.29-3.16,2.45.2.68-1.23.47-1.93.64-3.8.92-7.93,5.27-8.09,8.72a73.22,73.22,0,0,0,0,8.38c.27,4.51-.89,9.09.68,13.53.06,1,.12,2.08.17,3.11l-.21,4.44a2.8,2.8,0,0,0,.07,3.21h0c-.56,3.49-1.22,7,.81,10.26,3.73,0,5.29,1.76,4.63,5.52A7.63,7.63,0,0,0,843.12,342.8Z"/><path class="cls-8" d="M1047.8,287.4c.09,4.05.41,8.09-.44,12.15-.35,1.63-1.22,4,1.2,5,2.69,1.2,3.75,3.34,4.82,6,1.17,2.89.46,5.36-.33,7.86-.49,1.52-.39,1.81,1,2.82,5.52,4.09,9.87,9.46,14.8,14.21.83.8.54,1.61-.58,2l-1.89-1.67a82.34,82.34,0,0,0-10-9.89c-.38-1.51-1.88-2-2.8-3a1.37,1.37,0,0,0-2.3.15c-.46,1-3.28,1-1.34,3l8.64,11.46,6.11,9.91-3.4.18a2.49,2.49,0,0,1-.51-.27,106.68,106.68,0,0,0-9.54-14l-.85.66,2,4-2.89-1.3,0-.05c0-.82.09-1.68-.73-2.24l0-.05c4.69-3.95-2.4-6-1.27-9.52-1.3,1.43-4.27.44-4.08,3.3-6.85,3.69-14.27,5.13-22,5.49-6.38.3-12.73-.47-19.07-1-3-.26-3.61.68-3.71,3.46-.87,25.33-1.78,50.66-2.87,76-.91,20.86-2.08,41.71-3.13,62.57-.06,1.25-.5,2.53.2,3.74h-1.53c0-6.38-.89-12.93.25-19.11,1.74-9.49-.11-19.13,1.6-28.35,1.77-9.55.23-19,1.3-28.4,1.7-14.92.49-30,1.84-44.8.72-7.83.64-15.62,1.11-23.41.1-1.51.19-3.06-.91-4.38-2.2-2.63-2.2-5.79-2.17-9,0-2.84.08-5.36,2.5-7.61a8.33,8.33,0,0,0,2.21-6.66c-.24-3.95-.16-7.92-.05-11.87.26-8.78-2.46-16.8-6.32-24.47-1-1.93-1.61-3.65-1.21-5.73a68.76,68.76,0,0,1,8.44,21.92c1.52,8.21,1,16.5.67,24.75-.13,3.2,1.08,4,3.87,4,2.41-.05,4.83.1,7.25.1,9.68,0,19.36.18,28.75-2.9,2.88-.94,4.36-2.24,4.53-5.53A92.88,92.88,0,0,1,1047.8,287.4ZM1038,326.94c5.26-1.58,9.76-4.27,13-8.84,1.76-3.33.92-6.5-.36-9.73-1.54,4.42-5.92,5.15-8.9,7.53-1.24.23-2.5.43-3.74.68a113.8,113.8,0,0,1-39.77.76c-2.69-.41-2.34,1-2.16,2.57-.78,7.39.67,9.23,7.88,9.74,4.93.34,9.87.65,14.81.8A47.63,47.63,0,0,0,1038,326.94Z"/><path class="cls-5" d="M285.7,445.75q-1.84,13.71-3.7,27.4c-.24,1.76-.52,3.51-.79,5.26h-3.83c1.49-9.64,2.25-19.38,3.59-29,2.49-17.93,3.85-36,6-53.93,1.67-13.63,2.73-27.32,4.54-40.92,2.05-15.46,2.76-31.11,6.13-46.39.12-.84.25-1.68.37-2.53,1.55-3.73,5.7-5.19,7.57-8.62.06-.8.11-1.62.17-2.43.32-1.32.64-2.64,1-4,.82-1.08.22-2.38.56-3.54.4-2,.81-3.94,1.21-5.9l.33-3.43q.61-4.42,1.22-8.84l.3-4.14q.44-3.9.86-7.8c1.32-3.73.1-7.62.68-11.4.21-1.53-.17-3.15.68-4.6,0,8.41-.39,16.76-1.17,25.16-.62,6.57-2.54,13.07-1.94,19.77a1.89,1.89,0,0,1-.25,1.09c-2,3.11-1.35,6.52-1.2,9.89l-.81,1.57-.71.74-6.2,6.18c-2.74,1.83-1,4.68-1.58,7a102,102,0,0,0-3,22.81l-.13,4.57c-2.53,1-1.23,2.07,0,3.11-2.74,5.3-.75,11.3-2.65,16.91-1.51,4.47-1.19,9.71-1.43,14.47-.4,7.67-2.47,15.17-2,22.89.13,2.1.26,4.2-1.12,6.22-.72,1-1.14,3,.93,3.83,0,1-.07,2-.15,3C288.28,422.07,286.26,433.84,285.7,445.75Z"/><path class="cls-6" d="M1043.32,328.18c-.19-2.86,2.78-1.87,4.08-3.3-1.13,3.48,6,5.57,1.27,9.52-.05.11-.09.21-.14.31l.18-.26c.82.56.73,1.42.73,2.24-1.26.23-1.52,1.13-1.52,2.24q0,9.26,0,18.51c0,1.08.17,2,1.46,2.27,1.69,18,1.95,36.12,3.29,54.14,1.53,20.58,2.55,41.17,3.46,61.77a3.59,3.59,0,0,0,1,2.79h-4.6c-.09-16.56-1.41-33.07-2.31-49.59-1.65-30.64-3.47-61.27-5.21-91.91-.11-2-.13-4.08-.18-6.11C1044.79,329.65,1044.91,328.43,1043.32,328.18Z"/><path class="cls-5" d="M884,246.5c2.17,5.07,1.41,10.54,2.09,15.8.29,2.25.21,3.95,3.26,4.53s4.89,2.81,5.32,6.22c1.74,13.78,1.72,27.64,2.14,41.48.09,3.2,0,6.37-2.87,8.7-1.2,1-1,2.58-1,4,.1,16.33-.58,32.72.54,49,1.42,20.63,0,41.29,1.58,61.84,1,13.48.39,26.94,1.19,40.38h-1.53c-.11-11.25.48-22.53-1.56-33.69q0-14.13,0-28.26c.91-6.09-1.31-12-1.39-17.95-.2-15.13.17-30.27-.19-45.4-.19-7.89,1.73-15.94-1.24-23.7a1.68,1.68,0,0,1,.28-1.42c2.18-2.38.61-4.44-.46-6.55a6.53,6.53,0,0,0,3.11-6.73c-.23-2.36-.16-4.76-.22-7.14a9.46,9.46,0,0,0-.43-5.29c2.28-.4,2-2.17,2.15-3.83.66-8.12-2.48-16-1.61-24.12a2.2,2.2,0,0,0-.37-1.44c-1.24-1.54-1.35-5.32-4.94-2.36-1.05.86-1.76-.24-2.39-1.47-2-3.86-1.22-8-1.48-12Z"/><path class="cls-8" d="M664.85,467.91c-.5-8-1.16-16-1.45-24-.54-14.91-.91-29.83-1.24-44.74-.06-2.72-.51-3.58-3.7-3.2-17.09,2.07-34.13,2-50.68-3.61-2.85-1-2.91.29-3,2.39q-1,21.58-2.08,43.17-1,20.25-2.08,40.49h-1.53c.66-9.19-.61-18.36,1.27-27.64,1.66-8.19.5-16.78,1.45-25.28,1.35-12.06.43-24.37.45-36.58,0-1.48,1-1.6,2-1.61l.15.07.9.58-.05-.1c.19.77.78.93,1.46.94h0c.62,2.49,2.58,1.27,4,1.45l5.91,1.68c3.16,2.53,7.24,2.6,10.79,2.8,9.79.57,19.63.17,29.46.22a6.2,6.2,0,0,0,5.71-2.88l2.23-.34a21.58,21.58,0,0,0-1.29,13c1.4,7.25,1.3,14.49,1.33,21.77,0,8.89,0,17.78.05,26.67Z"/><path class="cls-5" d="M604.29,387.3c-1.09,0-2,.13-2,1.61,0,12.21.9,24.52-.45,36.58-.95,8.5.21,17.09-1.45,25.28-1.88,9.28-.61,18.45-1.27,27.64H596a23.67,23.67,0,0,0,1.43-8.61c0-16.56,1.75-33,2.25-49.59.28-9.19.89-18.44,1.19-27.67,0-1.13.24-2.65-.37-3.33-4.22-4.71-2.72-10.31-2.74-15.68,0-1.66,0-3.31.13-5,.14-2.51-.13-4.3-3.46-4.56-2.79-.23-4.61-4.42-4.27-8.42s2.37-6.48,5.68-6.41c2.75.05,3.13-1.06,3.65-3.48,1.19-5.54.43-11.41,3-16.71.8-1.66,1.88-3.38,3.49-3.85,2.78-.82,2.42-2.72,2.57-4.76.46-6.41-1.63-12.59-1.57-19,.92-1,1.17-.92,1.4.52.3,1.92-1.36,4.4,1.43,5.69.26,4.43-.64,8.95.52,13.27,1,3.53.14,5.68-3.48,6.7a4,4,0,0,0-3.11,3.4c-1.17,6.26-3,12.4-3.11,18.84,0,.95.18,2-1.69,1.4-3.22-1.06-6.69.91-7.36,3.74-.6,2.56,2.19,7.1,4.76,7.73,4.44,1.08,5,2.28,3.31,6.6-.62,1.62-1.72,3.89,1.65,4.11.08.5.16,1,.23,1.5-.13,1.89-.32,3.77-.37,5.66-.06,2.37.31,4.58,3,5.45Z"/><path class="cls-5" d="M502.57,478.41V418.07h-.68v15.8c-1.32-.86-.81-1.87-.82-2.67,0-15.95-.48-31.92.16-47.84.34-8.61,0-17.29,1.33-25.87.13-.88.15-1.65,1.06-2.26,7.33-5,6.81-4,3.61-12.46,2.94-.17,3.65,2.07,4.09,4.16.66,3.15-.46,6.25-3.1,7.68-3.66,2-4.44,4.8-4.42,8.47q.22,55.86.39,111.71c0,1.41-.17,2.87,1.45,3.63Z"/><path class="cls-6" d="M893.18,444.72c2,11.16,1.45,22.44,1.56,33.69h-2.3c.49-10.36-.38-20.7-.52-31.05,0-.88.06-1.76.09-2.64Z"/><path class="cls-8" d="M665,478.41l0-6.9h1.48c0,.52,0,1,.07,1.55l0,5.35Z"/><path class="cls-6" d="M666.49,478.41l0-5.35h1.41l.09,5.35Z"/><path class="cls-6" d="M884,246.5c0,3.53,0,7.06,0,10.59h-1.53c-.24-1.49-.51-3-.72-4.49-.92-6.57-1.85-13.13-5.26-19-1.13-1.94-2.51-4-4.89-3.63-5.41.92-11.19-1.37-16.31,2-.65.42-1.51,0-2.16-.39-6.72-4.43-14.09-7.61-21.17-11.36-2.6-1.37-3.88-3.33-2-6.52a22.09,22.09,0,0,0,2.91-8.63c.58-4.73.67-4.7,4.61-2.53a8,8,0,0,0,1.47.41,132,132,0,0,1,13.64,4.93,12.42,12.42,0,0,0,7.85,1c1-.24,2.48-.39,2.62-1.82.13-1.23-1-1.66-2-2.06-6.36-2.69-11.92-6.8-18-10.08a31.75,31.75,0,0,0-9.23-3.54c-3.69-.71-6.27.21-7.89,4a177.2,177.2,0,0,1-13.31,25.75c-1,1.57-2.06,3.34-.91,5.36.6,1.06,1.21,2.23-.39,2.8-1.29.46-2.08-.52-2.66-1.61-1.67-3.2-.3-6,1.36-8.59a165.13,165.13,0,0,0,11.44-21.6c1.67-3.77,3.12-7.61,7.43-9.93-7.76-.83-10.8,0-13.59,5.48a209.18,209.18,0,0,0-14.87,36.36c-.36,1.22.18,3.35-1.91,3.08s-1.5-2.27-1.22-3.66c1.06-5.13,3.07-9.94,5-14.77.53-1.33,1.32-2.54,1-4.31-.79-5-1.18-10.09-1.69-15.15-.12-1.15-.17-2.47.81-3.22,7.25-5.51,13.89-12.21,23.69-13,2.66-.22,5.36,0,8,0,2.23,0,3.66-1,4-3.26.39-2.67-1.6-3.51-3.49-3.59-5.84-.23-11.75-1-17.53.28-9.86,2.27-18,8.12-26.66,13-2.09,1.18-2.93,3.47-2.94,5.93-.09,15.13,3.19,29.87,5.31,44.75.62,4.31,3.49,7.11,7.83,8.48s8.85,2.48,12.73,5.06c-.06,2-.69,1.51-2.06.78a40.87,40.87,0,0,0-16.24-5c-2.43-1.29-4.24-3.06-4.72-5.93a5.17,5.17,0,0,0-2.74-3.9c-5.11-2.71-10.14-5.64-16.21-5.61-4.44,0-8.88-.07-13.18-1.46-.23-1.59-1.48-1.48-2.58-1.48-2.73,0-5.46,0-8.19,0h-.35l-.34-.08c.6-2.29-1.24-1.49-2.07-1.44-2.46.17-3.35-.72-3.34-3.27q.16-36,.15-72l1.07-2.22c.54.81.21,1.91,1.17,2.37a24.85,24.85,0,0,1,0,6.89,10.28,10.28,0,0,0-.72,1.13c0,.06.21.28.32.42l.39-.95a5.74,5.74,0,0,1,0,4c-.83.5-.77,1,0,1.49q.24,4.17.5,8.35l-.07.08a.7.7,0,0,0-.51,0c-1,.87-.77,2.08-.77,3.19q0,22.08,0,44.16c0,1.11-.27,2.33.87,3.14,2.84,2.71,6.77,1.17,10,2.53,1.41,1,3,.39,4.53.54l5.45-.34c-4.77-2.4-5.78-6-6.78-9.51-1.84-6.56-1.88-13.3-1.9-20l9.52-21.09c4.13-2.88,5-2.81,8.64.67,1.94,5,1.6,10.15.54,15.29-.6,2.94-1.82,5.83-.81,8.92-.58,9.48,1,11.81,9.82,14.52a6,6,0,0,1,.73.19c1.86.81,2.6.16,2.35-1.78q-.81-6.42-1.63-12.84a9.66,9.66,0,0,0,.07-1.51c-1.09-8.44.91-15.24,9.67-18.56.55-.21.95-.79,1.43-1.2,2.12-.19,3.74-1.53,5.42-2.59,10-6.29,20.87-8.16,32.44-7,7.49.75,9.54,3.77,7.35,10.92a8.79,8.79,0,0,1-7.23,2.76c-7.89-1-14.44,1.52-21,5.89-6,4-9.11,8.06-6.41,15.19.11.31.13.44.39.27,2.41-3.12,3.23-6.94,5.13-10.26,3.62-6.34,8.45-10,16.15-8.74a22.83,22.83,0,0,0,5,0c11.36-.62,22.09,3.09,33.09,4.9,2,.33,4,1.3,4.36,3.71s-1.28,4-3.07,5.28a56.66,56.66,0,0,1-5.3,2.9,4.7,4.7,0,0,0,3.43,2.16c2.54,5.15.85,8.37-4.92,9.38a13.06,13.06,0,0,1-4.94-.26c-3.4-.71-6.45-2.32-9.61-3.66-8.29-3.51-9.43-3-12.22,5.07-.77,2.22-.37,3.45,1.81,4.54,5.68,2.85,11.24,5.94,16.83,8.95a3.89,3.89,0,0,0,2.52.68c11.12-1.77,22.37-1.08,33.55-1.91,13.34-1,26.71-1.7,40.07-2.49,2-.12,3.35-.55,3.3-3.07-.16-8.41-.14-16.83-.18-25.25q0-11.81,0-23.6.18-10.74.34-21.5c2.65,1.6,1.18-1.13,1.18-1.36q.1-33.79,0-67.59l.07-.07c.62.17,1.28.32,1.18,1.19-1.3,10.69-.09,21.42-.21,32.13-.11,10.27.48,20.59.56,30.89,0,3.83-1.5,7.57-.76,11.37,1.84,9.45-.48,19,.7,28.42.4,3.17-1.25,6.25-.69,9.47,1.57,9,.38,18,.67,27.06.07,2-.67,3.54-3.09,3.46a2.33,2.33,0,0,0-2.31,1c-3.37.58-6.73,1.64-10.1,1.65-12,0-23.87,2.19-35.87,2-4.19-.09-4.11.13-2.64,3.88C882.13,237.62,884.31,241.74,884,246.5ZM758.4,199.44A68.26,68.26,0,0,0,760.89,216c.56,1.78,1.05,3.63,3,4.66,7.22,3.81,15,6.4,22.45,9.53,1.73.72,2.38.15,2.12-1.69-.43-3-.86-6.05-1.14-9.09-.15-1.61-1-2-2.43-2.31a32.51,32.51,0,0,1-11.34-4.38c-1.29-.81-2.86-1.64-3-3.29-.35-5.68-2.21-11.3-.61-17.06a32.28,32.28,0,0,0,1.33-13.21c-.22-1.57-.58-3.31-2.25-3.62s-2.31,1.43-2.81,2.66a144.55,144.55,0,0,1-7,15.25C758.26,195.27,758.3,197.38,758.4,199.44Zm74.89-11.74c6.81,1,12.58,4.55,18.09,8.27,4.77,3.21,8.88,1.74,13.21-.3.85-.4,2-.95,1.89-2.13-.2-1.41-1.65-1.52-2.7-1.63-4.56-.48-8.93-1.8-13.38-2.82A54.73,54.73,0,0,0,833.29,187.7Z"/><path class="cls-5" d="M478,195.71c2.91-6.78-.67-13.07-1.67-19.5s-2.77-12.61-4.08-18.94c-1.88-9.07-3.59-18.17-5.48-27.24-3.33-16-6.63-32-10.2-48-.73-3.23-1.25-6.47-1.76-9.73-.33-2.09-.22-4.06,1.88-5.35,1.92-1.17,3.76-1.61,5.53.23,1.39,1.45,2.88.71,4.22,0a273.25,273.25,0,0,1,42.22-17.08C520.19,46.51,532,44.38,544,42.41c22.63-3.71,45.44-3.17,68.2-4.08.64,0,1.27,0,1.91,0,9.74,0,9.82.28,7,9.33a76.06,76.06,0,0,0-2.74,33.08c1.56,11.74,4.52,23.11,6.74,34.67a46.86,46.86,0,0,0,1.84,6.55c1.27,3.57.17,5.39-3.33,4.57-10.6-2.5-21.37-1.9-32-1A148.1,148.1,0,0,0,559,132.15c-12.83,4.11-24.87,10-37.2,15.11-7.39,3.07-14.45,7.2-21.79,10.57-3.88,1.78-7.78,3.65-12.11,4.42-3.92.69-5.22,3.68-3.41,8.27,2.11,5.35,2.49,11.07,3.95,16.56.57,2.15,1,3.68,3.35,4.48a8.26,8.26,0,0,1,4.59,4.29l-.06.06-3.7-.13a3.72,3.72,0,0,0-1.3-2.65,8.47,8.47,0,0,0-11.11,1.21,3.35,3.35,0,0,1-2.09,1.52ZM462.69,79.43c.65.07,1.44.3,1.41,1-.18,3.35,1.25,6.4,1.87,9.57.52,2.64.23,5.91,3.09,7.72a4,4,0,0,0,.5.09,83,83,0,0,0,3,14.11,94.51,94.51,0,0,0,2.72,13.53c.57,5.26,2.06,10.34,3.17,15.49.79,3.86,1.56,7.72,2.37,11.57,1.78,8.44,1.81,8.22,10,5.17,11-4.11,21.23-9.83,31.85-14.75,14-6.48,28-12.78,43-16.57,17.78-4.49,35.79-6.57,54.12-4.14,2.14.28,3.52.11,2.66-2.76-1.33-4.37-2.36-8.83-3.51-13.25l-2.49-13c-.2-2-.39-4-.59-6,0-8.28,0-16.57.08-24.86a42.7,42.7,0,0,1,3.66-16.47c1.68-4,1.31-4.94-2.84-4.78-18,.72-36-1.66-54,1.4-4.91.84-9.94.44-15,1.33C541,45,534,45.94,527.13,47.1c-8.16,1.38-15.78,4.5-23.68,6.67-11.27,3.09-21.62,8.92-32.53,13.14-6,2.31-9.74,5.53-8.22,12.5-2.15-2.58-.64-6.77-3.75-9.11-1.23,1.4-.45,2.58-.2,3.76q4.25,20.34,8.48,40.68,7.68,36.54,15.39,73.08c.18.85-.25,2.45,1.35,2.06,1.23-.31.86-1.66.66-2.65q-2.88-14.19-5.8-28.37-3.48-16.79-7-33.58c-1.72-8.18-3.62-16.33-5.1-24.55C465.41,93.62,462.93,86.73,462.69,79.43Z"/><path class="cls-6" d="M609.78,307.62c-2.79-1.29-1.13-3.77-1.43-5.69-.23-1.44-.48-1.53-1.4-.52-2.71-12.53-4.22-25.28-8.76-37.46-3.05-8.18-1.91-16.69,2.5-24.52,3-5.25,5.87-10.54,8.89-15.76,2.69-4.63,1.26-10.23.8-15.38-1.23-14.06-2.62-28.11-1.8-42.24.14-2.37,1.07-4.69,1.63-7,2.32-1.64,3.6-4.29,5-6.5,1.93-3.06,4.26-2.94,6.81-2.55,2.83.43,3.28,2.78,3.13,5.26,0,.92.61,1.66.81,2.46a23.45,23.45,0,0,1-.07,13.41c-.83,2.45-1.29,5-.42,7,1.27,2.88,1.13,5.65,1.13,8.54l-1.55,0,0,0a2.79,2.79,0,0,0-.49-2.34,59.22,59.22,0,0,1-.89-13.69c.15-5.2.85-10.44-.53-15.6-.39-1.48-.63-3.21-2.39-3.58s-3.1.88-4.14,2.22a19.23,19.23,0,0,0-3.86,9c-1.79,12.08-.73,24.17.51,36.2,2,19,.79,37.89-2.18,56.71-.21,1.34-.61,2.72-2.26,2.45s-1.27-1.68-1.13-2.81q1.34-11,2.69-22c.11-.92.48-1.87-.47-3l-5.4,9.07c-3.72,2.1-4.06,5.61-3.89,9.33a36.47,36.47,0,0,0,2.06,17.08c1.36,3.87,2.1,8,3.11,11.95-.5,2.2-2.1,4.64,1.29,6l.24.88c-1.21,2.47-.43,5.09-.51,7.64-.05,1.33,1,1.48,2.09,1.55a13.42,13.42,0,0,1,.92,6Z"/><path class="cls-8" d="M609.78,307.62l.06-7.75a113.45,113.45,0,0,1,2.1,30.37c-.22,3.56,1.21,5.46,4,6.95a65.88,65.88,0,0,0,15,5.66c9.16,2.32,18.3,3.21,27.48-.05,2.55-.91,3.94-2.15,4-5.13a115.81,115.81,0,0,1,1.07-15.24c.88-6,1.74-12,5.23-17.26a3,3,0,0,1,.16,2.47c-2.55,6.41-4.75,12.9-4,20,.18,1.62.08,3.16,2.38,2.94a1,1,0,0,1,.71.11c.11.88-.1,2,.38,2.58,3.36,3.85,2.71,8.48,2.73,13,0,2.79.07,5.59,0,8.37-.11,3,.89,4.77,4.15,5.14,3.93.46,3.59,3.57,3.53,6.4s-1.4,4.26-4.22,4.24c-1.69,0-3.33-.16-3.68,2.2-.13.87-1.15.83-1.91.89l.49-10.73c.09-1.78.17-3.56.26-5.34.77-6.2.11-12.33-.53-18.91-5.68,6.59-12.48,9.55-21.54,9.71-11.72.21-22.64-3-33.17-7.79l-.81-.42-.77-.22c-2.07-3.07-5.76-4.76-7-9.15a34,34,0,0,0-1.77,8.47,55.39,55.39,0,0,0-1.13,11.35,55.58,55.58,0,0,0-.81,11.45l-.85,11.5c-3.37-.22-2.27-2.49-1.65-4.11,1.64-4.32,1.13-5.52-3.31-6.6-2.57-.63-5.36-5.17-4.76-7.73.67-2.83,4.14-4.8,7.36-3.74,1.87.61,1.67-.45,1.69-1.4.13-6.44,1.94-12.58,3.11-18.84a4,4,0,0,1,3.11-3.4c3.62-1,4.43-3.17,3.48-6.7C609.14,316.57,610,312.05,609.78,307.62Zm-10.73,48.8c.4-2-.28-3.57-2.77-3.65-2.31-.08-2.52,1.78-2.52,3.41,0,2.05.29,4.44,2.84,4.6C599.37,361,599,358.51,599.05,356.42Zm78.7,8.73c-.24-1.74-.19-3.62-2.62-3.91-1.78-.22-2.5.55-2.47,2.33,0,2.09-.75,4.69,2.32,5.07C677.21,368.92,677,366.5,677.75,365.15Z"/><path class="cls-5" d="M507.26,342.79c-4.58-2.46-3.84-12.81-1.25-16.1.79-1,1.76-.6,2.69.05,1.83,1.26,3.68,1.24,5.07-.56,1.8-2.35,1.54-5.1.4-7.53a3.34,3.34,0,0,0-4.92-1.42c-1.63,1-1.82.31-2.28-1a37.41,37.41,0,0,0-2-4,16.65,16.65,0,0,1,1.4-6.64c2.13-5.43,4.45-10.8,6.36-16.31,2.08-6,1.92-6-4.31-5.6-.15,0-.33-.36-.5-.55.52-.48.18-.71-.26-.91,5.61-1.84,6.51-6.59,7.19-11.52a20.08,20.08,0,0,1,.84-2.88c3.45-.56,1.26-3,1.5-4.6l.36-1.5c2.7-.28,1.67-2.38,1.81-3.84a3,3,0,0,0-2.36-3.45c-1.7-.23-2.26-.8-2.19-2.34l1.13-2.61c.37.61,1,1.15,1.3.18,1.11-3.33.74-6.76.26-10.15-.09-.64-1-.68-1.63-.72l-.19.06-.1-.17c-.07-1.63-1.86-1.52-2.6-2.54-.6-.83-1.67-1.64-1-2.63,2.23-3.28,1-6.9,1.22-10.37s-.65-6.29-4.18-8a7.69,7.69,0,0,1-3.47-3.92c-1-2.29-2.65-4.3-3.76-6.45-1.61-3.12-5.42-4.84-5.51-8.82l.06-.06c4.83,3.38,7.42,8.53,10.4,13.33,1.31,2.11,2.62,4,4.92,5.1s2.93,3.48,3,5.79a106.26,106.26,0,0,1-.1,10.71c-.12,2,.27,3.43,2,4.57,3.59,2.44,4.64,5.78,3.61,10a15.58,15.58,0,0,0,.34,10c1.94,4.92-.39,10-1.76,14.89-.71,2.51-1.42,5-1.12,7.47,1,8.32-2.37,15.4-5.61,22.61-1.5,3.33-3.16,6.62-3.47,10.4-.22,2.55.13,3.94,3.19,4.25,3.62.36,6.12,4.12,5.84,7.76a6.82,6.82,0,0,1-6.34,6.47c-5.15.4-7.51,4.21-5.19,8.88A14.83,14.83,0,0,1,507.26,342.79Z"/><path class="cls-5" d="M668.94,373.49c.76-.06,1.78,0,1.91-.89.35-2.36,2-2.21,3.68-2.2,2.82,0,4.16-1.49,4.22-4.24s.4-5.94-3.53-6.4c-3.26-.37-4.26-2.15-4.15-5.14.1-2.78,0-5.58,0-8.37,0-4.5.63-9.13-2.73-13-.48-.55-.27-1.7-.38-2.58,4.29.19,4,4,4.36,6.46.92,5.83,2.32,11.69,1.28,17.7-.46,2.68,2,2.77,3.45,3.14,4.42,1.16,3.91,4.63,3.71,7.67-.23,3.24-1.18,6.51-5.51,6.33-2.13-.08-2.64.71-3,2.78-1.24,7-.61,14.53-5.64,20.57-.73.88-.44,2.69-.47,4.07-.49,23,1.72,46,1.84,69.07,0,1.53,0,3-.07,4.58h-1.41c0-.52,0-1-.07-1.55-.15-6.15.79-12.39-1.48-18.37,0-8.89,0-17.78-.05-26.67,0-7.28.07-14.52-1.33-21.77a21.58,21.58,0,0,1,1.29-13,6.67,6.67,0,0,0,1.79-5.12,31.79,31.79,0,0,0,1.5-10.06C668.43,375.52,668.68,374.5,668.94,373.49Z"/><path class="cls-5" d="M741.68,149.68q0,36-.15,72c0,2.55.88,3.44,3.34,3.27.83-.05,2.67-.85,2.07,1.44-6.22.1-6.6-.3-6.59-6.3q0-64.47,0-129V88.06c0-2.92-.38-6.25,1.19-8.55,2-2.88,5.08,0,7.65.1,13.2.45,26.27,2.66,39.48,3.4,5.54.31,11.12,1.11,16.71,1.29A6.21,6.21,0,0,1,809,85.51l-12.29,0c-10.66-.16-21.18-1.75-31.76-2.74-6.61-.62-13.14-2.29-19.87-2-2.62.12-3.51.85-3.5,3.53C741.67,106.14,741.66,127.91,741.68,149.68Z"/><path class="cls-6" d="M650.49,217.21a5,5,0,0,0,3.82,2.1c7.84-.1,11.27,5.09,13.68,11.47.18.47.2,1,.37,1.47.9,2.48,1.9,3.67,4.13.86s5-5.55,7.52-8.3c1.78-.09,2.47-1.4,3.3-2.72,1.62-2.6.85-5.77,1.84-8.28a32,32,0,0,0,2.64-10c-.14-.11-.14-.22,0-.34,1.8-.19,1.71-1.44,1.53-2.74v-.32c1.34,0,2.1-1,2.75-1.87a6.8,6.8,0,0,1,6.66-2.79h0a121.84,121.84,0,0,1-1.49,20.18,47.81,47.81,0,0,1-2.73,10.77c-.44,1.15.4,3.47-2.14,3.39a21.55,21.55,0,0,1,.45-3c2.43-8.36,3.2-17,4.42-25.58.16-1.16.7-2.76-.82-3.4s-2.37.72-3.14,1.65a25.2,25.2,0,0,0-5.47,12.47c-1.39,9.33-6.25,16.57-12.8,22.91-6.4,6.19-6.5,6.12-9.62-2.2-1.26-3.33-2.4-6.79-5.61-8.88-1.6-1-3.61-2.3-5.29-1.17-1.47,1,.26,2.73.48,4.14a2.57,2.57,0,0,1,.08.38c0,1.28,1,3-1.07,3.48-1.89.42-1.78-1.34-2.14-2.49-1.4-4.51-3-8.94-6.15-12.58l1-.11C648,215.86,648.79,217.74,650.49,217.21Z"/><path class="cls-6" d="M308.05,296.88c-.15-3.37-.8-6.78,1.2-9.89a1.89,1.89,0,0,0,.25-1.09c-.6-6.7,1.32-13.2,1.94-19.77.78-8.4,1.15-16.75,1.17-25.16h0c.77-2,3.18-4,.14-6.13q.12-26.79.26-53.57a5.62,5.62,0,0,1,.41-1.37v51.65c-.4-4.26,2.66-7.87,2.33-12.16-.38-5-.57-9.94-1.4-15-1.73-10.57,1.15-21.13,1.63-31.73.14-3.11.19-7.77,4.48-9.65a78.93,78.93,0,0,0-3.53,16.66c-1.51,19.47.77,39-1.14,58.46-1.09,11.14-1.68,22.33-2.83,33.47-.76,7.39-2.11,14.73-3.22,22.24,1.95-.3,2.83-2,4.32-2.57C314.15,295.45,310.23,295.22,308.05,296.88Z"/><path class="cls-5" d="M468.88,316.81a16.66,16.66,0,0,1-1.68,3.79c-1.13,1.48-1.83,2.63-.35,4.31a1.38,1.38,0,0,1-.66,2.42c-1.3.36-2-.48-1.85-1.69.21-1.75.14-2.83-2.18-2.77s-4.66.25-5.44,3c-1,3.33.12,4.65,3.63,4.7,5.48.08,5.74.1,5.4,5.65-.44,7-1.65,13.95-1.75,21,0,2.73-.79,6.35-5.29,7.65s-4.26,5.87-.07,8.65a2.33,2.33,0,0,1,1,2.25c-5.45-1.8-6.55-3.14-6.07-7.6.33-3,2.79-4.49,5.07-5.72,2.08-1.13,2.71-2.53,2.95-4.79.76-7.32,2-14.6,2.74-21.92.43-4.06.09-4.14-3.75-2.83-3,1-4.52-1.24-5.16-3.24-1.43-4.46.74-10,6.37-9.5,3,.29,4.23-1,4.39-4.2.39-7.89-1.54-15.22-4-22.61-1.25-3.75-2.92-7.59-2.57-11.77l.14-.12c1,.21,1.27,1,1.52,1.9,1,3.76,2,7.57,3.31,11.21s3.05,7.39,2.74,11.51a6.49,6.49,0,0,0,1.55,4.55Z"/><path class="cls-6" d="M796.68,85.56l12.29,0c16.66.73,33.32,2,50,2a339.8,339.8,0,0,0,34.32-1.34c9.25-.91,18.32-2.86,27.55-3.74l4.57.05a1.67,1.67,0,0,1-1.18,1.36c-6.22,1.57-12.65,2-19,2.87-4.33.56-8.48,2.29-13,1.88-7.32-.65-14.65.41-22,.11-12.23-.5-24.5-.43-36.74-.08C821.92,89,810.56,86,799,87,797.92,87.1,796.94,86.87,796.68,85.56Z"/><path class="cls-5" d="M667.28,330.58c-2.3.22-2.2-1.32-2.38-2.94-.79-7.1,1.41-13.59,4-20a3,3,0,0,0-.16-2.47c.18-1.75-.47-3.61.7-5.23a1.61,1.61,0,0,0,1.61-1.31c.93-3.86,2.12-7.67,2.31-11.68-.74-3.07.77-5.69,1.65-8.44a2.57,2.57,0,0,0,2.13-2.78c.14-7.46,3.3-14,6.35-20.5,1.7-3.63,2.17-8,5.92-10.5l.1.09c.07,3.4-2.29,5.85-3.61,8.64-4.65,9.82-6.6,20.35-9,30.8-1.48,6.52-3.73,12.87-5.06,19.42-1.26,6.22-4.15,12-5,18.27C666.45,324.86,666,327.76,667.28,330.58Z"/><path class="cls-5" d="M459.62,281.63c-2.18-2.35-2.31-5.35-2.91-8.3-1.18-5.74-1-11.73-4.13-17.16-1.88-3.27-3.75-6.83-3.66-11.06a12.23,12.23,0,0,1,2.57-7.76c3.6-4.49,5.57-9.87,8.39-14.79,3.32-5.78,6.66-11.55,10.08-17.27.35-.59,1.24-.86,1.88-1.28,0,1.37.48,2.82-.67,4-2.6,2.63-3.69,6.27-6,9.1-.95,1.18-.42,1.5.68,1.73.14,1.31-.72,2.15-1.45,3.05a8.48,8.48,0,0,0-4.82,4.89c-2.09,4.69-4.18,9.36-7.89,13.15-2.73,2.8-1.27,9.07,2.19,10.69v.06a5,5,0,0,0,.14,4.06c4.81,8.31,4,17.82,5.71,26.79Z"/><path class="cls-5" d="M650.49,217.21c-1.7.53-2.45-1.35-3.86-1.53-.52-1.51-1.42-2.74-3.1-2.83-3.69-.2-7.38-.41-10.67,1.94-1,.69-2.55,1.73-3.17-.62a11.74,11.74,0,0,0-1.48-6.08l0-.06v-2.27q0-3,0-6.11c-.66-2.52,1.63-5.61-1.45-7.68,0-1.78-.06-3.56-.1-5.34,0-2.89.14-5.66-1.13-8.54-.87-2-.41-4.54.42-7a23.45,23.45,0,0,0,.07-13.41c-.2-.8-.86-1.54-.81-2.46.15-2.48-.3-4.83-3.13-5.26-2.55-.39-4.88-.51-6.81,2.55-1.38,2.21-2.66,4.86-5,6.5.35-5.34,6-11.63,10.77-11.35,2.81.17,4.58,2.64,5.36,5.32a34.34,34.34,0,0,1,1.13,15.83c-.76,4.33,0,8.63.45,12.94.89,9.25,1.77,18.49,2.58,27.74.26,3,1.06,3.89,4.31,2.66C642.06,209.41,647.07,211.24,650.49,217.21Z"/><path class="cls-5" d="M929.09,225.92a2.33,2.33,0,0,1,2.31-1c2.42.08,3.16-1.5,3.09-3.46-.29-9,.9-18.08-.67-27.06-.56-3.22,1.09-6.3.69-9.47-1.18-9.45,1.14-19-.7-28.42-.74-3.8.79-7.54.76-11.37-.08-10.3-.67-20.62-.56-30.89.12-10.71-1.09-21.44.21-32.13.1-.87-.56-1-1.18-1.19l0-1.51c3-.56,2.1,1.81,2.12,3.12.09,9,.07,18.1.07,27.16q0,53.92,0,107.84a23.25,23.25,0,0,0,.29,4.18c.63,3.35-.63,4.89-4,4.61a2.29,2.29,0,0,0-1.89-.58l-.17.24Z"/><path class="cls-5" d="M320.46,163.07c-4.29,1.88-4.34,6.54-4.48,9.65-.48,10.6-3.36,21.16-1.63,31.73.83,5,1,10,1.4,15,.33,4.29-2.73,7.9-2.33,12.16V179.91A41.39,41.39,0,0,1,322,155.36a6.47,6.47,0,0,1,2.74-2.54l.23.22c-.06,1-.11,2-.16,2.92-3.13,1.34-3.9,4.14-4.39,7.1Z"/><path class="cls-5" d="M692.34,230.08c2.54.08,1.7-2.24,2.14-3.39a47.81,47.81,0,0,0,2.73-10.77,121.84,121.84,0,0,0,1.49-20.18c2.87,1,2.24,3.46,2,5.42a165.85,165.85,0,0,1-4.94,28.2c-1.5,5.47-2.95,10.83-6.34,15.46l-.1-.09c.23-1.68-.06-3.36,1.13-5a12.46,12.46,0,0,0,1.91-9.6Z"/><path class="cls-5" d="M1049.39,359.71c-1.29-.24-1.46-1.19-1.46-2.27q0-9.26,0-18.51c0-1.11.26-2,1.52-2.24l0,.05c.38,2.74,3.28,4.44,3.08,7.42-1.51-.13-1.24-2.19-3.15-2.56C1048.7,347.68,1049.74,353.72,1049.39,359.71Z"/><path class="cls-6" d="M1052.57,344.16c.2-3-2.7-4.68-3.08-7.42l2.89,1.3q3.51,5.77,7,11.53c0,.32,0,.63,0,.94-1.55,1.31-2.4-.61-3.62-.79l-.11-.21c0-2-.46-3.77-2.74-4.36Z"/><path class="cls-5" d="M687.79,203.81a32,32,0,0,1-2.64,10c-1,2.51-.22,5.68-1.84,8.28-.83,1.32-1.52,2.63-3.3,2.72a65.55,65.55,0,0,0,5.34-16.91C685.64,206.46,686,204.56,687.79,203.81Z"/><path class="cls-6" d="M465.88,218.82c-1.1-.23-1.63-.55-.68-1.73,2.28-2.83,3.37-6.47,6-9.1,1.15-1.16.7-2.61.67-4a.66.66,0,0,1,.17-.52l3.43.37Z"/><path class="cls-5" d="M475.44,203.86l-3.43-.37c1.18-3.22,2.79-6.1,6-7.78l.15.15c.12,1.13.23,2.26.35,3.39l0,0c-2.84.29-4,1.72-3,4.53Z"/><path class="cls-5" d="M698.71,195.75a6.8,6.8,0,0,0-6.66,2.79c-.65.85-1.41,1.88-2.75,1.87,2.25-5.13,4.27-6.67,7.83-6A1.66,1.66,0,0,1,698.71,195.75Z"/><path class="cls-5" d="M747.63,226.45c2.73,0,5.46-.07,8.19,0,1.1,0,2.35-.11,2.58,1.48C754.79,227.56,751,228.75,747.63,226.45Z"/><path class="cls-5" d="M925.4,82.51l-4.57-.05c1.62-2.22,4.08-1,6.13-1.49L927,81c0,.45-.06.9-.1,1.35Z"/><path class="cls-6" d="M311.93,245.57c-.58,3.78.64,7.67-.68,11.4C311.21,253.16,311,249.33,311.93,245.57Z"/><path class="cls-5" d="M1052.94,345.15c2.28.59,2.75,2.32,2.74,4.36C1054.31,348.34,1052.79,347.27,1052.94,345.15Z"/><path class="cls-5" d="M312.75,234.85c3,2.12.63,4.1-.14,6.13C312.65,238.94,312.7,236.89,312.75,234.85Z"/><path class="cls-5" d="M927,81c.76-1.77,2.32-1.33,3.72-1.37L930,80.92,930,81,927,81Z"/><path class="cls-6" d="M310.39,264.77l-.3,4.14C309.8,267.5,309.52,266.09,310.39,264.77Z"/><path class="cls-6" d="M930,80.92l.65-1.32,2.34-.2c0,.51,0,1,0,1.51L933,81Z"/><path class="cls-6" d="M307.33,287.08c-.34,1.16.26,2.46-.56,3.54C306.84,289.42,306.3,288.12,307.33,287.08Z"/><path class="cls-5" d="M689.31,200.73c.18,1.3.27,2.55-1.53,2.74A2.37,2.37,0,0,1,689.31,200.73Z"/><path class="cls-6" d="M308.87,277.75l-.33,3.43C308.31,280,307.92,278.81,308.87,277.75Z"/><path class="cls-6" d="M305.8,294.58c-.06.81-.11,1.63-.17,2.43C305.21,296.16,305,295.33,305.8,294.58Z"/><path class="cls-6" d="M298.06,305.63c-.12.85-.25,1.69-.37,2.53C297.56,307.28,297.1,306.35,298.06,305.63Z"/><path class="cls-6" d="M929.56,225.73a2.29,2.29,0,0,1,1.89.58C930.73,226.42,930,226.56,929.56,225.73Z"/><path class="cls-6" d="M890.14,321.44c1.07,2.11,2.64,4.17.46,6.55a1.68,1.68,0,0,0-.28,1.42c3,7.76,1,15.81,1.24,23.7.36,15.13,0,30.27.19,45.4.08,6,2.3,11.86,1.39,17.95-1.25,1.44-.49,3.17-.7,4.76-.33,2.46.73,5.06-.75,7.41-1.12-12.82-.85-25.69-1.23-38.53-.6-20.24-.84-40.5-1.13-60.75,0-2.57-.16-3.55-3-2a90.3,90.3,0,0,1-40.56,10.76c-4,.09-1.65,3.23-2.64,4.73a7.63,7.63,0,0,1-.43-2.52c.66-3.76-.9-5.52-4.63-5.52.66-.6,1.4-.29,2.15-.25a81.73,81.73,0,0,0,21.94-1.71A101.67,101.67,0,0,0,890.14,321.44Z"/><path class="cls-8" d="M891.69,428.63c1.48-2.35.42-4.95.75-7.41.21-1.59-.55-3.32.7-4.76q0,14.13,0,28.26H892A135,135,0,0,1,891.69,428.63Z"/><path class="cls-6" d="M665,453.14c2.26,6,1.32,12.22,1.47,18.37H665l-.06-.9c0-.9,0-1.79,0-2.69Q664.91,460.53,665,453.14Z"/><path class="cls-8" d="M664.9,470.6l.06.9a3.85,3.85,0,0,1-.24-.61C664.7,470.81,664.83,470.69,664.9,470.6Z"/><path class="cls-9" d="M285.7,445.75c.56-11.91,2.58-23.68,3.55-35.55.08-1,.1-2,.15-3l.18-.07h.19c1.64-.31,2.35-1.87,3.6-2.7,10.49-7,21.19-13.69,31.35-21.12,9-6.62,18.55-12.54,27.43-19.34,3.78-2.9,8.17-5,11.26-8.8l0,6c-.37,8-.62,16-1.16,24-.24,3.58.4,7.32-1.36,10.72a10.45,10.45,0,0,0-5.79,3.4,4.41,4.41,0,0,1-3.56,1.95c-.75,0-1.76.05-1.85,1-.53,5.21-5.46,5.76-8.6,8.15-2.29,1.75-4.23,3.86-6.93,5.22-2.31,1.16-5,.31-7.12,2.23-4.84,4.31-10.9,6.86-15,12.54A18.88,18.88,0,0,1,300,437.8c-3.35.5-5.23,3.29-8,4.77C290,443.7,288.06,445.17,285.7,445.75Z"/><path class="cls-6" d="M360.92,395.83c1.76-3.4,1.12-7.14,1.36-10.72.54-8,.79-16,1.16-24l1.2-1.42c0,7.51.59,15.08-.15,22.52-.49,4.84-1.48,9.63-1.43,14.55,0,.7-.64,1-1.29,1.21C361.49,397.28,361.2,396.56,360.92,395.83Z"/><path class="cls-10" d="M1047.8,287.4a92.88,92.88,0,0,0-2.89,19.53c-.17,3.29-1.65,4.59-4.53,5.53-9.39,3.08-19.07,2.94-28.75,2.9-2.42,0-4.84-.15-7.25-.1-2.79.06-4-.77-3.87-4,.31-8.25.85-16.54-.67-24.75a68.76,68.76,0,0,0-8.44-21.92v0a36.57,36.57,0,0,0-4.68-9.48l-.63-1.45a1.48,1.48,0,0,0-.78-1.43l.05,0a50.71,50.71,0,0,0-4.71-10.3l0-.19c-1.17-6-1.82-12-.78-18.11l2.13-3.42c4.94,0,8.7,2.46,12,5.78a22,22,0,0,0,2.42,2.41,63.8,63.8,0,0,1,14.64,14.23c.92,1.26,2.48,2.78,1,4.4-1.23,1.35-3.12.94-4.69.31a34.19,34.19,0,0,1-5.49-2.63A79.26,79.26,0,0,1,991.59,237c-2.39-2.13-4.84-4.17-8.18-4.6-1.08-.14-2.21,0-2.43,1.24-.18,1,.66,1.68,1.6,1.82,3.11.47,5.15,2.64,7.38,4.52a71.77,71.77,0,0,0,13.49,9.3c3.29,1.67,6.64,2.69,10.21.91,1.74-.87,2,.12,2,1.47-.17,9.18,3.91,16.7,9.28,23.7.77,1,1.35,3,3.13,1.85,1.62-1.05.64-2.6-.28-3.62-6.88-7.63-9.16-16.83-9.45-26.78-.23-8-3.75-14.14-10.15-19.15s-11.12-11.61-11.83-20.2c-.18-2.21-1-5.08,1.5-6.24s3.91,1.45,5.31,2.9A117,117,0,0,0,1031.47,226a37.89,37.89,0,0,1,13.41,11.7l3,7.89c1.81,9.9,1.78,19.9,1.61,29.91a1.94,1.94,0,0,0,0,1.83,30.24,30.24,0,0,0-1.49,8.9Z"/><path class="cls-10" d="M1039.77,214.17c.09,2,.19,4.06.28,6.09v7.23c-3.46-2.11-6.49-4.14-9.69-5.86-13.25-7.14-23-18.63-34.48-27.88-3.26-2.61-2.22-7.09-4.65-10l-.8-.95c-.7-8.27-3.87-15.95-5.84-23.91-2.06-8.28-3.89-16.6-5.36-25a25,25,0,0,1,.53-9.88c.34-1.49.59-3.22,2.5-3.39s2.77,1.36,3.46,3c4.65,10.91,8.08,22.25,11.84,33.47,4.14,12.35,8.92,24.4,16.39,35.19,1.12,1.63,2.07,3.92,4.47,3.6s2.64-2.93,3.2-4.74c3-9.75,4.55-19.83,6.37-29.85,1.74-9.5,3.58-19,6.26-28.29a20.29,20.29,0,0,1,1.48-4.33c1-1.84,1.1-5,4.14-4.68,2.81.35,4.11,2.88,4.73,5.44a40.75,40.75,0,0,1,.73,13.31c-.23,2.53-.35,5.07-.52,7.61q-2.3,13.59-4.58,27.17v.28C1037.6,189.86,1039.68,202,1039.77,214.17Z"/><path class="cls-8" d="M991.23,183.73c2.43,2.93,1.39,7.41,4.65,10,11.52,9.25,21.23,20.74,34.48,27.88,3.2,1.72,6.23,3.75,9.69,5.86v-7.23c2.64,1.09,1.86,3.46,1.63,5.27-.4,3.28-.3,6.23,2.39,8.58,1.11,1,.72,2.34.81,3.57a37.89,37.89,0,0,0-13.41-11.7,117,117,0,0,1-28.34-21.85c-1.4-1.45-3-4-5.31-2.9s-1.68,4-1.5,6.24c.71,8.59,5.37,15.16,11.83,20.2s9.92,11.12,10.15,19.15c.29,9.95,2.57,19.15,9.45,26.78.92,1,1.9,2.57.28,3.62-1.78,1.15-2.36-.84-3.13-1.85-5.37-7-9.45-14.52-9.28-23.7,0-1.35-.22-2.34-2-1.47-3.57,1.78-6.92.76-10.21-.91A71.77,71.77,0,0,1,990,240c-2.23-1.88-4.27-4.05-7.38-4.52-.94-.14-1.78-.81-1.6-1.82.22-1.25,1.35-1.38,2.43-1.24,3.34.43,5.79,2.47,8.18,4.6a79.26,79.26,0,0,0,10.37,7.78,34.19,34.19,0,0,0,5.49,2.63c1.57.63,3.46,1,4.69-.31,1.48-1.62-.08-3.14-1-4.4a63.8,63.8,0,0,0-14.64-14.23,22,22,0,0,1-2.42-2.41c-3.34-3.32-7.1-5.78-12-5.78q0-4.22.05-8.44a4,4,0,0,1,1.61,2.52c.66,2.62,2.37,3.53,5.36,3.53-1.66-2.16-3-4-4.43-5.75-.73-1-1.48-2-2.54-.3-1.79-2.81-5.52-4.58-4.67-8.79a4.5,4.5,0,0,1,5,1.73c3,3.58,6.07,7.06,9.13,10.58a1.46,1.46,0,0,0,1,1.28l.07.07a60.24,60.24,0,0,0,18.46,19c-5.72-6.17-12.21-11.63-16-19.38-1.11-4.88-3.87-9.93-1.43-14.73,1.88-3.69.53-5.46-1.85-7.51-1.44-1.24-2.89-2.45-4.33-3.68C991.67,189.87,991.56,186.87,991.23,183.73Z"/><path class="cls-10" d="M987.43,190.39c1.44,1.23,2.89,2.44,4.33,3.68,2.38,2.05,3.73,3.82,1.85,7.51-2.44,4.8.32,9.85,1.43,14.73l-2.45.41-.06-.07c0-.73-.15-1.29-1-1.28-3.06-3.52-6.16-7-9.13-10.58a4.5,4.5,0,0,0-5-1.73c-2.22-4.67-1.44-9,1.62-13a7.14,7.14,0,0,1,7.56-.29C986.73,190.19,986.91,190.52,987.43,190.39Z"/><path class="cls-4" d="M1074.71,346c2.52,3.14,5.53,5.91,7.38,9.58-3.27,1.8-7,.85-10.43,1.84a71.53,71.53,0,0,1-6.42-9.89C1068.59,348.26,1071.39,345.57,1074.71,346Z"/><path class="cls-9" d="M1074.71,346c-3.32-.47-6.12,2.22-9.47,1.53a2.72,2.72,0,0,1-.54-.15l-6.11-9.91c2.41-1.35,5.45.14,7.76-1.7l1.89,1.67C1070.09,340.56,1073.2,342.7,1074.71,346Z"/><path class="cls-7" d="M1071.66,357.46c3.41-1,7.16,0,10.43-1.84,4.44,5.39,4.13,6.72-1.85,9.84-2.3,1.19-3.64,1-4.78-1.45C1074.39,361.73,1072.94,359.64,1071.66,357.46Z"/><path class="cls-8" d="M1049.46,275.48c.17-10,.2-20-1.61-29.91.57-.08,1.33-.54,1.52.42,1.87,9.13,1.77,18.39,1.6,27.64A1.7,1.7,0,0,1,1049.46,275.48Z"/><path class="cls-8" d="M1039.77,214.17c-.09-12.14-2.17-24.31.46-36.41q0,16.74.06,33.48A4.54,4.54,0,0,1,1039.77,214.17Z"/><path class="cls-8" d="M1040.23,177.48q2.3-13.59,4.58-27.17a64.4,64.4,0,0,1-2.93,22.32C1041.4,174.27,1042.93,176.6,1040.23,177.48Z"/><path class="cls-4" d="M1059.41,350.51c0-.31,0-.62,0-.94.46-.74.92-1.49,1.37-2.24a2.49,2.49,0,0,0,.51.27l5.73,9.28c-.34,1.58-1.57,1.2-2.63,1.19C1062.38,355.79,1061.69,352.62,1059.41,350.51Z"/><path class="cls-7" d="M1064.4,358.07c1.06,0,2.29.39,2.63-1.19,1.24,1.87,2.51,3.73,3.71,5.63.61,1,1.26,2-.42,2.72-1.39.6-2.37.44-3-1.06C1066.37,362.12,1065.36,360.1,1064.4,358.07Z"/><path class="cls-8" d="M979.91,223.71c-1,6.09-.39,12.11.78,18.11-.44-.23-1.18-.38-1.27-.7-1.59-6.06-3.34-12.15-.2-18.23C979.47,222.41,979.73,223.36,979.91,223.71Z"/><path class="cls-8" d="M980.65,242a50.71,50.71,0,0,1,4.71,10.3C982.24,249.59,980.25,246.34,980.65,242Z"/><path class="cls-8" d="M986.72,255.16a36.57,36.57,0,0,1,4.68,9.48C988.64,262.08,986,259.45,986.72,255.16Z"/><path class="cls-6" d="M987.43,190.39c-.52.13-.7-.2-.83-.6s0-1,0-1.57c2.82.24,4.42-.49,3.18-3.76-.16-.43.38-1.11.6-1.68l.8.95C991.56,186.87,991.67,189.87,987.43,190.39Z"/><path class="cls-8" d="M1047.92,286.21a30.24,30.24,0,0,1,1.49-8.9q0,3.18,0,6.34C1049.47,284.82,1049.42,286,1047.92,286.21Z"/><path class="cls-8" d="M986.65,188.22c0,.52,0,1.05,0,1.57a7.14,7.14,0,0,0-7.56.29c.34-2.71,2.41-2.46,4.26-2.39A24.29,24.29,0,0,1,986.65,188.22Z"/><path class="cls-8" d="M985.31,252.28a1.48,1.48,0,0,1,.78,1.43C984.22,254.12,985.54,252.77,985.31,252.28Z"/><path class="cls-11" d="M517.59,261.7l-.36,1.5a11.2,11.2,0,0,0-1.5,4.6,20.08,20.08,0,0,0-.84,2.88c-.68,4.93-1.58,9.68-7.19,11.52-2.41-1.13-5-.3-7.48-.62-2.71-.36-3.4-2.55-3.59-4.62a3.13,3.13,0,0,1,3.35-3.71c2.33,0,4.44-1,6.6-1.71,1.23-.42,3.14-.4,2.38-2.52-.65-1.82-2.18-.81-3.28-.56-2.85.65-5.52,2.83-8.64.63-.51-.36-1.31.33-1.77,1.07-2.86,4.64-2.63,9.39,1.35,13.22,3.21,3.09,4.29,6.77,4.51,10.92.1,1.9-.07,3.82-.05,5.72,0,1.27-.88,3.18,1.32,3.27,2,.09,1.72-1.85,1.88-3.16.48-3.82.77-7.9-.91-11.27-2.21-4.42-.83-5.31,3.31-5,.41,0,.86-.47,1.28-.72.17.19.35.56.5.55,6.23-.42,6.39-.37,4.31,5.6-1.91,5.51-4.23,10.88-6.36,16.31a16.65,16.65,0,0,0-1.4,6.64,40,40,0,0,0-1.62,10.51c-.12,4.27-1.83,6.94-5.87,8.51-3.35,1.3-6.3,3.65-9.85.16-1.68-1.65-4.39-.78-5.43.9-2.21,3.61-5,2.53-7.81,1.65-5.53-1.7-6-2.52-5.37-8.1.33-3,.46-6,.69-9.07,0-2,0-4.06,0-6.1.06-5.82-1.81-11.26-3.36-16.76-2.29-8.17-5.84-16-6.37-24.63a41,41,0,0,0-6.09-18.62v-.06c-2.53-8.4-1.7-11.07,6.32-14.89,13.08-6.24,26-12.86,39.89-17.29,10-3.21,13.15-.55,11.38,10-.1.63-.28,1.24-.41,1.86-.81,3.85-5.95,7.36-8.51,4.93-3.65-3.48-5.29,0-7.78.55-1,.24-1.95.56-2.94.73-6.28,1.05-12.57,2-18.82,3.14-4.25.79-8.44,1.93-12.65,2.92-1.1.25-2,.91-1.79,2.09.21,1.38,1.43,1.21,2.44,1.1a12.22,12.22,0,0,0,1.87-.4,201,201,0,0,1,36.81-6.35c5.27-.41,10.58-2.12,15.9-.28l.1.17.19-.06c1.61,3.56.54,7.13.07,10.69l-1.13,2.61c-14.85-.59-29.43,1.5-43.94,4.42-5.28,1.06-7.64,4.56-8.5,9.47-.26,1.5-1.65,3.65.53,4.32,2.55.77,2.24-2,2.47-3.34.84-4.81,3.51-7.09,8.34-8a209.28,209.28,0,0,1,37.94-3.79C517.84,255.2,518.18,255.52,517.59,261.7Z"/><path class="cls-11" d="M501.77,333.37a5.88,5.88,0,0,1,.2.67c2.22,13.6-7.29,19.93-16.41,26.53a3,3,0,0,1-3.2.45c-3.58-1.49-5.83.21-7.51,3.19-1.41,2.5-7,4.3-9.65,3.24-1.26-.52-.9-1.39-.8-2.18,1.11-9.37,2.29-18.73,3.4-28.09.22-1.9.78-2.53,2.62-1.37a14.15,14.15,0,0,0,5.77,1.86c2.11.27,3.58.7,4.48,3.18,1.14,3.12,7.37,3.41,8.93,0,2.22-4.86,6.87-4.93,10.38-7.17A1.67,1.67,0,0,1,501.77,333.37Z"/><path class="cls-10" d="M483.19,367.68c-.1,1.56-.37,3.1-2.25,2.95a3.68,3.68,0,0,1-3.38-3.56c-.13-1.47.45-3.23,2.39-3.26C482.48,363.77,482.8,365.87,483.19,367.68Z"/><path class="cls-3" d="M513.15,325.14c-1.21.37-2.85,1.72-3.39-.39a6.21,6.21,0,0,1,1.46-6.25c.61-.58,1.27.24,1.76.87,1.09,1.41.81,3.09,1,4.66Z"/><path class="cls-10" d="M507.82,348.52c-.55,2-1.16,3.92-3.54,3.89a1.58,1.58,0,0,1-1.52-2.14c.62-1.89,1.13-4.14,3.65-4.24C508.16,346,507.46,347.67,507.82,348.52Z"/><path class="cls-10" d="M483.26,337.19c.22-1.58.75-3.07,2.71-2.94,1.53.11,2.1,1.51,2,2.77-.08,2-1.73,2.82-3.43,2.82S483.2,338.37,483.26,337.19Z"/><path class="cls-3" d="M460,329c-1.3.15-1.61-.78-1.56-1.66.07-1.35.15-3,1.83-3.32,1.08-.21,1.86.74,1.94,1.89A2.9,2.9,0,0,1,460,329Z"/><path class="cls-10" d="M460.62,369.68c-.17,1.16-.22,2.4-1.63,2.2s-1.7-1.41-1.81-2.58.2-2,1.63-1.92S460.4,368.72,460.62,369.68Z"/><path class="cls-8" d="M469.73,310.67c0,2,0,4.07,0,6.1l-.87,0v-6.13Z"/><path class="cls-5" d="M513.15,325.14,514,324Z"/><path class="cls-12" d="M314.06,291.33c-1.49.61-2.37,2.27-4.32,2.57,1.11-7.51,2.46-14.85,3.22-22.24,1.15-11.14,1.74-22.33,2.83-33.47,1.91-19.46-.37-39,1.14-58.46a78.93,78.93,0,0,1,3.53-16.66h0c2.19-1.47,2.5-4.39,4.56-6a12,12,0,0,0,3.17-4l-.05,0c3-2.69,5.89-5.51,9-8s6.4-4.13,10.5-2.7l-.07-.07a9.82,9.82,0,0,1,1.64,7.64c-1.82,9.61-7,18-10.19,27.09-.35,1-1.31,2.13-2.61,1.83a3,3,0,0,1-2.19-2.82,24.41,24.41,0,0,1,.13-7.24,61.23,61.23,0,0,1,3.52-13.23c.42-1,.87-2.25-.53-3s-1.89.28-2.27,1.22c-2.91,7.16-4.77,14.56-4,22.34.4,4.29,2.67,6.28,6.7,6,1.91-.13,2.14.61,2.29,2,.21,2.08,1.4,4.37,3.31,4,3.33-.6,5.83.87,8.68,1.91-1.4,2.56-3.17,4.93-3.8,7.85-.2.9-.39,1.87.69,2.29a1.52,1.52,0,0,0,2.11-1.07c2.71-8.42,9.47-13.33,15.91-18.54,6.25-5.05,12-10.29,15.41-18,3.66-8.32,3.09-15-3.65-21.31-2.46-2.28-3.93-5.36-2.91-9,2.31-3.22,4.49-2.65,7.2-.21a83.92,83.92,0,0,0,18.13,12.57c3.48,1.77,4.36,4.52,3.08,7.56-4.13,9.8-5.11,20.47-8.78,30.37a51.8,51.8,0,0,1-9.81,16.17,268,268,0,0,0-19.07,24.28,8.8,8.8,0,0,0-1.93,4.47c-2.47,4.12-3,8.68-3.12,13.36v0c-1.3,6-.77,12.18-.86,18.28,0,1.78-.34,2.67-2,3.51C342.85,270.72,328.17,280.59,314.06,291.33Z"/><path class="cls-8" d="M375.81,132.34c-1,3.64.45,6.72,2.91,9,6.74,6.28,7.31,13,3.65,21.31-3.42,7.75-9.16,13-15.41,18-6.44,5.21-13.2,10.12-15.91,18.54a1.52,1.52,0,0,1-2.11,1.07c-1.08-.42-.89-1.39-.69-2.29.63-2.92,2.4-5.29,3.8-7.85-2.85-1-5.35-2.51-8.68-1.91-1.91.35-3.1-1.94-3.31-4-.15-1.44-.38-2.18-2.29-2-4,.29-6.3-1.7-6.7-6-.73-7.78,1.13-15.18,4-22.34.38-.94.95-1.94,2.27-1.22s.95,2,.53,3a61.23,61.23,0,0,0-3.52,13.23,24.41,24.41,0,0,0-.13,7.24,3,3,0,0,0,2.19,2.82c1.3.3,2.26-.84,2.61-1.83,3.15-9.13,8.37-17.48,10.19-27.09a9.82,9.82,0,0,0-1.64-7.64,30.42,30.42,0,0,0,8.36-2.81c2.92-1.4,5.12-.39,4.89,2.08-1-.27-2.07-.94-2.91-.72-2.23.6-6,.06-5.55,3.68.77,6.83-1.65,12.75-4.1,18.75s-6,11.56-5.13,18.42c.14,1.07-.47,2.57.72,3.1,1.46.65,2.38-.8,3-1.79,3.87-6.27,8.67-11.94,11.84-18.65a39.16,39.16,0,0,0,4.08-17.68c1.84,0,1.89-1.21,1.91-2.57s-.4-2.58.79-3.55c-.47,3.9,1.11,7.68.41,11.67a56.36,56.36,0,0,1-9.61,22.63c-1.89,2.71-3.66,5.5-5.42,8.3a2,2,0,0,0-.07,2.49c.86.92,1.64.11,2.36-.34s1.43-1,2.15-1.56c11.75-8.33,14.29-21.69,18.62-34.06a11.12,11.12,0,0,0,.22-5.29c2.18-1.73,1-3.53.42-5.59S372.08,133.87,375.81,132.34Zm-7.39,41.94a1.1,1.1,0,0,0,1.4-.05c6.94-5.37,10.27-12.83,11.88-21.14.58-3-1.62-4.9-3.91-7.1a47.49,47.49,0,0,1-3.5,13.41c-2.05,4.92-3.87,9.95-5.79,14.93-.37.13-.64.32-.44.77,0,.06.27.11.31.07C368.62,174.89,368.84,174.6,368.42,174.28Z"/><path class="cls-8" d="M314.06,291.33c14.11-10.74,28.79-20.61,44.61-28.68,1.64-.84,2-1.73,2-3.51.09-6.1-.44-12.24.86-18.28q.09,8.12.16,16.21c-.08,2.44-.51,4.87,3.4,4.77,2.08,0,2.71,1.92,2.7,3.91,0,12.59,1.17,25.32-.37,37.72-1.63,13.18-.39,26.26-1.24,39.35l-1.41.08-.43-.35q.21-9,.4-18.05c0-.27,0-.54-.05-.81l0-2.23c1-9.63.91-19.31,1.09-29a2.25,2.25,0,0,0-.09-2.71.63.63,0,0,0-.05-.61c1.11-6.83.64-13.71.52-20.56-.11-5.7-.33-5.73-5.62-3.11-17.61,8.72-33.63,19.91-49,32-4.38,3.44-9.53,6.49-11,12.57l-.11-4.72,6.2-6.18.71-.74.81-1.57C310.23,295.22,314.15,295.45,314.06,291.33Z"/><path class="cls-12" d="M362.8,146.76a39.16,39.16,0,0,1-4.08,17.68c-3.17,6.71-8,12.38-11.84,18.65-.61,1-1.53,2.44-3,1.79-1.19-.53-.58-2-.72-3.1-.91-6.86,2.7-12.47,5.13-18.42s4.87-11.92,4.1-18.75c-.42-3.62,3.32-3.08,5.55-3.68.84-.22,1.93.45,2.91.72A13,13,0,0,1,362.8,146.76Z"/><path class="cls-12" d="M374.16,144.48a11.12,11.12,0,0,1-.22,5.29c-4.33,12.37-6.87,25.73-18.62,34.06-.72.51-1.4,1.1-2.15,1.56s-1.5,1.26-2.36.34a2,2,0,0,1,.07-2.49c1.76-2.8,3.53-5.59,5.42-8.3a56.36,56.36,0,0,0,9.61-22.63c.7-4-.88-7.77-.41-11.67a2.53,2.53,0,0,0,2.27-.81c2.78-.29,4.51,1.33,6.05,3.31Z"/><path class="cls-8" d="M347.68,142.45c-4.1-1.43-7.47.31-10.5,2.7s-6,5.32-9,8c2.8-7.19,10.53-12.9,16.92-12.51C346.29,140.73,347.74,140.48,347.68,142.45Z"/><path class="cls-6" d="M361.67,257.07q-.07-8.1-.16-16.21v0l1.61.05c0,4.25.05,8.51,0,12.76C363.12,255,363.66,256.62,361.67,257.07Z"/><path class="cls-8" d="M364.64,359.73l-1.2,1.42,0-6c0-.93.09-1.86.13-2.79a5.79,5.79,0,0,0,.21-3.27l.21-6.37a.77.77,0,0,0,.36-.18l.43.35c.3,4.07-.83,8.21.68,12.21C365.17,356.65,364.91,358.19,364.64,359.73Z"/><path class="cls-8" d="M363.12,241l-1.61-.05c.08-4.68.65-9.24,3.12-13.36C365,232.11,362.18,236.33,363.12,241Z"/><path class="cls-6" d="M365.43,355.11c-1.51-4-.38-8.14-.68-12.21l1.41-.08C366.08,346.92,366.78,351.08,365.43,355.11Z"/><path class="cls-8" d="M373.82,143.14c-1.54-2-3.27-3.6-6.05-3.31C372.15,138.39,373.56,139.16,373.82,143.14Z"/><path class="cls-8" d="M328.19,153.12a12,12,0,0,1-3.17,4c-.06-.38-.11-.76-.17-1.14,0-1,.1-1.94.16-2.92Z"/><path class="cls-11" d="M813.55,249c-3.88-2.58-8.38-3.69-12.73-5.06s-7.21-4.17-7.83-8.48c-2.12-14.88-5.4-29.62-5.31-44.75,0-2.46.85-4.75,2.94-5.93,8.61-4.88,16.8-10.73,26.66-13,5.78-1.33,11.69-.51,17.53-.28,1.89.08,3.88.92,3.49,3.59-.33,2.29-1.76,3.27-4,3.26-2.68,0-5.38-.25-8,0-9.8.8-16.44,7.5-23.69,13-1,.75-.93,2.07-.81,3.22.51,5.06.9,10.14,1.69,15.15.28,1.77-.51,3-1,4.31-2,4.83-4,9.64-5,14.77-.28,1.39-1,3.37,1.22,3.66s1.55-1.86,1.91-3.08A209.18,209.18,0,0,1,815.39,193c2.79-5.47,5.83-6.31,13.59-5.48-4.31,2.32-5.76,6.16-7.43,9.93a165.13,165.13,0,0,1-11.44,21.6c-1.66,2.61-3,5.39-1.36,8.59.58,1.09,1.37,2.07,2.66,1.61,1.6-.57,1-1.74.39-2.8-1.15-2-.08-3.79.91-5.36A177.2,177.2,0,0,0,826,195.38c1.62-3.84,4.2-4.76,7.89-4a31.75,31.75,0,0,1,9.23,3.54c6,3.28,11.59,7.39,18,10.08.93.4,2.09.83,2,2.06-.14,1.43-1.58,1.58-2.62,1.82a12.42,12.42,0,0,1-7.85-1,132,132,0,0,0-13.64-4.93,8,8,0,0,1-1.47-.41c-3.94-2.17-4-2.2-4.61,2.53a22.09,22.09,0,0,1-2.91,8.63c-1.91,3.19-.63,5.15,2,6.52,7.08,3.75,14.45,6.93,21.17,11.36.65.43,1.51.81,2.16.39,5.12-3.34,10.9-1.05,16.31-2,2.38-.41,3.76,1.69,4.89,3.63,3.41,5.88,4.34,12.44,5.26,19,.21,1.5.48,3,.72,4.49.43,5.44.84,10.89,1.33,16.32.14,1.57.38,3-1.43,3.87-8,4-16.14,7.47-25,8.92-7.07,1.16-7.08,1.08-7.44-5.82a1.55,1.55,0,0,0-.13-.36c-.11-2.66-.23-5.32-.32-8,0-1.07-.6-2.19.68-3.1,2.42-1.72.81-2.66-.85-3.43q-15.54-7.22-31.1-14.4a6.21,6.21,0,0,0-3-1.23A1.33,1.33,0,0,0,813.55,249Z"/><path class="cls-7" d="M890.14,321.44a101.67,101.67,0,0,1-28,11.36,81.73,81.73,0,0,1-21.94,1.71c-.75,0-1.49-.35-2.15.25-2-3.28-1.37-6.77-.81-10.26a58.68,58.68,0,0,1,7.59.46,46.56,46.56,0,0,0,18.93-.95A58.4,58.4,0,0,0,888.06,311c1.45-1.34,2.8-3,5-3.38.06,2.38,0,4.78.22,7.14A6.53,6.53,0,0,1,890.14,321.44Z"/><path class="cls-9" d="M837.4,316.85c0-1-.11-2.07-.17-3.11.2-2.12.39-4.24.59-6.35-.05,2.4,1.23,3.32,3.51,3.27s4.84,0,7.25,0a50.46,50.46,0,0,0,22.17-4.28c6-2.62,10.77-7,16.3-10.13,4.25-2.46,5.33-5.84,4.7-10.28a5,5,0,0,1,.24-1.49c1,5.37.58,10.77.38,16.17-4.47,1.76-7.71,5.35-11.56,8-8.48,5.89-17.91,8.43-28,9.63C847.51,319,842.62,316.51,837.4,316.85Z"/><path class="cls-4" d="M837.4,316.85c5.22-.34,10.11,2.12,15.44,1.48,10.06-1.2,19.49-3.74,28-9.63,3.85-2.67,7.09-6.26,11.56-8,.08.53.15,1.07.23,1.6a9.46,9.46,0,0,1,.43,5.29c-2.17.36-3.52,2-5,3.38A58.4,58.4,0,0,1,863.77,324a46.56,46.56,0,0,1-18.93.95,58.68,58.68,0,0,0-7.59-.46h0c0-1.07,0-2.14-.07-3.21Z"/><path class="cls-8" d="M892.6,302.28c-.08-.53-.15-1.07-.23-1.6.2-5.4.66-10.8-.38-16.17l-.1-.16-.3-5.06c0-1.64.32-3.32-1-5-1.45,3.2-4.3,4.6-7.13,6a96.19,96.19,0,0,1-16.5,6.93c-7.5,2.19-15.07,3.64-23,2.33-1.55-.25-3-3-4.51-.85-1,1.33-1,3.37-1.33,5.11a10.86,10.86,0,0,0,0,2.28l-.06,6.85-.27,4.39c-.2,2.11-.39,4.23-.59,6.35-1.57-4.44-.41-9-.68-13.53a73.22,73.22,0,0,1,0-8.38c.16-3.45,4.29-7.8,8.09-8.72.7-.17,2.13,0,1.93-.64-1.05-3.74,1.84-2,3.16-2.45a1.55,1.55,0,0,1,.13.36c.36,6.9.37,7,7.44,5.82,8.87-1.45,17-4.92,25-8.92,1.81-.91,1.57-2.3,1.43-3.87-.49-5.43-.9-10.88-1.33-16.32H884c.26,4-.49,8.11,1.48,12,.63,1.23,1.34,2.33,2.39,1.47,3.59-3,3.7.82,4.94,2.36a2.2,2.2,0,0,1,.37,1.44c-.87,8.14,2.27,16,1.61,24.12C894.61,300.11,894.88,301.88,892.6,302.28Z"/><path class="cls-6" d="M815.16,249.88a6.21,6.21,0,0,1,3,1.23,1.43,1.43,0,0,1-1.93,1.22C814.87,252,815.17,250.85,815.16,249.88Z"/><path class="cls-7" d="M837.19,321.29c0,1.07,0,2.14.07,3.21A2.8,2.8,0,0,1,837.19,321.29Z"/><path class="cls-13" d="M996.09,319.91c-.18-1.61-.53-3,2.16-2.57a113.8,113.8,0,0,0,39.77-.76c1.24-.25,2.5-.45,3.74-.67a13.94,13.94,0,0,0,6.2.92c1.17,0,2.6-.49,3.06,1.27-3.22,4.57-7.72,7.26-13,8.84-.68-1-1.72-.95-2.74-.92-11.3.29-22.34-2.29-33.54-3.17C999.51,322.67,997.32,322.17,996.09,319.91Z"/><path class="cls-14" d="M996.09,319.91c1.23,2.26,3.42,2.76,5.67,2.94,11.2.88,22.24,3.46,33.54,3.17,1,0,2.06-.07,2.74.92a47.63,47.63,0,0,1-19.26,3.51c-4.94-.15-9.88-.46-14.81-.8C996.76,329.14,995.31,327.3,996.09,319.91Z"/><path class="cls-14" d="M1066.35,335.81c-2.31,1.84-5.35.35-7.76,1.7L1050,326.05c2.15,0,4.32,1.16,6.44-.13A82.34,82.34,0,0,1,1066.35,335.81Z"/><path class="cls-15" d="M1051,318.1c-.46-1.76-1.89-1.28-3.06-1.27a13.94,13.94,0,0,1-6.2-.92c3-2.39,7.36-3.12,8.9-7.54C1051.94,311.6,1052.78,314.77,1051,318.1Z"/><path class="cls-9" d="M1060.79,347.33c-.45.75-.91,1.5-1.37,2.24q-3.53-5.76-7-11.53l-2-4,.85-.66A106.68,106.68,0,0,1,1060.79,347.33Z"/><path class="cls-13" d="M1056.39,325.92c-2.12,1.29-4.29.1-6.44.13-1.94-2,.88-2,1.34-3a1.37,1.37,0,0,1,2.3-.15C1054.51,323.91,1056,324.41,1056.39,325.92Z"/><path class="cls-8" d="M295.66,339.75c0-1.52.09-3,.13-4.57,1.46,1.76.52,3.83.72,5.75-.06,1.39,0,2.79-.2,4.17-1,8.67-2.27,17.31-2.74,26-1.9,11.05-2.52,22.25-3.67,33.38l-.09,1.15,0,1.46h-.19l-.18.07c-2.07-.84-1.65-2.79-.93-3.83,1.38-2,1.25-4.12,1.12-6.22-.49-7.72,1.58-15.22,2-22.89.24-4.76-.08-10,1.43-14.47,1.9-5.61-.09-11.61,2.65-16.91C295.66,341.82,295.66,340.79,295.66,339.75Z"/><path class="cls-6" d="M296.51,340.93c-.2-1.92.74-4-.72-5.75a102,102,0,0,1,3-22.81c.59-2.32-1.16-5.17,1.58-7,0,1.58.07,3.15.11,4.72l-3.09,26.63Z"/><path class="cls-6" d="M295.66,339.75c0,1,0,2.07,0,3.11C294.43,341.82,293.13,340.78,295.66,339.75Z"/><path class="cls-6" d="M307.24,298.45l-.71.74Z"/><path class="cls-8" d="M1048.71,334.45l-.18.26c0-.1.09-.2.14-.31Z"/><path class="cls-7" d="M666.67,386.6a6.67,6.67,0,0,1-1.79,5.12l-2.23.34a94,94,0,0,1-15.17,1.52c-10.3,0-20.59.06-30.79-1.66l-5.91-1.68a7,7,0,0,0-4-1.45h0a1.29,1.29,0,0,0-1.46-.94l.05.1-.9-.58-.15-.07c0-.43-.09-.86-.14-1.28a25.39,25.39,0,0,1,2.62.12c8.67,1.17,17.32,2.45,26.1,2.71A170,170,0,0,0,666.67,386.6Z"/><path class="cls-5" d="M616.69,391.92c10.2,1.72,20.49,1.7,30.79,1.66a94,94,0,0,0,15.17-1.52,6.2,6.2,0,0,1-5.71,2.88c-9.83-.05-19.67.35-29.46-.22C623.93,394.52,619.85,394.45,616.69,391.92Z"/><path class="cls-5" d="M606.75,388.79a7,7,0,0,1,4,1.45C609.33,390.06,607.37,391.28,606.75,388.79Z"/><path class="cls-5" d="M605.29,387.85a1.29,1.29,0,0,1,1.46.94C606.07,388.78,605.48,388.62,605.29,387.85Z"/><path class="cls-5" d="M604.44,387.37l.9.58Z"/><path class="cls-4" d="M666.67,386.6a170,170,0,0,1-33.8,2.25c-8.78-.26-17.43-1.54-26.1-2.71a25.39,25.39,0,0,0-2.62-.12c-2.71-.87-3.08-3.08-3-5.45,0-1.89.24-3.77.37-5.66,1.17-1.58,2.75-1.66,4.43-1.15,6.27,1.91,12.85,1.49,19.21,2.65,3.2,2.71,6.43,5.38,9.6,8.12a5.58,5.58,0,0,0,6.74.69c4-2.15,7.93-4.56,10.78-8.3l1.12-.52a21.58,21.58,0,0,0,5.09-.74c3.15-.72,6.75-2.24,9.7.88A31.79,31.79,0,0,1,666.67,386.6Z"/><path class="cls-9" d="M625.14,376.41c-6.36-1.16-12.94-.74-19.21-2.65-1.68-.51-3.26-.43-4.43,1.15-.07-.5-.15-1-.23-1.5q.43-5.75.85-11.5c4.16.67,8.31,1.38,12.48,2,1.56.22,1.11-1.35,1.58-2.09,1.05,5.46,4.16,9.62,8.23,13.19Z"/><path class="cls-9" d="M744.43,171.21q-.25-4.19-.5-8.35v-1.49a5.74,5.74,0,0,0,0-4,.53.53,0,0,0,0-.6,24.85,24.85,0,0,0,0-6.89.47.47,0,0,0,0-.57c.14-.79.27-1.59.41-2.38a13.92,13.92,0,0,0,3.12,1.34c11.37,2,22.77,3.75,34.28,4.76,5.56.48,11.17.91,16.63,1.84a197.36,197.36,0,0,0,26.13,2.4c22.14.75,44.32,1,66.42-1.31,5.42-.55,10.85-1.14,16.23-2,8.13-1.26,16.24-2.73,24.35-4.11l.31.09q-.16,10.75-.34,21.5a5.39,5.39,0,0,0-1.89.06c-5.47,2.34-11.46,3.21-17.13,4-8.64,1.19-17.37,2.76-26,3.11-12.54.51-25,2.81-37.61,1.92-2.79-.2-5.53-.16-8-1.57,2.2-7.15.15-10.17-7.34-10.92-11.57-1.17-22.46.7-32.44,7-1.68,1.06-3.3,2.4-5.42,2.59a21.9,21.9,0,0,1-4.16-.48c-5.87-1.84-12-1.35-18-2.55-3.62-3.48-4.51-3.55-8.64-.67-.52-.32-1.08-1-1.57-.91C756.8,173.54,750.79,170.47,744.43,171.21Z"/><path class="cls-7" d="M931.42,195c0,8.42,0,16.84.18,25.25,0,2.52-1.28,2.95-3.3,3.07-13.36.79-26.73,1.49-40.07,2.49-11.18.83-22.43.14-33.55,1.91a3.89,3.89,0,0,1-2.52-.68c-5.59-3-11.15-6.1-16.83-8.95-2.18-1.09-2.58-2.32-1.81-4.54,2.79-8,3.93-8.58,12.22-5.07,3.16,1.34,6.21,3,9.61,3.66a13.06,13.06,0,0,0,4.94.26c5.77-1,7.46-4.23,4.93-9.38,4.28-.37,8.56-.86,12.85-1.1,10.74-.6,21.39-2,32-3.52C917.22,197.43,924.31,196.17,931.42,195Z"/><path class="cls-4" d="M931.42,195c-7.11,1.14-14.2,2.4-21.33,3.4-10.63,1.51-21.28,2.92-32,3.52-4.29.24-8.57.73-12.85,1.1a4.7,4.7,0,0,1-3.44-2.16,56.66,56.66,0,0,0,5.3-2.9c1.79-1.23,3.47-2.75,3.07-5.28s-2.36-3.38-4.36-3.71c-11-1.81-21.73-5.52-33.09-4.9a22.83,22.83,0,0,1-5,0c-7.7-1.29-12.53,2.4-16.15,8.74-1.9,3.32-2.72,7.14-5.13,10.26-.26.17-.28,0-.39-.27-2.7-7.13.4-11.21,6.41-15.19,6.6-4.37,13.15-6.88,21-5.89a8.79,8.79,0,0,0,7.23-2.76c2.5,1.41,5.24,1.37,8,1.57,12.61.89,25.07-1.41,37.61-1.92,8.66-.35,17.39-1.92,26-3.11,5.67-.79,11.66-1.66,17.13-4a5.39,5.39,0,0,1,1.89-.06Q931.44,183.24,931.42,195Z"/><path class="cls-11" d="M758.4,199.44c-.1-2.06-.14-4.17.87-6a144.55,144.55,0,0,0,7-15.25c.5-1.23,1.2-2.95,2.81-2.66s2,2.05,2.25,3.62A32.28,32.28,0,0,1,770,192.37c-1.6,5.76.26,11.38.61,17.06.1,1.65,1.67,2.48,3,3.29a32.51,32.51,0,0,0,11.34,4.38c1.43.26,2.28.7,2.43,2.31.28,3,.71,6.06,1.14,9.09.26,1.84-.39,2.41-2.12,1.69-7.5-3.13-15.23-5.72-22.45-9.53-1.94-1-2.43-2.88-3-4.66A68.26,68.26,0,0,1,758.4,199.44Z"/><path class="cls-8" d="M743.9,149.27a.47.47,0,0,1,0,.57c-1-.46-.63-1.56-1.17-2.37l-1.07,2.22c0-21.78,0-43.55-.13-65.32,0-2.68.88-3.41,3.5-3.53,6.73-.31,13.26,1.36,19.87,2,10.58,1,21.1,2.58,31.76,2.74.26,1.31,1.24,1.54,2.32,1.44,11.56-1,22.92,2,34.48,1.65,12.24-.35,24.51-.42,36.74.08,7.38.3,14.71-.76,22-.11,4.53.41,8.68-1.32,13-1.88,6.31-.82,12.74-1.3,19-2.87a1.67,1.67,0,0,0,1.18-1.36l1.53-.12c1.21,0,2.69.47,3-1.42l.07,0L933,81q0,33.8,0,67.59c0,.23,1.47,3-1.18,1.36l-.31-.09V128.4q0-11.12,0-22.22c0-6.5-.06-13,.18-19.5.12-3.23-1-3.49-3.76-2.72-16.42,4.57-33.29,6.16-50.24,6.71-14,.46-28,.24-42.06-.4-22.67-1-45.24-3.09-67.82-5.19-7.84-.73-15.62-2.37-23.55-1.89a21.69,21.69,0,0,0-.32,2.63Q743.88,117.55,743.9,149.27Z"/><path class="cls-7" d="M753.91,224.35c-3.19-1.36-7.12.18-10-2.53l-.06-1.4c.78-1.3.45-2.74.46-4.12,0-7.53,0-15.06,0-22.59l.38-.33L755.21,195c0,6.74.06,13.48,1.9,20,1,3.52,2,7.11,6.78,9.51l-5.45.34A8.47,8.47,0,0,0,753.91,224.35Z"/><path class="cls-4" d="M755.21,195l-10.46-1.62-.39-22.08.07-.09c6.36-.74,12.37,2.33,18.73,1.79.49-.05,1.05.59,1.57.91Z"/><path class="cls-4" d="M773.37,174.58c6,1.2,12.14.71,18,2.55a21.9,21.9,0,0,0,4.16.48c-.48.41-.88,1-1.43,1.2-8.76,3.32-10.76,10.12-9.67,18.56a9.66,9.66,0,0,1-.07,1.51c-3.76.8-7.5-1.93-11.27-.09-1-3.09.21-6,.81-8.92C775,184.73,775.31,179.62,773.37,174.58Z"/><path class="cls-7" d="M773.1,198.79c3.77-1.84,7.51.89,11.27.09q.81,6.42,1.63,12.84c.25,1.94-.49,2.59-2.35,1.78a6,6,0,0,0-.73-.19C774.09,210.6,772.52,208.27,773.1,198.79Z"/><path class="cls-11" d="M833.29,187.7a54.73,54.73,0,0,1,17.11,1.39c4.45,1,8.82,2.34,13.38,2.82,1.05.11,2.5.22,2.7,1.63.16,1.18-1,1.73-1.89,2.13-4.33,2-8.44,3.51-13.21.3C845.87,192.25,840.1,188.74,833.29,187.7Z"/><path class="cls-5" d="M743.89,220.42l.06,1.4c-1.14-.81-.87-2-.87-3.14q0-22.08,0-44.16c0-1.11-.27-2.32.77-3.19q0,11.13,0,22.25Z"/><path class="cls-7" d="M743.83,193.58q0-11.13,0-22.25a.7.7,0,0,1,.51,0l.39,22.09-.38.33A2.37,2.37,0,0,0,743.83,193.58Z"/><path class="cls-5" d="M753.91,224.35a8.47,8.47,0,0,1,4.53.54C756.92,224.74,755.32,225.35,753.91,224.35Z"/><path class="cls-8" d="M743.93,156.73a.53.53,0,0,1,0,.6l-.39.95c-.11-.14-.36-.36-.32-.42A10.28,10.28,0,0,1,743.93,156.73Z"/><path class="cls-8" d="M743.93,161.37v1.49C743.16,162.37,743.1,161.87,743.93,161.37Z"/><path class="cls-7" d="M619,106.19c1.15,4.42,2.18,8.88,3.51,13.25.86,2.87-.52,3-2.66,2.76-18.33-2.43-36.34-.35-54.12,4.14-15,3.79-29,10.09-43,16.57-10.62,4.92-20.84,10.64-31.85,14.75-8.16,3.05-8.19,3.27-10-5.17-.81-3.85-1.58-7.71-2.36-11.57,8.61-2.78,16.27-7.66,24.62-11.11a395,395,0,0,1,37.52-13.53C566.13,108.65,592.39,106.1,619,106.19Z"/><path class="cls-4" d="M619,106.19c-26.56-.09-52.82,2.46-78.33,10.09a395,395,0,0,0-37.52,13.53c-8.35,3.45-16,8.33-24.62,11.11-1.12-5.15-2.61-10.23-3.18-15.49a5.54,5.54,0,0,0,2.83-.91c2.85-2,5.76-3.89,8.77-5.62,8.26-4.75,17.42-7.52,26-11.49a37.22,37.22,0,0,1,6.77-2.07c5.61-1.31,11-3.56,16.93-3.16a.84.84,0,0,0,.37-.09c5.93-2.41,12.35-3.15,18.52-4s12.1-2.88,18.37-2A2.07,2.07,0,0,0,575,96c5.9-2.7,12.36-1.32,18.54-2.47,7.4-1.38,15.25-.34,22.9-.34Z"/><path class="cls-14" d="M472.58,111.9a83,83,0,0,1-3-14.11c0-1.92,0-3.44,2.48-4.4a436.85,436.85,0,0,1,50.2-16.09,152.45,152.45,0,0,1,21.14-4.42c5.9-.66,11.87-1.86,17.83-2.68,8-1.09,16.06-2,24.17-2.57,9.11-.59,18.21-1.22,27.34-1.46.82,0,.95.7,1.26,1.23q.18,6,.38,11.9c-8-.23-16,1.21-23.91,1.42-7.77.21-15.48,1.12-23.1,2.06-14.55,1.81-29.1,3.92-43.22,8.31-8.38,2.61-16.79,5-24.94,8.31-3.65,1.47-7.16,3.25-10.82,4.71C482.94,106.28,477.83,109.26,472.58,111.9Z"/><path class="cls-13" d="M614,67.4c-.31-.53-.44-1.25-1.26-1.23-9.13.24-18.23.87-27.34,1.46-8.11.52-16.14,1.48-24.17,2.57-6,.82-11.93,2-17.83,2.68a152.45,152.45,0,0,0-21.14,4.42A436.85,436.85,0,0,0,472,93.39c-2.44,1-2.48,2.48-2.48,4.4a4,4,0,0,1-.5-.09q-1.38-7.55-2.77-15.07c4.35-3,9.43-4.4,14.3-6.14A382.42,382.42,0,0,1,525,63.14c8.54-1.93,17.11-3.79,25.75-5.13,9.52-1.49,19.1-2.57,28.73-3.31,12-.92,24-2,36.12-2.07,0,.52,0,1,0,1.55l-.3.7Z"/><path class="cls-9" d="M472.58,111.9c5.25-2.64,10.36-5.62,15.79-7.79,3.66-1.46,7.17-3.24,10.82-4.71,8.15-3.3,16.56-5.7,24.94-8.31,14.12-4.39,28.67-6.5,43.22-8.31,7.62-.94,15.33-1.85,23.1-2.06,8-.21,15.89-1.65,23.91-1.42q.76,4,1.51,7.9c.2,2,.39,4,.59,6-7.65,0-15.5-1-22.9.34C587.38,94.68,580.92,93.3,575,96a2.07,2.07,0,0,1-1.13.13c-6.27-.9-12.32,1.16-18.37,2s-12.59,1.57-18.52,4a.84.84,0,0,1-.37.09c-5.93-.4-11.32,1.85-16.93,3.16a37.22,37.22,0,0,0-6.77,2.07c-8.61,4-17.77,6.74-26,11.49-3,1.73-5.92,3.64-8.77,5.62a5.54,5.54,0,0,1-2.83.91A94.51,94.51,0,0,1,472.58,111.9Z"/><path class="cls-6" d="M515.62,238.66c-5.32-1.84-10.63-.13-15.9.28a201,201,0,0,0-36.81,6.35,12.22,12.22,0,0,1-1.87.4c-1,.11-2.23.28-2.44-1.1-.18-1.18.69-1.84,1.79-2.09,4.21-1,8.4-2.13,12.65-2.92,6.25-1.17,12.54-2.09,18.82-3.14,1-.17,2-.49,2.94-.73,2.49-.6,4.13-4,7.78-.55,2.56,2.43,7.7-1.08,8.51-4.93.13-.62.31-1.23.41-1.86,1.77-10.5-1.34-13.16-11.38-10-13.88,4.43-26.81,11.05-39.89,17.29-8,3.82-8.85,6.49-6.32,14.89-3.46-1.62-4.92-7.89-2.19-10.69,3.71-3.79,5.8-8.46,7.89-13.15a8.48,8.48,0,0,1,4.82-4.89c-1.59,3.2-3.19,6.39-5.31,10.62,8.05-3.75,15-7,22-10.26,1-.46,1-1.35,1.3-2.15a83.81,83.81,0,0,0,4.45-12.57c.24-1,.62-2.09,2-1.76,1.54.37,1.39,1.51,1,2.73a27.38,27.38,0,0,0-1,4.06c-.5,3.55,1.93,5.53,5.18,4.41,3.46-1.19,7-2.23,10.76-3.44a63.26,63.26,0,0,0-12.67-17.26l.44-.47,3.7.13c.09,4,3.9,5.7,5.51,8.82,1.11,2.15,2.76,4.16,3.76,6.45a7.69,7.69,0,0,0,3.47,3.92c3.53,1.73,4.39,4.61,4.18,8s1,7.09-1.22,10.37c-.68,1,.39,1.8,1,2.63C513.76,237.14,515.55,237,515.62,238.66Z"/><path class="cls-8" d="M615.87,87.2q-.75-3.95-1.51-7.9-.2-6-.38-11.9l1.32-12.52.3-.7c0-.52,0-1,0-1.55.7-2.57,1.26-5.19,2.15-7.7.6-1.72.29-2.26-1.53-2.35-3.93-.2-7.83-.77-11.79-.6-15.9.65-31.82.53-47.67,2.29a262.76,262.76,0,0,0-30.13,4.79A268.1,268.1,0,0,0,471,69c-7,3.34-7,3.26-5.32,11.06.18.86.38,1.72.57,2.58q1.4,7.53,2.77,15.07c-2.86-1.81-2.57-5.08-3.09-7.72-.62-3.17-2.05-6.22-1.87-9.57,0-.68-.76-.91-1.41-1h0c-1.52-7,2.23-10.2,8.22-12.51,10.91-4.22,21.26-10,32.53-13.14,7.9-2.17,15.52-5.29,23.68-6.67C534,45.94,541,45,547.79,43.82c5.05-.89,10.08-.49,15-1.33,18-3.06,36-.68,54-1.4,4.15-.16,4.52.82,2.84,4.78A42.7,42.7,0,0,0,616,62.34C615.9,70.63,615.9,78.92,615.87,87.2Z"/><path class="cls-16" d="M462.69,79.43c.24,7.3,2.72,14.19,4,21.3,1.48,8.22,3.38,16.37,5.1,24.55q3.52,16.78,7,33.58,2.94,14.17,5.8,28.37c.2,1,.57,2.34-.66,2.65-1.6.39-1.17-1.21-1.35-2.06q-7.71-36.52-15.39-73.08Q463,94.4,458.75,74.06c-.25-1.18-1-2.36.2-3.76,3.11,2.34,1.6,6.53,3.75,9.11Z"/><path class="cls-6" d="M478.48,199.25c-.12-1.13-.23-2.26-.35-3.39a3.35,3.35,0,0,0,2.09-1.52,8.47,8.47,0,0,1,11.11-1.21,3.72,3.72,0,0,1,1.3,2.65l-.44.47c-7-4.12-7.65-4-12.85,2.28A6.69,6.69,0,0,1,478.48,199.25Z"/><path class="cls-3" d="M669.4,299.94c-1.17,1.62-.52,3.48-.7,5.23-3.49,5.22-4.35,11.29-5.23,17.26a115.81,115.81,0,0,0-1.07,15.24c0,3-1.44,4.22-4,5.13-9.18,3.26-18.32,2.37-27.48.05a65.88,65.88,0,0,1-15-5.66c-2.79-1.49-4.22-3.39-4-6.95a113.45,113.45,0,0,0-2.1-30.37,13.42,13.42,0,0,0-.92-6c-.53-3.06-1-6.13-1.58-9.19l-.24-.88c-.33-2-.28-4.14-1.29-6-1-4-1.75-8.08-3.11-11.95a36.47,36.47,0,0,1-2.06-17.08q2-4.67,3.89-9.33l5.4-9.07c1,1.08.58,2,.47,3q-1.35,11-2.69,22c-.14,1.13-.38,2.56,1.13,2.81s2-1.11,2.26-2.45c3-18.82,4.13-37.68,2.18-56.71-1.24-12-2.3-24.12-.51-36.2a19.23,19.23,0,0,1,3.86-9c1-1.34,2.31-2.6,4.14-2.22s2,2.1,2.39,3.58c1.38,5.16.68,10.4.53,15.6a59.22,59.22,0,0,0,.89,13.69,2.6,2.6,0,0,0,.49,2.34l0,0c.42,6.39.81,12.78,1.86,19.11a3,3,0,0,0,.33,2.3,72.68,72.68,0,0,0,2.09,14.3c.23,1.1.49,2.5,2.05,2.24,1.84-.3,1.64-2,1.19-3-2-4.61,1-5.52,4.36-6.74s6-.4,8.75.95c3.17,3.64,4.75,8.07,6.15,12.58.36,1.15.25,2.91,2.14,2.49,2.1-.46,1.08-2.2,1.07-3.48a2.57,2.57,0,0,0-.08-.38c-.22-1.41-2-3.15-.48-4.14,1.68-1.13,3.69.13,5.29,1.17,3.21,2.09,4.35,5.55,5.61,8.88,3.12,8.32,3.22,8.39,9.62,2.2,6.55-6.34,11.41-13.58,12.8-22.91a25.2,25.2,0,0,1,5.47-12.47c.77-.93,1.69-2.26,3.14-1.65s1,2.24.82,3.4c-1.22,8.57-2,17.22-4.42,25.58a21.55,21.55,0,0,0-.45,3l.07.07c-4,9-8.24,18-12,27.06a66,66,0,0,0-5.39,21.3c-.88,2.75-2.39,5.37-1.65,8.44C670.28,290.75,670.61,295.58,669.4,299.94Z"/><path class="cls-8" d="M626.89,205.77c-1-6.33-1.44-12.72-1.86-19.11l1.55,0c0,1.78.07,3.56.1,5.34.69,2.52-1.59,5.61,1.45,7.68q0,3.06,0,6.11Z"/><path class="cls-8" d="M607.34,284.67c.53,3.06,1,6.13,1.58,9.19-1-.07-2.14-.22-2.09-1.55C606.91,289.76,606.13,287.14,607.34,284.67Z"/><path class="cls-8" d="M604.53,239.42q-1.93,4.67-3.89,9.33C600.47,245,600.81,241.52,604.53,239.42Z"/><path class="cls-8" d="M605.81,277.78c1,1.87,1,4,1.29,6C603.71,282.42,605.31,280,605.81,277.78Z"/><path class="cls-8" d="M625.07,186.68a2.6,2.6,0,0,1-.49-2.34A2.79,2.79,0,0,1,625.07,186.68Z"/><path class="cls-13" d="M612.87,339.79l.77.22.81.42c10.53,4.84,21.45,8,33.17,7.79,9.06-.16,15.86-3.12,21.54-9.71.64,6.58,1.3,12.71.53,18.91-.06-1.39-.12-2.77-.19-4.16,0-.77-.12-1.8-1.11-1.61-4.27.84-8.77.27-12.86,2.14-4.09-2.17-8.27-3.59-12.4-.28-2.55,2-4.6,2.14-7.35.08-5.94-4.43-11.15-4.21-16.61.13-5.13-2.48-10.87-1.93-16.24-3.26a55.39,55.39,0,0,1,1.13-11.35C607,339.32,609.81,341.18,612.87,339.79Z"/><path class="cls-14" d="M602.93,350.46c5.37,1.33,11.11.78,16.24,3.26a16.89,16.89,0,0,0-3,8.08c-.47.74,0,2.31-1.58,2.09-4.17-.6-8.32-1.31-12.48-2A55.58,55.58,0,0,1,602.93,350.46Z"/><path class="cls-9" d="M668.17,376.54c-2.95-3.12-6.55-1.6-9.7-.88a21.58,21.58,0,0,1-5.09.74l.82-1.41c3.5-2.75,5-6.64,6.17-10.73,3.07-.22,5.83-2.28,9.06-1.5l-.49,10.73C668.68,374.5,668.43,375.52,668.17,376.54Z"/><path class="cls-14" d="M669.43,362.76c-3.23-.78-6,1.28-9.06,1.5.51-4.47-2.21-7.45-4.84-10.47,4.09-1.87,8.59-1.3,12.86-2.14,1-.19,1.07.84,1.11,1.61.07,1.39.13,2.77.19,4.16C669.6,359.2,669.52,361,669.43,362.76Z"/><path class="cls-15" d="M612.87,339.79c-3.06,1.39-5.88-.47-8.81-.68a34,34,0,0,1,1.77-8.47C607.11,335,610.8,336.72,612.87,339.79Z"/><path class="cls-10" d="M599.05,356.42c0,2.09.32,4.53-2.45,4.36-2.55-.16-2.84-2.55-2.84-4.6,0-1.63.21-3.49,2.52-3.41C598.77,352.85,599.45,354.42,599.05,356.42Z"/><path class="cls-10" d="M677.75,365.15c-.77,1.35-.54,3.77-2.77,3.49-3.07-.38-2.29-3-2.32-5.07,0-1.78.69-2.55,2.47-2.33C677.56,361.53,677.51,363.41,677.75,365.15Z"/><path class="cls-15" d="M614.45,340.43l-.81-.42Z"/><path class="cls-6" d="M517.59,261.7c.59-6.18.25-6.5-5.9-6.51A209.28,209.28,0,0,0,473.75,259c-4.83.87-7.5,3.15-8.34,8-.23,1.34.08,4.11-2.47,3.34-2.18-.67-.79-2.82-.53-4.32.86-4.91,3.22-8.41,8.5-9.47,14.51-2.92,29.09-5,43.94-4.42-.07,1.54.49,2.11,2.19,2.34a3,3,0,0,1,2.36,3.45C519.26,259.32,520.29,261.42,517.59,261.7Z"/><path class="cls-6" d="M508,283.11c-.42.25-.87.75-1.28.72-4.14-.28-5.52.61-3.31,5,1.68,3.37,1.39,7.45.91,11.27-.16,1.31.11,3.25-1.88,3.16-2.2-.09-1.31-2-1.32-3.27,0-1.9.15-3.82.05-5.72-.22-4.15-1.3-7.83-4.51-10.92-4-3.83-4.21-8.58-1.35-13.22.46-.74,1.26-1.43,1.77-1.07,3.12,2.2,5.79,0,8.64-.63,1.1-.25,2.63-1.26,3.28.56.76,2.12-1.15,2.1-2.38,2.52-2.16.73-4.27,1.67-6.6,1.71a3.13,3.13,0,0,0-3.35,3.71c.19,2.07.88,4.26,3.59,4.62,2.49.32,5.07-.51,7.48.62C508.14,282.4,508.48,282.63,508,283.11Z"/><path class="cls-8" d="M516,249.46c.47-3.56,1.54-7.13-.07-10.69.64,0,1.54.08,1.63.72.48,3.39.85,6.82-.26,10.15C517,250.61,516.35,250.07,516,249.46Z"/><path class="cls-6" d="M515.73,267.8a11.2,11.2,0,0,1,1.5-4.6C517,264.82,519.18,267.24,515.73,267.8Z"/><path class="cls-8" d="M645.66,215.79c-2.8-1.35-5.55-2.12-8.75-.95s-6.36,2.13-4.36,6.74c.45,1,.65,2.73-1.19,3-1.56.26-1.82-1.14-2.05-2.24a72.68,72.68,0,0,1-2.09-14.3l.95,0,0,.06c.55,2-1.39,4.63,1.48,6.08.62,2.35,2.2,1.31,3.17.62,3.29-2.35,7-2.14,10.67-1.94,1.68.09,2.58,1.32,3.1,2.83Z"/><path class="cls-6" d="M469.73,310.67h-.85a6.49,6.49,0,0,1-1.55-4.55c.31-4.12-1.34-7.76-2.74-11.51s-2.29-7.45-3.31-11.21c-.25-.93-.48-1.69-1.52-1.9-1.73-9-.9-18.48-5.71-26.79a5,5,0,0,1-.14-4.06A41,41,0,0,1,460,269.28c.53,8.6,4.08,16.46,6.37,24.63C467.92,299.41,469.79,304.85,469.73,310.67Z"/><path class="cls-6" d="M675,278.51a66,66,0,0,1,5.39-21.3c3.81-9.1,8-18,12-27.06a12.46,12.46,0,0,1-1.91,9.6c-1.19,1.62-.9,3.3-1.13,5-3.75,2.49-4.22,6.87-5.92,10.5-3.05,6.52-6.21,13-6.35,20.5A2.57,2.57,0,0,1,675,278.51Z"/><path class="cls-8" d="M669.4,299.94c1.21-4.36.88-9.19,3.92-13-.19,4-1.38,7.82-2.31,11.68A1.61,1.61,0,0,1,669.4,299.94Z"/><path class="cls-11" d="M478.48,199.25a6.69,6.69,0,0,0,.86-.72c5.2-6.29,5.82-6.4,12.85-2.28a63.26,63.26,0,0,1,12.67,17.26c-3.8,1.21-7.3,2.25-10.76,3.44-3.25,1.12-5.68-.86-5.18-4.41a27.38,27.38,0,0,1,1-4.06c.36-1.22.51-2.36-1-2.73-1.37-.33-1.75.74-2,1.76a83.81,83.81,0,0,1-4.45,12.57c-.33.8-.31,1.69-1.3,2.15-7,3.23-14,6.51-22,10.26,2.12-4.23,3.72-7.42,5.31-10.62.73-.9,1.59-1.74,1.45-3.05l9.56-15v-.06q1.5-2.27,3-4.53Z"/><path class="cls-6" d="M628.13,199.65c-3-2.07-.76-5.16-1.45-7.68C629.76,194,627.47,197.13,628.13,199.65Z"/><path class="cls-6" d="M629.69,214.17c-2.87-1.45-.93-4.07-1.48-6.08A11.74,11.74,0,0,1,629.69,214.17Z"/><path class="cls-6" d="M628.17,208l-.95,0a3,3,0,0,1-.33-2.3h1.28Z"/><path class="cls-6" d="M324.85,156c.06.38.11.76.17,1.14-2.06,1.57-2.37,4.49-4.56,6C321,160.1,321.72,157.3,324.85,156Z"/><path class="cls-6" d="M478.44,199.27q-1.49,2.26-3,4.53C474.48,201,475.6,199.56,478.44,199.27Z"/><path class="cls-6" d="M930,81c-.34,1.89-1.82,1.38-3,1.42,0-.45.07-.9.1-1.35Z"/><path class="cls-14" d="M289.77,407.12l0-1.46.09-1.15c1.15-11.13,1.77-22.33,3.67-33.38a5.11,5.11,0,0,0,4.13-1.43c3.64-2.89,7.36-5.72,11.23-8.29,9.85-6.54,19.55-13.29,29.2-20.13,8.2-5.81,16-12.3,25.06-16.81q.39,9.13.77,18.26l-.21,6.36c-.86,1-.57,2.16-.21,3.28,0,.93-.09,1.86-.13,2.79-3.09,3.77-7.48,5.9-11.26,8.8-8.88,6.8-18.4,12.72-27.43,19.34-10.16,7.43-20.86,14.13-31.35,21.12C292.12,405.25,291.41,406.81,289.77,407.12Z"/><path class="cls-3" d="M992.59,216.72l2.45-.41c3.8,7.75,10.29,13.21,16,19.38A60.24,60.24,0,0,1,992.59,216.72Z"/><path class="cls-3" d="M982.09,211.85c1.06-1.67,1.81-.65,2.54.3,1.4,1.79,2.77,3.59,4.43,5.75-3,0-4.7-.91-5.36-3.53a4,4,0,0,0-1.61-2.52Z"/><path class="cls-3" d="M991.5,215.37c.88,0,1.06.55,1,1.28A1.46,1.46,0,0,1,991.5,215.37Z"/><path class="cls-12" d="M368.5,174.33c1.92-5,3.74-10,5.79-14.93a47.49,47.49,0,0,0,3.5-13.41c2.29,2.2,4.49,4.14,3.91,7.1-1.61,8.31-4.94,15.77-11.88,21.14a1.1,1.1,0,0,1-1.4.05Z"/><path class="cls-12" d="M368.42,174.28c.42.32.2.61-.05.89,0,0-.29,0-.31-.07-.2-.45.07-.64.44-.77Z"/><path class="cls-13" d="M363.19,324.47c-9.09,4.51-16.86,11-25.06,16.81-9.65,6.84-19.35,13.59-29.2,20.13-3.87,2.57-7.59,5.4-11.23,8.29a5.11,5.11,0,0,1-4.13,1.43c.47-8.72,1.74-17.36,2.74-26,.16-1.38.14-2.78.2-4.17l.84-4.21c8.26-5.67,16.49-11.38,24.78-17q22-14.91,43.46-30.55a.63.63,0,0,1,.05.61l.09,2.71c-.18,9.66-.07,19.34-1.09,29-1.94.31-1.32,1.85-1.47,3Z"/><path class="cls-15" d="M365.59,289.17q-21.48,15.63-43.46,30.55c-8.29,5.62-16.52,11.33-24.78,17l3.09-26.63c1.51-6.08,6.66-9.13,11-12.57,15.38-12.11,31.4-23.3,49-32,5.29-2.62,5.51-2.59,5.62,3.11C366.23,275.46,366.7,282.34,365.59,289.17Z"/><path class="cls-3" d="M364,342.73q-.39-9.12-.77-18.26l0,0h.9l.65,0q-.2,9-.4,18.05A.77.77,0,0,1,364,342.73Z"/><path class="cls-14" d="M364.07,324.48h-.9c.15-1.18-.47-2.72,1.47-3l0,2.23Z"/><path class="cls-15" d="M365.73,292.49l-.09-2.71A2.25,2.25,0,0,1,365.73,292.49Z"/><path class="cls-13" d="M364.07,324.48l.6-.79c0,.27,0,.54.05.81Z"/><path class="cls-9" d="M363.54,352.37c-.36-1.12-.65-2.24.21-3.28A5.82,5.82,0,0,1,363.54,352.37Z"/><path class="cls-14" d="M837.82,307.39l.27-4.39c1.39.17,2.77.36,4.15.5,7,.72,14.28,1.25,20.82-.89,11-3.61,21-9.33,28.83-18.26l.1.16a5,5,0,0,0-.24,1.49c.63,4.44-.45,7.82-4.7,10.28-5.53,3.18-10.28,7.51-16.3,10.13a50.46,50.46,0,0,1-22.17,4.28c-2.41-.07-4.83-.07-7.25,0S837.77,309.79,837.82,307.39Z"/><path class="cls-13" d="M891.89,284.35c-7.81,8.93-17.86,14.65-28.83,18.26-6.54,2.14-13.83,1.61-20.82.89-1.38-.14-2.76-.33-4.15-.5l.06-6.85a41.21,41.21,0,0,1,6.09.07c12.82,2,24.18-1.66,35-8.32,4.3-2.65,7.71-6.51,12.35-8.61Z"/><path class="cls-15" d="M891.59,279.29c-4.64,2.1-8.05,6-12.35,8.61-10.82,6.66-22.18,10.31-35,8.32a41.21,41.21,0,0,0-6.09-.07,10.86,10.86,0,0,1,0-2.28c.34-1.74.37-3.78,1.33-5.11,1.56-2.16,3,.6,4.51.85,7.91,1.31,15.48-.14,23-2.33a96.19,96.19,0,0,0,16.5-6.93c2.83-1.43,5.68-2.83,7.13-6C891.91,276,891.63,277.65,891.59,279.29Z"/><path class="cls-9" d="M289.9,404.51l-.09,1.15Z"/><path class="cls-6" d="M625.14,376.41l-.73-1.42,3.71.05c1.41.42,2.22,1.57,3.19,2.55,5.76,5.79,6.35,5.86,13.36,1.84.55-.32,1.12-.58,1.68-.86.74,1.13,1.37.63,2.1-.08,1-.95,1.82-2.17,3.46-2,.11.14.23.28.35.41-2.85,3.74-6.74,6.15-10.78,8.3a5.58,5.58,0,0,1-6.74-.69C631.57,381.79,628.34,379.12,625.14,376.41Z"/><path class="cls-6" d="M654.2,375l-.82,1.41-1.12.52c-.12-.13-.24-.27-.35-.41A2.56,2.56,0,0,1,654.2,375Z"/><path class="cls-8" d="M654.2,375a2.56,2.56,0,0,0-2.29,1.52c-1.64-.19-2.49,1-3.46,2-.73.71-1.36,1.21-2.1.08.5-1.26,1.67-1.87,2.57-2.75,3-2.93,6.1-5.78,7.43-10,1.42-4.46.42-6.89-4.15-9.72-3.15-1.95-6-1.38-9.07,1.84-.44.46-.86.93-1.29,1.4-1.6,1.76-3,1.95-4.67-.11a14.26,14.26,0,0,0-8.19-5.21c-4.36-.92-7.42.83-8.8,5.07-1.22,3.79.79,6.62,2.68,9.5,1.52,2.33,4.06,3.82,5.26,6.42l-3.71-.05c-4.07-3.57-7.18-7.73-8.23-13.19a16.89,16.89,0,0,1,3-8.08c5.46-4.34,10.67-4.56,16.61-.13,2.75,2.06,4.8,2,7.35-.08,4.13-3.31,8.31-1.89,12.4.28,2.63,3,5.35,6,4.84,10.47C659.22,368.35,657.7,372.24,654.2,375Z"/><path class="cls-14" d="M931.47,128.4v21.44c-8.11,1.38-16.22,2.85-24.35,4.11-5.38.83-10.81,1.42-16.23,2-22.1,2.27-44.28,2.06-66.42,1.31a197.36,197.36,0,0,1-26.13-2.4c-5.46-.93-11.07-1.36-16.63-1.84-11.51-1-22.91-2.8-34.28-4.76a13.92,13.92,0,0,1-3.12-1.34c-.07-7.21-.4-14.43.18-21.63,5.73,1,11.44,2.31,17.21,3.07,16,2.12,31.9,4.62,48,5.47,14.81.79,29.54,2.55,44.47,1.68,12.05-.7,24.16-.26,36.19-1.72,7.67-.94,15.35-1.84,23-2.79C919.43,130.22,925.29,128.14,931.47,128.4Z"/><path class="cls-6" d="M744.49,125.26c-.58,7.2-.25,14.42-.18,21.63-.14.79-.27,1.59-.41,2.38q0-31.73,0-63.45a21.69,21.69,0,0,1,.32-2.63q.16,10.31.32,20.6A187.53,187.53,0,0,0,744.49,125.26Z"/><path class="cls-15" d="M744.53,103.79q-.16-10.31-.32-20.6c7.93-.48,15.71,1.16,23.55,1.89,22.58,2.1,45.15,4.16,67.82,5.19,14,.64,28,.86,42.06.4,17-.55,33.82-2.14,50.24-6.71,2.76-.77,3.88-.51,3.76,2.72-.24,6.49-.14,13-.18,19.5-8.89,1.34-17.74,2.92-26.67,4.12a391.58,391.58,0,0,1-41.29,3.45,459.79,459.79,0,0,1-56.75-2.1c-10.73-1-21.43-2.16-32.09-3.71C764.63,106.48,754.58,105.17,744.53,103.79Z"/><path class="cls-13" d="M744.53,103.79c10.05,1.38,20.1,2.69,30.13,4.15,10.66,1.55,21.36,2.67,32.09,3.71a459.79,459.79,0,0,0,56.75,2.1,391.58,391.58,0,0,0,41.29-3.45c8.93-1.2,17.78-2.78,26.67-4.12q0,11.11,0,22.22c-6.18-.26-12,1.82-18.08,2.57-7.67.95-15.35,1.85-23,2.79-12,1.46-24.14,1-36.19,1.72-14.93.87-29.66-.89-44.47-1.68-16.11-.85-32-3.35-48-5.47-5.77-.76-11.48-2-17.21-3.07A187.53,187.53,0,0,1,744.53,103.79Z"/><path class="cls-6" d="M743.83,193.58a2.37,2.37,0,0,1,.54.13c0,7.53,0,15.06,0,22.59,0,1.38.32,2.82-.46,4.12Z"/><path class="cls-15" d="M466.29,82.63c-.19-.86-.39-1.72-.57-2.58-1.67-7.8-1.63-7.72,5.32-11.06a268.1,268.1,0,0,1,55.63-19.93,262.76,262.76,0,0,1,30.13-4.79c15.85-1.76,31.77-1.64,47.67-2.29,4-.17,7.86.4,11.79.6,1.82.09,2.13.63,1.53,2.35-.89,2.51-1.45,5.13-2.15,7.7-12.08.07-24.09,1.15-36.12,2.07-9.63.74-19.21,1.82-28.73,3.31-8.64,1.34-17.21,3.2-25.75,5.13a382.42,382.42,0,0,0-44.45,13.35C475.72,78.23,470.64,79.63,466.29,82.63Z"/><path class="cls-15" d="M615.6,54.18l-.3.7Z"/><path class="cls-15" d="M628.12,375c-1.2-2.6-3.74-4.09-5.26-6.42-1.89-2.88-3.9-5.71-2.68-9.5,1.38-4.24,4.44-6,8.8-5.07a14.26,14.26,0,0,1,8.19,5.21c1.66,2.06,3.07,1.87,4.67.11.43-.47.85-.94,1.29-1.4,3.12-3.22,5.92-3.79,9.07-1.84,4.57,2.83,5.57,5.26,4.15,9.72-1.33,4.19-4.43,7-7.43,10-.9.88-2.07,1.49-2.57,2.75-.56.28-1.13.54-1.68.86-7,4-7.6,3.95-13.36-1.84C630.34,376.61,629.53,375.46,628.12,375Z"/></svg>