<?xml version="1.0" encoding="utf-8"?>
<!-- Generator: Adobe Illustrator 24.2.3, SVG Export Plug-In . SVG Version: 6.00 Build 0)  -->
<svg version="1.1" id="Layer_1" xmlns="http://www.w3.org/2000/svg" xmlns:xlink="http://www.w3.org/1999/xlink" x="0px" y="0px"
	 viewBox="0 0 1366 768" style="enable-background:new 0 0 1366 768;" xml:space="preserve">
<style type="text/css">
	.st0{fill:#FFAAD0;}
</style>
<path class="st0" d="M22.1,445.8V187.3h78.5l21.8,157.6l21.8-157.6h79.3v258.2H176V259.5l-29.7,186.1H99.8L68.7,259.5v186.1H22.1
	V445.8z"/>
<path class="st0" d="M309.3,448c-43.9,0-65.7-22.8-65.7-68.3v-88.3c0-20.9,5.9-37.3,17.5-49.8c11.8-12.3,27.8-18.7,48.2-18.7
	c20.6,0,36.8,6,48.4,18.7c11.8,12.3,17.5,28.9,17.5,49.8v88.3C375.1,425.2,353.1,448,309.3,448z M309.3,407.2c4.5,0,7.4-1.7,9.5-4.7
	c1.9-3.1,2.8-7.3,2.8-12.3V282.7c0-12.8-4.1-19.2-12.3-19.2c-8.1,0-12.3,6.4-12.3,19.2v107.7c0,5,0.9,9,2.8,12.3
	C301.7,405.9,304.8,407.2,309.3,407.2z"/>
<path class="st0" d="M394.4,445.8V225.6H447v28c1.9-8.3,5.5-15.6,10.9-21.4c5.4-5.9,12.8-9,22.3-9c15.4,0,26.4,4.7,33.2,14.2
	c6.7,9.5,10.4,22.3,10.4,38.7v169.7h-51.8V281.3c0-4.1-0.9-8.3-2.4-11.9c-1.7-3.6-4.7-5.5-9.2-5.5c-4,0-6.9,1.4-9,4.1
	c-2.1,2.8-3.1,6.4-3.6,10.4c-0.5,4.1-0.9,8.3-0.9,12.4v154.7h-52.4V445.8z"/>
<path class="st0" d="M589.4,448c-14.2,0-23.7-3.1-28.7-9c-5-6-7.4-15.4-7.4-27.5V274.4h-14.7v-40.1h14.7v-47h51.1v46.8h14.7v40.1
	h-14.7v124.9c0,3.6,0.5,6,1.7,7.4c1,1.4,3.3,2.2,6.7,2.2c2.2,0,4.5-0.3,6.4-0.5v35.9c-1,0.3-4.7,1-11.1,2.2
	C602.3,447.3,595.9,448,589.4,448z"/>
<path class="st0" d="M635.8,445.8V225.6h53.4v24.5c2.4-8.6,6.9-15,13.7-20c6.4-4.7,14.5-7.3,24.5-7.3v43.9c-4.1,0-9.5,0.5-15.4,1.4
	c-5.9,0.9-11.1,2.2-15.6,4c-4.5,1.7-6.7,3.3-6.7,5.4v168.3L635.8,445.8L635.8,445.8z"/>
<path class="st0" d="M804.3,448c-43.9,0-65.7-22.8-65.7-68.3v-88.3c0-20.9,5.9-37.3,17.5-49.8c11.8-12.3,27.8-18.7,48.2-18.7
	c20.6,0,36.8,6,48.4,18.7c11.8,12.3,17.5,28.9,17.5,49.8v88.3C870.2,425.2,848.2,448,804.3,448z M804.3,407.2c4.5,0,7.4-1.7,9.5-4.7
	c1.9-3.1,2.8-7.3,2.8-12.3V282.7c0-12.8-4.1-19.2-12.3-19.2s-12.3,6.4-12.3,19.2v107.7c0,5,0.9,9,2.8,12.3
	C796.7,405.9,799.8,407.2,804.3,407.2z"/>
<path class="st0" d="M949.8,448c-43.4,0-65.1-21.9-65.1-66v-17.5h52.9v25.9c0,5,1,9,3.1,11.8c1.9,2.8,5,4.1,9.5,4.1
	c7.4,0,11.4-5.9,11.4-17.3c0-9.5-1.9-16.8-6-21.4c-4-4.7-9-9.2-14.7-13.7l-28.2-21.8c-9-6.9-15.6-14.2-20-21.8
	c-4.7-7.4-6.9-18.3-6.9-31.8c0-12.4,3.1-23.2,9-31.1c5.9-8.1,14-14.2,24-18.3c10-4,20.6-6,32.3-6c42.5,0,63.9,21.1,63.9,63.8v4.1
	h-54.3v-8.3c0-4.5-0.9-8.6-2.2-12.8c-1.4-4.1-4.5-6-9-6c-7.4,0-11.1,4-11.1,11.8s3.1,14.2,9.5,18.7l32.5,23.7
	c10.4,7.3,18.7,16.1,25.6,26.1c6.9,10,10.4,23.3,10.4,40.1c0,20.9-5.9,36.5-17.8,47.3C986.6,442.3,970.4,448,949.8,448z"/>
<path class="st0" d="M1093.8,448c-15.6,0-28.2-3.1-37.3-9c-9.2-5.9-15.9-14.5-20-25.4c-4-11.1-6-24.5-6-39.7v-88.5
	c0-20.4,5.9-35.9,17.5-46.5c11.8-10.5,27.8-15.9,48.4-15.9c42.3,0,63.4,20.9,63.4,62.4v15.9c0,19.5-0.3,32.3-0.5,38.9h-76.2v42.5
	c0,4,0.3,7.8,0.9,11.4c0.5,4,1.7,6.9,3.3,9.2c1.7,2.4,4.5,3.6,8.3,3.6c5.5,0,9-2.4,10.4-7.3c1.4-4.7,1.9-10.9,1.9-18.7v-21.1h52.4
	v12.4c0,16.4-1.9,30.4-6,41.1c-4.1,11.1-10.9,19.5-20.6,25.1C1123.5,445.1,1110.4,448,1093.8,448z M1082.5,314.5h25.1v-29.7
	c0-7.8-1-13.7-3.1-16.9c-1.9-3.3-5-5.4-9-5.4c-4.1,0-7.4,1.7-9.7,5c-2.2,3.3-3.3,9.2-3.3,17.3V314.5z"/>
<path class="st0" d="M82.2,754.4c-18.7,0-33.7-5.9-45.1-17.5c-11.4-11.8-16.9-27.8-16.9-48.9V569c0-25.1,5-44.2,15-57.5
	c10-13.3,26.1-20,48.4-20c12.3,0,23.2,2.2,32.5,6.7c9.5,4.5,16.9,11.1,22.5,20.4c5.5,9,8.3,20.4,8.3,33.9V597H95.5v-38.2
	c0-7.8-1-12.8-3.1-15.6c-1.9-2.8-5-4.1-9.2-4.1c-4.7,0-8.1,1.7-9.7,5.4c-1.7,3.3-2.4,8.1-2.4,14v128.9c0,7.3,1,12.3,3.1,15
	c2.2,3.1,5,4.5,9,4.5c4.5,0,7.4-1.7,9.2-5.5c1.9-3.6,2.8-8.3,2.8-14.2V641h52v48.9c0,22.8-5.9,39.2-17.3,49.2
	C118.5,749.4,102.8,754.4,82.2,754.4z"/>
<path class="st0" d="M225.1,754.4c-15.6,0-28.2-3.1-37.3-9c-9.2-5.9-15.9-14.2-20-25.4c-4-11.1-6-24.5-6-39.7v-88.5
	c0-20.4,5.9-35.9,17.5-46.5c11.8-10.5,27.8-15.9,48.4-15.9c42.3,0,63.4,20.9,63.4,62.4v15.9c0,19.5-0.3,32.3-0.5,38.9h-76.2v42.5
	c0,4,0.3,7.8,0.9,11.4c0.5,4,1.7,6.9,3.3,9.2c1.7,2.4,4.5,3.6,8.3,3.6c5.5,0,9-2.4,10.4-7.3c1.4-4.7,1.9-10.9,1.9-18.7v-21.1h52.4
	v12.4c0,16.4-1.9,30.4-6,41.1c-4.1,11.1-10.9,19.5-20.6,25.1C255,751.6,241.9,754.4,225.1,754.4z M214,620.8h25.1v-29.7
	c0-7.8-1-13.7-3.1-16.9c-1.9-3.3-5-5.4-9-5.4c-4.1,0-7.4,1.7-9.7,5s-3.3,9.2-3.3,17.3V620.8z"/>
<path class="st0" d="M310.3,752.2V532h52.5v28.2c1.9-8.3,5.5-15.6,10.9-21.4s12.8-9,22.3-9c15.4,0,26.4,4.7,33.2,14.2
	c6.7,9.5,10.4,22.3,10.4,38.7v169.7h-51.8V587.8c0-4.1-0.9-8.3-2.4-11.9c-1.7-3.6-4.7-5.5-9.2-5.5c-4,0-6.9,1.4-9,4.1
	c-1.9,2.8-3.1,6.4-3.6,10.4c-0.5,4.1-0.9,8.3-0.9,12.4V752h-52.4V752.2z"/>
<path class="st0" d="M505.4,754.4c-14.2,0-23.7-3.1-28.7-9c-5-6-7.4-15.4-7.4-27.5V580.7h-14.7v-40.1h14.7v-46.8h51.1v46.8h14.7
	v40.1h-14.7v124.9c0,3.6,0.5,6,1.7,7.4c1,1.4,3.3,2.2,6.7,2.2c2.2,0,4.5-0.3,6.4-0.5v35.9c-1,0.3-4.7,1-11.1,2.2
	C518,753.9,511.6,754.4,505.4,754.4z"/>
<path class="st0" d="M613.4,754.4c-15.6,0-28.2-3.1-37.3-9s-15.9-14.2-20-25.4c-4-11.1-6-24.5-6-39.7v-88.5
	c0-20.4,5.9-35.9,17.5-46.5c11.8-10.5,27.8-15.9,48.4-15.9c42.3,0,63.4,20.9,63.4,62.4v15.9c0,19.5-0.3,32.3-0.5,38.9h-76.2v42.5
	c0,4,0.3,7.8,0.9,11.4c0.5,4,1.7,6.9,3.3,9.2c1.7,2.4,4.5,3.6,8.3,3.6c5.5,0,9-2.4,10.4-7.3c1.4-4.7,1.9-10.9,1.9-18.7v-21.1h52.4
	v12.4c0,16.4-1.9,30.4-6,41.1c-4.1,11.1-10.9,19.5-20.6,25.1C643.1,751.6,630.1,754.4,613.4,754.4z M602.3,620.8h25.1v-29.7
	c0-7.8-1-13.7-3.1-16.9c-1.9-3.3-5-5.4-9-5.4c-4.1,0-7.4,1.7-9.7,5c-2.2,3.3-3.3,9.2-3.3,17.3V620.8z"/>
<path class="st0" d="M698.6,752.2V532H752v24.5c2.4-8.6,6.9-15,13.7-20c6.4-4.7,14.5-7.3,24.5-7.3v43.9c-4.1,0-9.5,0.5-15.4,1.4
	c-5.9,0.9-11.1,2.2-15.6,4c-4.5,1.7-6.7,3.3-6.7,5.4v168.3H698.6z"/>
<g>
	<path class="st0" d="M38.5,43H17.6V31.2h54.8V43H51.4v102.6h-13V43z"/>
	<path class="st0" d="M81.9,28.3H95v44.2h0.3c1.7-2.8,4.1-5.5,6.9-7.3c3.1-1.9,6.4-3.1,10.9-3.1c10.4,0,19.2,8.3,19.2,28.9v54.6
		h-13.1V92.9c0-10-2.2-19.5-11.1-19.5c-6,0-10.9,4.5-12.8,13.1c-0.3,1.7-0.5,4.1-0.5,6v53.2H81.7V28.3H81.9z"/>
	<path class="st0" d="M159.8,105.9c0,25.4,10,30.6,19.5,30.6c5.5,0,10.4-1.4,13.7-3.1l2.2,9.5c-4.5,2.4-11.8,4-18.1,4
		c-19.7,0-29.7-16.1-29.7-41.1c0-26.8,11.4-43.2,27.8-43.2c16.8,0,23.3,17.5,23.3,36.1c0,3.3,0,5.4-0.3,7.3L159.8,105.9L159.8,105.9
		z M185.7,96.2c0.3-16.4-6-23.7-12.3-23.7c-8.6,0-12.8,12.4-13.7,23.7H185.7z"/>
</g>
</svg>
