<?xml version="1.0" encoding="utf-8"?>
<!-- Generator: Adobe Illustrator 24.2.3, SVG Export Plug-In . SVG Version: 6.00 Build 0)  -->
<svg version="1.1" id="Layer_1" xmlns="http://www.w3.org/2000/svg" xmlns:xlink="http://www.w3.org/1999/xlink" x="0px" y="0px"
	 viewBox="0 0 216 216" style="enable-background:new 0 0 216 216;" xml:space="preserve">
<style type="text/css">
	.st0{fill:#FFFFFF;}
</style>
<g>
	<path d="M93.8,128.4c-2,1.2-4.1,2.3-6.1,3.6c-3.2,2.1-6.3,4.4-9.5,6.5c0,0,0,0,0,0c-2.7,1.3-5.3,2.5-8,3.8c-0.5,0.2-1,0.5-1.4,0.5
		c-0.9,0-2.3,0-2.6-0.5c-0.4-0.8-0.5-2.3,0-2.9c1.8-2.2,3.7-4.3,5.8-6.3c1.8-1.7,3.8-3.2,5.7-4.7l-0.1,0.1c2.7-2,5.5-3.9,8.1-6
		c1.6-1.2,3-2.6,4.5-3.9l-0.1,0.1c2.6-1.3,4.2-3.5,5.5-5.9c-0.1-0.2-0.2-0.5-0.3-0.7c-1.8,0.3-3.6,0.4-5.3,0.9
		c-2.9,0.9-5.6,2.2-8.5,3.1c-3.1,1-6.2,2-9.4,2.4c-3.8,0.5-7.8,0.4-11.5,0.6c-1.1-2.9-0.6-4,2.2-5.6c2-1.2,4.2-1.9,6.4-2.9
		c0.4-0.2,0.6-0.6,0.9-0.8c0,0-0.1,0.1-0.1,0.1c1.2-0.6,2.4-1.3,3.6-1.9c0.4,0,0.9,0.2,1.3,0c4.7-2.2,9.4-4.4,14.5-6.7
		c-6.8-2.9-13.6-1.7-20-3.1c1.5,3.5,2.9,6.7,4.3,9.9c-0.9-0.7-1.8-1.4-2.7-2c-0.2-0.3-0.4-0.6-0.5-0.9c-0.7-1.8-1.9-3.5-2-5.3
		c-0.1-2.3-1.4-3.3-2.9-4.4c0,0,0.1,0.1,0.1,0.1c0.3-1.3,0.6-2.5,1-3.8l-0.1,0.1c2.2-0.7,4.4-1.4,6.6-2c1.2-0.3,2.5-0.5,3.7-0.6
		c4.8-0.4,9.7-0.4,14.5-1.1c5.6-0.9,10.7-3.4,15.7-6.2c3.8-2.2,7.8-3.5,12.1-4c2.1-0.3,4.4,0.4,6.5,1c2.9,0.9,4.8,0.2,6-2.6
		c0,0,0,0,0,0c2.7-2.2,5.4-4.4,8-6.7c7.4-6.6,14.7-13.4,22.1-20c0.5-0.4,1.1-0.6,1.6-1c0.2,0.2,0.4,0.5,0.6,0.7
		c-2,1.9-4,3.8-6.1,5.7c-8.4,7.7-16.8,15.4-25.1,23.2c-2.6,2.5-5.6,2.8-8.7,1.8c-3.9-1.3-7.5-0.7-11,0.8c-5.2,2.2-10.2,4.8-15.3,7.1
		c-1.4,0.6-2.9,1.1-4.4,1.3c-3.5,0.5-7.1,0.6-10.7,1.1c-4.2,0.5-8.4,1.1-12.5,1.8c-0.8,0.1-1.7,0.6-2.3,1.2c-1,0.8-0.5,2.8,0.9,3.2
		c1.8,0.5,3.6,0.8,5.5,0.9c5.6,0.3,11.2,0.9,16.6,2.7c0.6,0.2,1.1,0.7,1.6,1.1c-0.5,0.5-0.9,1.2-1.4,1.5c-4.8,2.2-9.8,4.3-14.6,6.5
		c-4.4,2-8.7,4-13,6.2c-0.7,0.3-1,1.2-1.6,1.9c0.8,0.3,1.6,0.8,2.3,0.7c5.3-0.8,10.7-1.4,16-2.6c3.4-0.8,6.5-2.6,9.9-3.6
		c2-0.6,4.2-0.7,6.4-0.6c1.1,0,1.8,0.6,1,2.1c-2.1,4-5.4,6.8-8.8,9.5c-6.1,4.8-12.3,9.6-18.4,14.4c-1.4,1.1-2.9,2.3-2.7,4.7
		c3.1-0.3,5.6-1.9,8-3.4c6.1-3.7,11.9-7.8,18-11.4c3.5-2,7.3-3.5,11.1-4.9c2.9-1,5.1,1.4,4,4.3c-1.1,2.8-2.5,5.6-4.2,8.1
		c-2.7,3.7-6,7.1-8.8,10.7c-1.8,2.3-3.3,4.9-5,7.7c2.5,0.9,4.1-0.2,5.7-1.1c4.2-2.3,6.8-6.3,9.9-9.7c5.3-5.7,10.7-11.4,16.2-17
		c1.1-1.1,2.8-1.8,4.3-2.5c1.3-0.5,2,0.2,2.1,1.7c0.2,4.2-0.9,8.2-2.4,12.1c-1.9,4.9-4.4,9.7-4,15.2c0.1,1.2,1,2.3,1.5,3.4
		c1-0.5,2.6-0.7,3.1-1.6c1.7-2.8,3.2-5.7,4.3-8.7c2.7-7,4-14.5,8.1-20.9c1.5-2.3,3.4-4.3,5.2-6.5c2.2-2.7,4.7-5.4,4.6-9.2
		c-0.1-1.8-0.9-3.6-1.8-5.3c-1.2-2.2-1.5-4.1,1-6c5.4-4.1,10.7-8.2,16.3-12c4.1-2.8,8.6-5.1,13-7.5c0.2,0.2,0.4,0.4,0.6,0.7
		c-0.3,0.5-0.6,1.2-1.1,1.4c-9.5,4.7-18,10.9-26.5,17.2c-0.6,0.5-1,1.3-1.5,1.9c-1.7,2,0.4,3.4,0.9,5c2.1,6.4-1.2,11-5,15.4
		c-4.5,5.1-7.4,11-9.5,17.4c-2,6-3.2,12.3-7,17.7c-0.8,1.1-1.9,1.9-2.8,2.9l0.1-0.1c-4,0.2-6.3-3.6-5-8.2c0.6-2.3,1-4.7,1.5-7.1
		c0,0-0.1,0.1-0.1,0.1c0.3-0.9,0.6-1.8,0.9-2.8c1.7-2.1,2.9-4.4,2.7-7.2c1.9-2.2,0.9-4.7,1-7.4c-2,0.9-3.6,1.5-4,3.6l0.1-0.2
		c-2.3,0.7-3.6,2.4-4.6,4.5c-0.2,0.1-0.3,0.2-0.5,0.3c-1.2,1.3-2.5,2.5-3.7,3.8l0.1-0.1c-1.8,2.1-3.7,4.3-5.5,6.4l0.1-0.1
		c-1.4,1.4-2.9,2.7-4.3,4.1c-2.4,2.2-4.7,4.6-7.3,6.5c-1.5,1.1-3.6,1.5-5.5,2c-1.8,0.4-2.8-0.6-2.7-2.5l-0.1,0.1
		c1.2-1.9,2.2-3.9,3.5-5.7c1.4-1.9,3-3.7,4.4-5.6c0.6-0.9,1.1-1.9,1.6-2.8c0.1-0.1,0.3-0.1,0.4-0.2c2.1-2.5,4.3-5,6.2-7.6
		c1-1.4,1.4-3.3,1.9-5.1c0.4-1.3-0.3-2.1-1.7-1.8c-1.2,0.2-2.5,0.4-3.6,0.9C99.2,125.5,96.5,127,93.8,128.4L93.8,128.4z"/>
	<path d="M150.4,103.1c-0.5-1.6-2.6-3-0.9-5c0.4,0.4,0.9,0.7,1.1,1.2c2.6,6.5,7.3,11.5,11.9,16.6c4.4,4.8,7.4,10.2,6.8,17
		c-0.2,2.3,1.5,3.4,2.9,4.3c11.5,7.4,23.1,14.7,34.7,22c0.5,0.3,0.9,0.6,1.4,0.9c-0.1,0.3-0.3,0.5-0.4,0.8c-0.7-0.2-1.4-0.3-1.9-0.6
		c-6.5-4.1-13-8.2-19.5-12.3c-5.4-3.4-10.7-6.9-16.1-10.4c-1.7-1.1-2.9-2.6-2.7-4.5c0.8-7.7-3.3-13-8-18.2
		c-3.2-3.5-5.7-7.6-8.6-11.4C151,103.3,150.6,103.2,150.4,103.1z"/>
	<path d="M131.9,75.9C131.9,75.9,131.9,75.9,131.9,75.9c-2.2-0.5-4.5-0.8-6.5-1.6c-4.9-1.9-9.8-3.9-14.4-6.2
		c-2.3-1.2-4.1-3.4-6.3-4.9c-2.4-1.7-4.9-3.4-7.6-4.6c-2-0.9-4.1-0.1-6,1.2c-3.1,2.2-4.7,1.9-7.2-1c-6.9-7.9-12.6-16.7-17.5-25.9
		c-0.5-1-0.8-2.1-1.2-3.2c0.2-0.1,0.4-0.3,0.6-0.4c0.4,0.5,1,0.9,1.3,1.5c5,9.7,11.2,18.6,17.9,27.2c1.9,2.5,2.7,2.6,4.9,0.9
		c3.8-2.8,7.7-2.4,11.3-0.1c3.7,2.3,7.1,5.3,10.7,7.9c4.1,3,8.9,4.4,13.6,6c2,0.7,4.1,1.2,6.1,1.9C131.6,74.7,131.7,75.4,131.9,75.9
		z"/>
	<path d="M65.9,95.2c-1.1,2.1-2.2,4.2-3.3,6.3c-2.6,4.5-6.5,7.7-10.5,10.8c-2.8,2.2-5.7,4.4-6.2,8.1c-0.2,1.6,0,3.5,0.6,5.1
		c1,2.8,1,4.2-1.7,5.7c-3.4,2-6.8,3.8-10.4,5.4c-5.9,2.5-11.9,4.8-18,7c-1.5,0.5-3.1,0.7-4.8,1c0.3-2.5,2.5-1.8,3.8-2.3
		c7.8-3.3,15.7-6.3,23.6-9.4c1.8-0.7,3.5-1.6,5.1-2.6c1.1-0.7,2.4-1.5,1.5-3.5c-3-6.1-0.4-10.7,4.3-14.4c5.8-4.6,11.1-9.6,14.5-16.4
		C64.4,95.5,65.3,95.5,65.9,95.2C65.9,95.2,65.9,95.2,65.9,95.2z"/>
	<path d="M89.3,151.9c-5.8,1.7-11.4,3.9-17.6,3.7c-2.9-0.1-5.6-0.6-8-2.1c-2.3-1.4-4.4-1-6.4,0.3c-11.4,6.9-22.7,13.8-34.1,20.6
		c-0.9,0.5-1.9,0.7-2.9,1.1c0.7-0.7,1.3-1.6,2.2-2.1c9.3-5.7,18.7-11.4,28.1-17.1c2.1-1.3,4.3-2.5,6.3-3.9c2.4-1.7,4.7-1.9,7.4-0.3
		c3.6,2.1,7.4,3.1,11.7,1.7c3.5-1.1,7.1-1.9,10.6-2.7C87.4,150.9,88.8,150.3,89.3,151.9C89.2,152,89.3,151.9,89.3,151.9z"/>
	<path d="M126.1,156.4c3.7-0.2,6.6,1.9,9.8,3.1c2.8,1.1,5.5,2.3,8.4,3c2.7,0.7,5-0.6,6.9-2.6c3.2-3.3,3.4-3.6,7.1-1
		c9.2,6.5,17.9,13.6,25,22.4c0.2,0.3,0.4,0.7,0.2,1.4c-0.5-0.4-1.1-0.7-1.5-1.1c-6.5-7-13.5-13.4-21-19.1c-1.3-1-2.6-2-4-3
		c-1.7-1.2-3.1-1-4.3,0.7c-2.2,3-5.4,4.4-9,3.3c-3.8-1.2-7.5-2.7-11.3-4.1c-1.6-0.6-3.2-1.2-4.8-1.5
		C126.3,157.9,126.2,157.3,126.1,156.4C126.2,156.3,126.1,156.4,126.1,156.4z"/>
	<path d="M66.9,91.4c-0.4-0.2-1-0.4-1.2-0.8c-1.6-3-0.3-5.9,0.5-8.7c0.7-2.3,0.1-3.7-1.2-5.1c-7.3-8-14.6-16.1-21.9-24.1
		c-2.1-2.3-4.2-4.6-6.3-7c-0.4-0.4-0.5-1-0.7-1.6c0.2-0.1,0.4-0.3,0.6-0.4c1.4,1.5,2.9,3,4.3,4.5c8.3,9.1,16.6,18.2,25,27.2
		c2,2.2,2,4.6,1.7,7.2C67.3,85.6,67.1,88.6,66.9,91.4C66.8,91.5,66.9,91.4,66.9,91.4z"/>
	<path d="M122.8,156.9c-8.8-1-17.3,0-25.5-3.1c0.6-0.2,1.2-0.6,1.8-0.5c4.7,0.4,9.3,0.9,13.9,1.4c2.6,0.3,5.2,0.4,7.8,0.8
		C121.4,155.5,121.9,156.2,122.8,156.9z"/>
	<path d="M107.5,145.4c4.3,0.4,8.7,0.8,13.5,1.3c-0.8,0.7-1.3,1.4-1.7,1.4c-4-0.4-8-0.9-12-1.4C107.4,146.2,107.5,145.8,107.5,145.4
		z"/>
	<path d="M78.2,138.6c0.7,0.2,1.4,0.4,2.1,0.7c0.7,0.3,1.4,1,1.9,0.9c0.7-0.2,1.3-1,1.6-1.7c0.5-1.2,0.7-2.5,1.4-3.7
		c0.9,1.9,0.6,3.8-0.6,5.3c-0.7,0.9-1.9,1.7-3,1.8C79.7,141.9,79,140.1,78.2,138.6C78.2,138.6,78.2,138.6,78.2,138.6z"/>
	<path d="M77.7,128.4c-0.6-0.5-1.6-0.9-1.7-1.5c-0.2-2.7-0.1-5.5,0.4-8.5c0.3,0.7,0.9,1.3,1,2C77.6,123.1,77.6,125.7,77.7,128.4
		C77.7,128.4,77.7,128.4,77.7,128.4z"/>
	<path d="M122.6,141.1c-2.6-1.2-5.2-2.4-7.7-3.7c-0.3-0.2-0.3-1.2-0.4-1.8c0,0-0.1,0.1-0.1,0.1c2.6,1.3,5.3,2.6,7.8,4
		C122.6,139.8,122.5,140.6,122.6,141.1L122.6,141.1z"/>
	<path d="M99.2,137.7c-0.1,0.1-0.3,0.1-0.4,0.2c-0.3,0-0.9,0.1-1-0.1c-1.4-3.1-2.6-6.2-4-9.3c0,0-0.1,0.1-0.1,0.1
		c0.6,0.2,1.5,0.2,1.7,0.6C96.8,131.9,97.9,134.8,99.2,137.7z"/>
	<path d="M109,142c1.8,0.3,3.6,0.5,5.4,0.9c2.1,0.5,4.2,1.2,6.3,1.9c-0.1,0.3-0.2,0.7-0.2,1c-2.3-0.5-4.7-0.9-7-1.6
		C111.9,143.7,110.5,142.7,109,142C109.1,141.9,109,142,109,142z"/>
	<path d="M90.3,118.5c-1.2,0.5-2.3,1.1-3.6,1.6c-0.3-1.9,0.2-3.7,2.3-5.6C89.4,116.2,89.8,117.4,90.3,118.5
		C90.2,118.6,90.3,118.5,90.3,118.5z"/>
	<path d="M70.7,104.8c0.2,0.3,0.4,0.6,0.5,0.9c-0.3,1.3-0.6,2.6-0.9,3.9c0,0,0.1-0.1,0.1-0.1c-1.1,0.1-2.3-0.4-1.6-1.5
		C69.5,107,68.4,104.8,70.7,104.8z"/>
	<path class="st0" d="M74,107.7c-1.4-3.2-2.8-6.4-4.3-9.9c6.4,1.4,13.3,0.2,20,3.1c-5.1,2.4-9.8,4.6-14.5,6.7
		C74.9,107.9,74.4,107.7,74,107.7C73.9,107.7,74,107.7,74,107.7z"/>
	<path class="st0" d="M99.2,137.7c-1.2-2.9-2.4-5.8-3.7-8.6c-0.2-0.4-1.1-0.4-1.7-0.6c2.8-1.5,5.5-3.1,8.3-4.4
		c1.1-0.5,2.4-0.7,3.6-0.9c1.4-0.2,2,0.6,1.7,1.8c-0.5,1.7-0.9,3.6-1.9,5.1C103.5,132.7,101.2,135.1,99.2,137.7z M101.4,124.7
		c1.4,2.1,0.6,4.5,2.9,5.9C104.8,127.6,103.9,125.3,101.4,124.7z"/>
	<path class="st0" d="M126.1,131.1c0.2,2.8-1,5.1-2.7,7.2c0,0,0.1,0,0.1,0c0-2.2-2.7-6-4.8-6.8c0.9-2.1,2.3-3.7,4.6-4.5
		C123,129,124.5,131,126.1,131.1L126.1,131.1z"/>
	<path class="st0" d="M122.6,141.1c-0.1-0.5,0-1.3-0.3-1.5c-2.6-1.4-5.2-2.7-7.8-4c1.2-1.3,2.5-2.5,3.7-3.8c1.1,2.7,2.8,5,5.3,6.5
		c0,0-0.1,0-0.1,0C123.1,139.3,122.8,140.2,122.6,141.1z"/>
	<path class="st0" d="M123.2,127.3c0.4-2,1.9-2.7,4-3.6c-0.1,2.7,0.9,5.2-1,7.4c0,0,0.1,0.1,0.1,0.1c-0.7-1.4-1.3-2.8-2-4.1
		C124.1,127,123.5,127.2,123.2,127.3z"/>
	<path d="M123.5,138.4c-2.5-1.5-4.2-3.8-5.3-6.5c0.2-0.1,0.3-0.2,0.5-0.3C120.8,132.4,123.5,136.2,123.5,138.4z"/>
	<path d="M123.2,127.3c0.3-0.1,0.9-0.3,1-0.2c0.7,1.4,1.4,2.8,2,4.1c-1.7-0.2-3.2-2.2-2.9-4.1C123.3,127.1,123.2,127.3,123.2,127.3z
		"/>
	<path class="st0" d="M70.4,109.6c0.3-1.3,0.6-2.6,0.9-3.9c0.9,0.7,1.8,1.4,2.7,2c0,0-0.1-0.1-0.1-0.1
		C72.7,108.3,71.5,109,70.4,109.6z"/>
	<path d="M101.4,124.7c2.4,0.7,3.4,3,2.9,5.9C102.1,129.2,102.8,126.8,101.4,124.7z"/>
</g>
</svg>
